<svg width="2000px" height="518px"
 viewBox="0.00 0.00 2076.99 538.41" xmlns="http://www.w3.org/2000/svg" xmlns:xlink="http://www.w3.org/1999/xlink">
<g id="graph0" class="graph" transform="scale(1.0 1.0) rotate(0) translate(4 534.41)">
<title>ContextMapGraph</title>
<polygon fill="white" stroke="transparent" points="-4,4 -4,-534.41 2072.99,-534.41 2072.99,4 -4,4"/>
<!-- CRMContext -->
<g id="node1" class="node">
<title>CRMContext</title>
<polygon fill="none" stroke="black" stroke-width="2" points="687.68,-352.99 685.49,-350.29 683.57,-347.56 681.95,-344.83 680.62,-342.1 679.6,-339.37 678.89,-336.67 678.49,-334 678.42,-331.38 678.66,-328.8 679.23,-326.28 680.12,-323.83 681.33,-321.46 682.86,-319.17 684.71,-316.97 686.86,-314.86 689.32,-312.85 692.08,-310.96 695.12,-309.17 698.44,-307.49 702.03,-305.93 705.87,-304.49 709.95,-303.17 714.26,-301.97 718.78,-300.89 723.5,-299.93 728.4,-299.09 733.46,-298.37 738.67,-297.77 744.01,-297.28 749.46,-296.91 754.99,-296.64 760.6,-296.49 766.26,-296.43 771.96,-296.48 777.67,-296.63 783.38,-296.88 789.06,-297.21 794.71,-297.63 800.29,-298.14 805.8,-298.73 811.22,-299.39 816.54,-300.14 821.72,-300.95 826.77,-301.84 831.67,-302.79 836.41,-303.81 840.97,-304.89 845.34,-306.03 849.51,-307.24 853.47,-308.5 857.22,-309.82 860.74,-311.19 864.03,-312.62 867.08,-314.1 869.89,-315.64 872.45,-317.23 874.77,-318.87 876.83,-320.56 878.63,-322.3 880.18,-324.08 881.48,-325.92 882.52,-327.8 883.3,-329.72 883.83,-331.68 884.1,-333.69 884.13,-335.73 883.91,-337.81 883.44,-339.91 882.74,-342.05 881.8,-344.2 880.62,-346.38 879.22,-348.57 877.59,-350.77 875.75,-352.97 873.69,-355.17 871.42,-357.36 868.95,-359.53 866.28,-361.68 863.42,-363.8 860.38,-365.88 857.15,-367.91 853.75,-369.89 850.19,-371.81 846.47,-373.66 842.59,-375.43 838.56,-377.11 834.4,-378.7 830.11,-380.18 825.69,-381.56 821.16,-382.81 816.53,-383.95 811.79,-384.95 806.97,-385.81 802.08,-386.53 797.11,-387.1 792.09,-387.51 787.02,-387.77 781.92,-387.87 776.79,-387.81 771.65,-387.58 766.52,-387.19 761.4,-386.63 756.31,-385.91 751.26,-385.02 746.26,-383.98 741.33,-382.77 736.49,-381.42 731.75,-379.91 727.12,-378.27 722.61,-376.48 718.25,-374.57 714.04,-372.54 710.01,-370.39 706.16,-368.14 702.51,-365.79 699.07,-363.36 695.85,-360.85 692.88,-358.28 690.15,-355.66 687.68,-352.99"/>
<text text-anchor="middle" x="784.62" y="-335.4" font-family="sans-serif" font-size="16.00">CRMContext</text>
</g>
<!-- UserContext -->
<g id="node2" class="node">
<title>UserContext</title>
<polygon fill="none" stroke="black" stroke-width="2" points="807.2,-150.54 813.83,-150.88 820.37,-151.33 826.81,-151.91 833.12,-152.59 839.28,-153.39 845.25,-154.3 851.02,-155.32 856.56,-156.44 861.85,-157.67 866.88,-158.99 871.63,-160.41 876.07,-161.92 880.2,-163.51 884.01,-165.19 887.48,-166.94 890.6,-168.77 893.37,-170.66 895.79,-172.62 897.85,-174.63 899.54,-176.7 900.88,-178.81 901.86,-180.96 902.49,-183.15 902.77,-185.37 902.71,-187.61 902.32,-189.86 901.61,-192.13 900.6,-194.4 899.28,-196.67 897.68,-198.94 895.8,-201.19 893.67,-203.42 891.3,-205.62 888.7,-207.8 885.88,-209.93 882.87,-212.02 879.68,-214.07 876.32,-216.06 872.81,-217.99 869.16,-219.86 865.39,-221.65 861.51,-223.37 857.52,-225.02 853.46,-226.58 849.31,-228.05 845.1,-229.42 840.84,-230.71 836.53,-231.89 832.18,-232.97 827.8,-233.94 823.39,-234.81 818.97,-235.56 814.53,-236.21 810.08,-236.73 805.63,-237.14 801.18,-237.43 796.73,-237.61 792.28,-237.66 787.85,-237.59 783.42,-237.41 779.01,-237.1 774.62,-236.68 770.24,-236.13 765.89,-235.48 761.57,-234.7 757.28,-233.82 753.02,-232.82 748.81,-231.72 744.65,-230.51 740.54,-229.2 736.5,-227.8 732.52,-226.3 728.63,-224.71 724.82,-223.03 721.12,-221.27 717.52,-219.44 714.05,-217.53 710.71,-215.56 707.52,-213.53 704.5,-211.45 701.65,-209.31 698.98,-207.13 696.53,-204.92 694.28,-202.67 692.28,-200.4 690.51,-198.11 689.01,-195.81 687.78,-193.51 686.83,-191.2 686.19,-188.9 685.85,-186.62 685.83,-184.36 686.13,-182.12 686.77,-179.92 687.76,-177.76 689.08,-175.64 690.76,-173.57 692.79,-171.56 695.17,-169.61 697.9,-167.73 700.97,-165.93 704.39,-164.2 708.13,-162.55 712.2,-160.99 716.58,-159.53 721.26,-158.16 726.22,-156.88 731.46,-155.71 736.94,-154.65 742.65,-153.7 748.57,-152.85 754.67,-152.13 760.94,-151.51 767.35,-151.01 773.86,-150.64 780.47,-150.38 787.13,-150.24 793.83,-150.22 800.53,-150.32 807.2,-150.54"/>
<text text-anchor="middle" x="793.62" y="-190.15" font-family="sans-serif" font-size="16.00">UserContext</text>
</g>
<!-- CRMContext&#45;&gt;UserContext -->
<g id="edge1" class="edge">
<title>CRMContext&#45;&gt;UserContext</title>
<path fill="none" stroke="black" stroke-width="2" d="M784.28,-296.84C784.42,-284.75 784.79,-271.52 785.62,-259.36 786.1,-252.39 786.81,-245.02 787.62,-237.85"/>
<text text-anchor="middle" x="861.12" y="-262.76" font-family="sans-serif" font-size="12.00"> &#160;&#160;&#160;&#160;&#160;&#160;&#160;&#160;&#160;&#160;&#160;&#160;&#160;&#160;&#160;&#160;&#160;&#160;&#160;&#160;&#160;&#160;&#160;&#160;&#160;&#160;&#160;&#160;&#160;&#160;&#160;&#160;&#160;&#160;&#160;&#160;&#160;&#160;&#160;</text>
<polygon fill="white" stroke="transparent" points="780.62,-228.85 780.62,-245.85 794.62,-245.85 794.62,-228.85 780.62,-228.85"/>
<text text-anchor="start" x="782.62" y="-234.25" font-family="sans-serif" font-size="12.00">D</text>
<polygon fill="white" stroke="transparent" points="777.28,-287.84 777.28,-304.84 791.28,-304.84 791.28,-287.84 777.28,-287.84"/>
<text text-anchor="start" x="779.28" y="-293.24" font-family="sans-serif" font-size="12.00">U</text>
</g>
<!-- DigitalSignatureContext -->
<g id="node3" class="node">
<title>DigitalSignatureContext</title>
<polygon fill="none" stroke="black" stroke-width="2" points="128.13,-90.2 117.73,-89.27 107.56,-88.24 97.65,-87.1 88.04,-85.86 78.77,-84.52 69.88,-83.09 61.41,-81.57 53.39,-79.97 45.84,-78.3 38.8,-76.55 32.29,-74.73 26.34,-72.85 20.96,-70.91 16.17,-68.93 11.99,-66.89 8.42,-64.82 5.46,-62.71 3.13,-60.57 1.43,-58.4 0.35,-56.22 -0.12,-54.03 0.02,-51.82 0.75,-49.62 2.07,-47.42 3.95,-45.22 6.37,-43.04 9.32,-40.87 12.78,-38.73 16.71,-36.62 21.1,-34.54 25.91,-32.5 31.12,-30.5 36.7,-28.54 42.62,-26.64 48.85,-24.8 55.36,-23.01 62.13,-21.29 69.13,-19.63 76.32,-18.05 83.68,-16.54 91.19,-15.12 98.81,-13.77 106.54,-12.51 114.33,-11.35 122.17,-10.27 130.05,-9.3 137.94,-8.42 145.82,-7.64 153.68,-6.97 161.51,-6.41 169.3,-5.95 177.02,-5.61 184.67,-5.37 192.25,-5.26 199.75,-5.25 207.15,-5.36 214.45,-5.59 221.65,-5.94 228.73,-6.4 235.71,-6.98 242.57,-7.68 249.3,-8.49 255.91,-9.41 262.39,-10.45 268.73,-11.59 274.93,-12.85 280.99,-14.21 286.89,-15.67 292.63,-17.23 298.2,-18.88 303.59,-20.62 308.79,-22.45 313.79,-24.37 318.58,-26.35 323.14,-28.41 327.46,-30.54 331.53,-32.72 335.33,-34.95 338.84,-37.24 342.05,-39.56 344.94,-41.91 347.49,-44.29 349.68,-46.68 351.49,-49.09 352.92,-51.5 353.93,-53.91 354.52,-56.3 354.66,-58.68 354.34,-61.03 353.55,-63.34 352.28,-65.62 350.5,-67.84 348.23,-70.01 345.44,-72.12 342.13,-74.15 338.3,-76.12 333.95,-78 329.08,-79.79 323.7,-81.49 317.81,-83.09 311.42,-84.59 304.54,-85.99 297.2,-87.27 289.41,-88.43 281.18,-89.48 272.56,-90.41 263.55,-91.22 254.2,-91.9 244.53,-92.45 234.57,-92.88 224.37,-93.17 213.96,-93.34 203.38,-93.38 192.67,-93.3 181.88,-93.09 171.04,-92.75 160.2,-92.29 149.4,-91.71 138.7,-91.01 128.13,-90.2"/>
<text text-anchor="middle" x="184.62" y="-44.97" font-family="sans-serif" font-size="16.00">DigitalSignatureContext</text>
</g>
<!-- UserContext&#45;&gt;DigitalSignatureContext -->
<g id="edge2" class="edge">
<title>UserContext&#45;&gt;DigitalSignatureContext</title>
<path fill="none" stroke="black" stroke-width="2" d="M689.76,-174.73C625.02,-162.84 540.14,-146.26 465.62,-128.53 412.76,-115.95 354.87,-100.09 305.44,-85.9"/>
<text text-anchor="middle" x="541.12" y="-118.93" font-family="sans-serif" font-size="12.00"> &#160;&#160;&#160;&#160;&#160;&#160;&#160;&#160;&#160;&#160;&#160;&#160;&#160;&#160;&#160;&#160;&#160;&#160;&#160;&#160;&#160;&#160;&#160;&#160;&#160;&#160;&#160;&#160;&#160;&#160;&#160;&#160;&#160;&#160;&#160;&#160;&#160;&#160;&#160;</text>
<polygon fill="white" stroke="transparent" points="298.44,-76.9 298.44,-93.9 312.44,-93.9 312.44,-76.9 298.44,-76.9"/>
<text text-anchor="start" x="300.44" y="-82.3" font-family="sans-serif" font-size="12.00">D</text>
<polygon fill="white" stroke="transparent" points="682.76,-165.73 682.76,-182.73 696.76,-182.73 696.76,-165.73 682.76,-165.73"/>
<text text-anchor="start" x="684.76" y="-171.13" font-family="sans-serif" font-size="12.00">U</text>
</g>
<!-- ContractContext -->
<g id="node4" class="node">
<title>ContractContext</title>
<polygon fill="none" stroke="black" stroke-width="2" points="526.59,-92.72 518.41,-92.83 510.26,-92.82 502.2,-92.68 494.24,-92.43 486.42,-92.05 478.77,-91.55 471.33,-90.93 464.11,-90.19 457.14,-89.33 450.45,-88.36 444.06,-87.27 438,-86.08 432.28,-84.77 426.91,-83.37 421.92,-81.86 417.31,-80.26 413.1,-78.57 409.3,-76.79 405.9,-74.93 402.92,-73 400.35,-71 398.2,-68.93 396.46,-66.8 395.13,-64.62 394.19,-62.4 393.66,-60.13 393.5,-57.84 393.72,-55.52 394.3,-53.18 395.23,-50.83 396.5,-48.47 398.08,-46.11 399.97,-43.77 402.15,-41.44 404.61,-39.13 407.32,-36.85 410.27,-34.61 413.45,-32.41 416.85,-30.26 420.43,-28.17 424.2,-26.13 428.14,-24.16 432.24,-22.26 436.47,-20.45 440.84,-18.71 445.32,-17.06 449.92,-15.5 454.62,-14.04 459.41,-12.67 464.28,-11.41 469.23,-10.26 474.26,-9.21 479.35,-8.28 484.51,-7.46 489.72,-6.75 494.99,-6.16 500.31,-5.69 505.67,-5.34 511.08,-5.1 516.53,-4.99 522.02,-5 527.53,-5.12 533.08,-5.36 538.65,-5.72 544.23,-6.2 549.83,-6.79 555.44,-7.49 561.04,-8.3 566.62,-9.21 572.19,-10.23 577.73,-11.36 583.22,-12.58 588.65,-13.89 594.01,-15.3 599.29,-16.79 604.47,-18.37 609.53,-20.02 614.46,-21.75 619.24,-23.55 623.84,-25.41 628.25,-27.34 632.46,-29.32 636.43,-31.35 640.15,-33.42 643.6,-35.54 646.77,-37.69 649.62,-39.87 652.14,-42.07 654.32,-44.29 656.13,-46.53 657.57,-48.77 658.61,-51.01 659.23,-53.25 659.44,-55.47 659.22,-57.69 658.56,-59.87 657.45,-62.04 655.89,-64.17 653.88,-66.26 651.41,-68.31 648.49,-70.3 645.13,-72.25 641.32,-74.13 637.09,-75.95 632.43,-77.7 627.37,-79.38 621.93,-80.97 616.11,-82.48 609.94,-83.91 603.44,-85.24 596.64,-86.47 589.57,-87.61 582.24,-88.64 574.7,-89.56 566.96,-90.37 559.07,-91.08 551.06,-91.66 542.95,-92.13 534.78,-92.49 526.59,-92.72"/>
<text text-anchor="middle" x="523.62" y="-44.97" font-family="sans-serif" font-size="16.00">ContractContext</text>
</g>
<!-- UserContext&#45;&gt;ContractContext -->
<g id="edge3" class="edge">
<title>UserContext&#45;&gt;ContractContext</title>
<path fill="none" stroke="black" stroke-width="2" d="M710.28,-161.66C686.97,-151.95 661.92,-140.61 639.62,-128.53 618.43,-117.05 596.28,-102.68 577.08,-89.35"/>
<text text-anchor="middle" x="715.12" y="-118.93" font-family="sans-serif" font-size="12.00"> &#160;&#160;&#160;&#160;&#160;&#160;&#160;&#160;&#160;&#160;&#160;&#160;&#160;&#160;&#160;&#160;&#160;&#160;&#160;&#160;&#160;&#160;&#160;&#160;&#160;&#160;&#160;&#160;&#160;&#160;&#160;&#160;&#160;&#160;&#160;&#160;&#160;&#160;&#160;</text>
<polygon fill="white" stroke="transparent" points="570.08,-80.35 570.08,-97.35 584.08,-97.35 584.08,-80.35 570.08,-80.35"/>
<text text-anchor="start" x="572.08" y="-85.75" font-family="sans-serif" font-size="12.00">D</text>
<polygon fill="white" stroke="transparent" points="703.28,-152.66 703.28,-169.66 717.28,-169.66 717.28,-152.66 703.28,-152.66"/>
<text text-anchor="start" x="705.28" y="-158.06" font-family="sans-serif" font-size="12.00">U</text>
</g>
<!-- LoginContext -->
<g id="node5" class="node">
<title>LoginContext</title>
<polygon fill="none" stroke="black" stroke-width="2" points="767.34,-91.42 760.49,-90.74 753.77,-89.94 747.18,-89.02 740.77,-88.01 734.56,-86.88 728.56,-85.66 722.82,-84.34 717.35,-82.92 712.16,-81.42 707.28,-79.84 702.73,-78.17 698.52,-76.43 694.67,-74.62 691.18,-72.74 688.07,-70.81 685.34,-68.82 683,-66.78 681.05,-64.7 679.5,-62.58 678.34,-60.42 677.57,-58.24 677.19,-56.04 677.19,-53.82 677.56,-51.59 678.29,-49.36 679.38,-47.12 680.8,-44.9 682.55,-42.68 684.62,-40.48 686.98,-38.3 689.62,-36.15 692.52,-34.04 695.67,-31.96 699.05,-29.93 702.65,-27.94 706.43,-26.01 710.39,-24.13 714.51,-22.32 718.78,-20.57 723.16,-18.9 727.66,-17.31 732.25,-15.79 736.92,-14.36 741.66,-13.02 746.45,-11.76 751.28,-10.61 756.13,-9.55 761.01,-8.6 765.9,-7.75 770.78,-7 775.66,-6.37 780.53,-5.85 785.38,-5.44 790.2,-5.15 794.99,-4.98 799.75,-4.92 804.47,-4.98 809.15,-5.16 813.78,-5.46 818.37,-5.88 822.9,-6.42 827.39,-7.07 831.81,-7.84 836.18,-8.73 840.48,-9.73 844.71,-10.84 848.88,-12.06 852.96,-13.38 856.97,-14.81 860.88,-16.33 864.7,-17.95 868.42,-19.66 872.03,-21.45 875.52,-23.33 878.88,-25.28 882.1,-27.3 885.17,-29.39 888.07,-31.53 890.81,-33.73 893.36,-35.97 895.71,-38.25 897.85,-40.57 899.76,-42.91 901.44,-45.28 902.86,-47.65 904.02,-50.03 904.91,-52.41 905.51,-54.77 905.81,-57.13 905.8,-59.46 905.47,-61.76 904.81,-64.02 903.82,-66.23 902.48,-68.4 900.8,-70.51 898.77,-72.56 896.39,-74.54 893.66,-76.44 890.58,-78.26 887.16,-79.99 883.39,-81.64 879.29,-83.18 874.87,-84.63 870.13,-85.97 865.09,-87.21 859.77,-88.33 854.19,-89.34 848.35,-90.24 842.28,-91.01 836,-91.66 829.54,-92.19 822.92,-92.6 816.16,-92.88 809.29,-93.04 802.34,-93.08 795.33,-92.99 788.3,-92.78 781.27,-92.45 774.28,-91.99 767.34,-91.42"/>
<text text-anchor="middle" x="794.62" y="-44.97" font-family="sans-serif" font-size="16.00">LoginContext</text>
</g>
<!-- UserContext&#45;&gt;LoginContext -->
<g id="edge4" class="edge">
<title>UserContext&#45;&gt;LoginContext</title>
<path fill="none" stroke="black" stroke-width="2" d="M793.92,-149.99C794.05,-132.03 794.19,-111.2 794.32,-93.19"/>
<text text-anchor="middle" x="870.12" y="-118.93" font-family="sans-serif" font-size="12.00"> &#160;&#160;&#160;&#160;&#160;&#160;&#160;&#160;&#160;&#160;&#160;&#160;&#160;&#160;&#160;&#160;&#160;&#160;&#160;&#160;&#160;&#160;&#160;&#160;&#160;&#160;&#160;&#160;&#160;&#160;&#160;&#160;&#160;&#160;&#160;&#160;&#160;&#160;&#160;</text>
<polygon fill="white" stroke="transparent" points="787.32,-84.19 787.32,-101.19 801.32,-101.19 801.32,-84.19 787.32,-84.19"/>
<text text-anchor="start" x="789.32" y="-89.59" font-family="sans-serif" font-size="12.00">D</text>
<polygon fill="white" stroke="transparent" points="786.92,-140.99 786.92,-157.99 800.92,-157.99 800.92,-140.99 786.92,-140.99"/>
<text text-anchor="start" x="788.92" y="-146.39" font-family="sans-serif" font-size="12.00">U</text>
</g>
<!-- CustomerServiceContext -->
<g id="node6" class="node">
<title>CustomerServiceContext</title>
<polygon fill="none" stroke="black" stroke-width="2" points="1264.86,-69.05 1259.73,-71.6 1254.21,-74.08 1248.32,-76.48 1242.07,-78.78 1235.49,-80.98 1228.61,-83.08 1221.44,-85.05 1214.02,-86.89 1206.35,-88.61 1198.48,-90.18 1190.42,-91.6 1182.19,-92.88 1173.83,-94 1165.34,-94.95 1156.77,-95.75 1148.12,-96.38 1139.43,-96.85 1130.71,-97.16 1121.98,-97.3 1113.28,-97.27 1104.6,-97.09 1095.99,-96.75 1087.45,-96.26 1079.01,-95.61 1070.67,-94.83 1062.47,-93.9 1054.42,-92.84 1046.52,-91.65 1038.81,-90.35 1031.29,-88.93 1023.98,-87.41 1016.89,-85.79 1010.04,-84.08 1003.44,-82.29 997.1,-80.43 991.03,-78.51 985.26,-76.52 979.78,-74.49 974.61,-72.42 969.77,-70.32 965.26,-68.18 961.09,-66.03 957.28,-63.87 953.83,-61.7 950.76,-59.53 948.06,-57.37 945.76,-55.21 943.85,-53.07 942.36,-50.96 941.27,-48.86 940.61,-46.79 940.37,-44.75 940.56,-42.75 941.19,-40.78 942.25,-38.85 943.76,-36.96 945.71,-35.11 948.11,-33.3 950.94,-31.54 954.22,-29.82 957.93,-28.15 962.08,-26.53 966.65,-24.95 971.65,-23.43 977.06,-21.95 982.86,-20.53 989.06,-19.16 995.64,-17.84 1002.58,-16.58 1009.86,-15.37 1017.48,-14.22 1025.4,-13.13 1033.62,-12.11 1042.1,-11.15 1050.83,-10.26 1059.77,-9.44 1068.92,-8.69 1078.22,-8.02 1087.67,-7.44 1097.23,-6.93 1106.87,-6.51 1116.56,-6.18 1126.27,-5.95 1135.96,-5.82 1145.62,-5.78 1155.19,-5.85 1164.66,-6.04 1173.99,-6.33 1183.15,-6.73 1192.11,-7.26 1200.84,-7.9 1209.3,-8.66 1217.48,-9.55 1225.33,-10.56 1232.84,-11.7 1239.98,-12.95 1246.72,-14.33 1253.05,-15.84 1258.94,-17.46 1264.37,-19.2 1269.33,-21.05 1273.79,-23.02 1277.76,-25.09 1281.21,-27.25 1284.13,-29.52 1286.53,-31.87 1288.38,-34.3 1289.7,-36.81 1290.47,-39.37 1290.71,-42 1290.41,-44.67 1289.57,-47.37 1288.21,-50.1 1286.33,-52.85 1283.94,-55.6 1281.06,-58.35 1277.69,-61.08 1273.86,-63.78 1269.58,-66.44 1264.86,-69.05"/>
<text text-anchor="middle" x="1110.62" y="-44.97" font-family="sans-serif" font-size="16.00">CustomerServiceContext</text>
</g>
<!-- UserContext&#45;&gt;CustomerServiceContext -->
<g id="edge5" class="edge">
<title>UserContext&#45;&gt;CustomerServiceContext</title>
<path fill="none" stroke="black" stroke-width="2" d="M873.8,-160.98C898.28,-150.91 925.18,-139.54 949.62,-128.53 976.86,-116.26 1006.31,-102.12 1032.48,-89.23"/>
<text text-anchor="middle" x="1052.12" y="-118.93" font-family="sans-serif" font-size="12.00"> &#160;&#160;&#160;&#160;&#160;&#160;&#160;&#160;&#160;&#160;&#160;&#160;&#160;&#160;&#160;&#160;&#160;&#160;&#160;&#160;&#160;&#160;&#160;&#160;&#160;&#160;&#160;&#160;&#160;&#160;&#160;&#160;&#160;&#160;&#160;&#160;&#160;&#160;&#160;</text>
<polygon fill="white" stroke="transparent" points="1025.48,-80.23 1025.48,-97.23 1039.48,-97.23 1039.48,-80.23 1025.48,-80.23"/>
<text text-anchor="start" x="1027.48" y="-85.63" font-family="sans-serif" font-size="12.00">D</text>
<polygon fill="white" stroke="transparent" points="866.8,-151.98 866.8,-168.98 880.8,-168.98 880.8,-151.98 866.8,-151.98"/>
<text text-anchor="start" x="868.8" y="-157.38" font-family="sans-serif" font-size="12.00">U</text>
</g>
<!-- GeolocationContext -->
<g id="node7" class="node">
<title>GeolocationContext</title>
<polygon fill="none" stroke="black" stroke-width="2" points="1157.95,-230.99 1150.05,-232.56 1141.98,-234.02 1133.79,-235.36 1125.49,-236.57 1117.13,-237.66 1108.72,-238.61 1100.31,-239.42 1091.92,-240.09 1083.59,-240.61 1075.33,-240.98 1067.19,-241.21 1059.17,-241.28 1051.31,-241.2 1043.63,-240.96 1036.15,-240.57 1028.89,-240.03 1021.87,-239.35 1015.1,-238.51 1008.6,-237.53 1002.38,-236.42 996.45,-235.17 990.82,-233.79 985.5,-232.28 980.5,-230.66 975.81,-228.93 971.45,-227.09 967.41,-225.15 963.7,-223.13 960.31,-221.02 957.25,-218.84 954.51,-216.6 952.09,-214.3 949.99,-211.96 948.2,-209.57 946.72,-207.16 945.54,-204.72 944.67,-202.27 944.09,-199.82 943.8,-197.37 943.8,-194.93 944.08,-192.51 944.64,-190.11 945.47,-187.76 946.58,-185.44 947.95,-183.16 949.59,-180.95 951.49,-178.78 953.66,-176.69 956.08,-174.66 958.76,-172.7 961.7,-170.82 964.9,-169.02 968.35,-167.3 972.05,-165.67 976.01,-164.13 980.22,-162.68 984.68,-161.32 989.38,-160.05 994.33,-158.87 999.52,-157.8 1004.95,-156.81 1010.62,-155.92 1016.5,-155.13 1022.62,-154.44 1028.94,-153.83 1035.47,-153.33 1042.19,-152.92 1049.09,-152.6 1056.16,-152.38 1063.39,-152.25 1070.76,-152.21 1078.25,-152.26 1085.85,-152.41 1093.53,-152.64 1101.27,-152.97 1109.05,-153.38 1116.86,-153.89 1124.65,-154.48 1132.42,-155.16 1140.12,-155.92 1147.74,-156.77 1155.24,-157.71 1162.6,-158.73 1169.8,-159.83 1176.79,-161.02 1183.55,-162.29 1190.06,-163.64 1196.28,-165.06 1202.19,-166.57 1207.76,-168.15 1212.97,-169.81 1217.79,-171.54 1222.2,-173.34 1226.18,-175.21 1229.7,-177.14 1232.75,-179.13 1235.32,-181.18 1237.38,-183.28 1238.93,-185.43 1239.96,-187.63 1240.46,-189.86 1240.43,-192.13 1239.86,-194.43 1238.75,-196.74 1237.11,-199.08 1234.95,-201.42 1232.26,-203.77 1229.07,-206.11 1225.39,-208.44 1221.22,-210.75 1216.59,-213.03 1211.52,-215.27 1206.03,-217.47 1200.14,-219.62 1193.87,-221.71 1187.27,-223.74 1180.34,-225.68 1173.12,-227.55 1165.65,-229.32 1157.95,-230.99"/>
<text text-anchor="middle" x="1080.62" y="-190.15" font-family="sans-serif" font-size="16.00">GeolocationContext</text>
</g>
<!-- PropertyContext -->
<g id="node8" class="node">
<title>PropertyContext</title>
<polygon fill="none" stroke="black" stroke-width="2" points="1152.87,-340.24 1152.56,-337.37 1152.59,-334.51 1152.97,-331.67 1153.69,-328.88 1154.75,-326.13 1156.16,-323.44 1157.91,-320.83 1159.99,-318.29 1162.41,-315.84 1165.15,-313.49 1168.2,-311.25 1171.57,-309.12 1175.24,-307.11 1179.2,-305.22 1183.43,-303.47 1187.94,-301.85 1192.7,-300.37 1197.71,-299.04 1202.94,-297.84 1208.39,-296.8 1214.03,-295.89 1219.85,-295.14 1225.84,-294.53 1231.98,-294.06 1238.24,-293.73 1244.61,-293.54 1251.07,-293.49 1257.61,-293.56 1264.2,-293.77 1270.82,-294.09 1277.46,-294.54 1284.09,-295.1 1290.69,-295.76 1297.25,-296.53 1303.75,-297.39 1310.16,-298.34 1316.47,-299.38 1322.67,-300.5 1328.72,-301.69 1334.62,-302.95 1340.35,-304.27 1345.9,-305.66 1351.24,-307.09 1356.36,-308.58 1361.25,-310.12 1365.9,-311.69 1370.29,-313.31 1374.41,-314.96 1378.24,-316.64 1381.8,-318.35 1385.05,-320.09 1387.99,-321.86 1390.62,-323.65 1392.94,-325.46 1394.92,-327.29 1396.58,-329.14 1397.91,-331.01 1398.9,-332.89 1399.56,-334.79 1399.88,-336.71 1399.86,-338.63 1399.51,-340.57 1398.83,-342.52 1397.81,-344.48 1396.48,-346.44 1394.82,-348.41 1392.85,-350.37 1390.57,-352.34 1387.99,-354.3 1385.11,-356.26 1381.95,-358.2 1378.52,-360.13 1374.81,-362.04 1370.86,-363.93 1366.65,-365.78 1362.21,-367.6 1357.56,-369.38 1352.69,-371.11 1347.62,-372.79 1342.37,-374.41 1336.95,-375.96 1331.38,-377.43 1325.66,-378.83 1319.82,-380.14 1313.86,-381.35 1307.8,-382.46 1301.67,-383.46 1295.47,-384.35 1289.21,-385.11 1282.92,-385.75 1276.61,-386.25 1270.3,-386.62 1264,-386.84 1257.73,-386.91 1251.51,-386.83 1245.34,-386.6 1239.25,-386.21 1233.26,-385.66 1227.37,-384.96 1221.6,-384.09 1215.97,-383.07 1210.5,-381.88 1205.2,-380.55 1200.07,-379.06 1195.15,-377.42 1190.43,-375.65 1185.94,-373.73 1181.68,-371.69 1177.68,-369.52 1173.93,-367.24 1170.46,-364.85 1167.26,-362.36 1164.36,-359.79 1161.76,-357.14 1159.46,-354.42 1157.49,-351.65 1155.83,-348.84 1154.51,-345.99 1153.52,-343.12 1152.87,-340.24"/>
<text text-anchor="middle" x="1276.62" y="-335.4" font-family="sans-serif" font-size="16.00">PropertyContext</text>
</g>
<!-- PropertyContext&#45;&gt;UserContext -->
<g id="edge9" class="edge">
<title>PropertyContext&#45;&gt;UserContext</title>
<path fill="none" stroke="black" stroke-width="2" d="M1173.42,-307.94C1151.14,-301.8 1127.66,-295.62 1105.62,-290.36 1065.52,-280.8 1054.63,-282.31 1014.62,-272.36 968.23,-260.82 956.79,-257.01 911.62,-241.36 895.6,-235.81 878.55,-229.4 862.53,-223.15"/>
<text text-anchor="middle" x="1056.62" y="-262.76" font-family="sans-serif" font-size="12.00">Shared Kernel</text>
</g>
<!-- PropertyContext&#45;&gt;GeolocationContext -->
<g id="edge6" class="edge">
<title>PropertyContext&#45;&gt;GeolocationContext</title>
<path fill="none" stroke="black" stroke-width="2" d="M1169.5,-310.14C1148.37,-300.8 1127.77,-288.49 1111.62,-272.36 1102.81,-263.56 1096.42,-251.94 1091.82,-240.38"/>
<text text-anchor="middle" x="1187.12" y="-262.76" font-family="sans-serif" font-size="12.00"> &#160;&#160;&#160;&#160;&#160;&#160;&#160;&#160;&#160;&#160;&#160;&#160;&#160;&#160;&#160;&#160;&#160;&#160;&#160;&#160;&#160;&#160;&#160;&#160;&#160;&#160;&#160;&#160;&#160;&#160;&#160;&#160;&#160;&#160;&#160;&#160;&#160;&#160;&#160;</text>
<polygon fill="white" stroke="transparent" points="1084.82,-231.38 1084.82,-248.38 1098.82,-248.38 1098.82,-231.38 1084.82,-231.38"/>
<text text-anchor="start" x="1086.82" y="-236.78" font-family="sans-serif" font-size="12.00">D</text>
<polygon fill="white" stroke="transparent" points="1162.5,-301.14 1162.5,-318.14 1176.5,-318.14 1176.5,-301.14 1162.5,-301.14"/>
<text text-anchor="start" x="1164.5" y="-306.54" font-family="sans-serif" font-size="12.00">U</text>
</g>
<!-- TransactionsContext -->
<g id="node9" class="node">
<title>TransactionsContext</title>
<polygon fill="none" stroke="black" stroke-width="2" points="1386.72,-81.72 1379.43,-79.84 1372.46,-77.87 1365.83,-75.84 1359.58,-73.74 1353.72,-71.59 1348.29,-69.39 1343.31,-67.14 1338.79,-64.87 1334.76,-62.57 1331.23,-60.25 1328.22,-57.92 1325.74,-55.59 1323.8,-53.26 1322.4,-50.94 1321.55,-48.64 1321.25,-46.36 1321.5,-44.11 1322.29,-41.89 1323.62,-39.72 1325.47,-37.58 1327.85,-35.5 1330.72,-33.46 1334.09,-31.48 1337.92,-29.57 1342.2,-27.71 1346.91,-25.92 1352.03,-24.2 1357.52,-22.55 1363.37,-20.97 1369.54,-19.47 1376.01,-18.05 1382.76,-16.7 1389.74,-15.43 1396.94,-14.25 1404.33,-13.14 1411.86,-12.12 1419.53,-11.19 1427.29,-10.34 1435.12,-9.57 1443,-8.9 1450.89,-8.31 1458.77,-7.81 1466.63,-7.4 1474.43,-7.08 1482.15,-6.86 1489.78,-6.72 1497.29,-6.68 1504.67,-6.73 1511.91,-6.88 1518.98,-7.13 1525.88,-7.47 1532.59,-7.91 1539.1,-8.44 1545.41,-9.08 1551.51,-9.81 1557.38,-10.64 1563.03,-11.57 1568.45,-12.6 1573.63,-13.73 1578.57,-14.95 1583.27,-16.27 1587.73,-17.69 1591.95,-19.2 1595.91,-20.8 1599.63,-22.49 1603.1,-24.26 1606.31,-26.12 1609.28,-28.06 1611.99,-30.07 1614.44,-32.15 1616.63,-34.31 1618.56,-36.52 1620.23,-38.79 1621.63,-41.1 1622.75,-43.47 1623.6,-45.87 1624.17,-48.29 1624.46,-50.74 1624.45,-53.21 1624.15,-55.68 1623.54,-58.15 1622.63,-60.61 1621.4,-63.06 1619.86,-65.47 1617.99,-67.85 1615.8,-70.19 1613.27,-72.47 1610.4,-74.69 1607.2,-76.84 1603.65,-78.92 1599.76,-80.91 1595.53,-82.8 1590.96,-84.59 1586.05,-86.27 1580.81,-87.84 1575.23,-89.29 1569.34,-90.61 1563.13,-91.8 1556.62,-92.85 1549.82,-93.76 1542.74,-94.53 1535.41,-95.14 1527.83,-95.61 1520.03,-95.93 1512.03,-96.1 1503.85,-96.11 1495.52,-95.98 1487.07,-95.69 1478.51,-95.25 1469.89,-94.67 1461.22,-93.94 1452.54,-93.08 1443.89,-92.08 1435.29,-90.94 1426.78,-89.69 1418.4,-88.31 1410.16,-86.82 1402.12,-85.21 1394.29,-83.51 1386.72,-81.72"/>
<text text-anchor="middle" x="1484.62" y="-44.97" font-family="sans-serif" font-size="16.00">TransactionsContext</text>
</g>
<!-- PropertyContext&#45;&gt;TransactionsContext -->
<g id="edge7" class="edge">
<title>PropertyContext&#45;&gt;TransactionsContext</title>
<path fill="none" stroke="black" stroke-width="2" d="M1266.64,-293.57C1259.96,-252 1256.94,-190.07 1285.62,-146.53 1306.44,-114.93 1340.7,-93.32 1374.97,-78.7"/>
<text text-anchor="middle" x="1361.12" y="-190.85" font-family="sans-serif" font-size="12.00"> &#160;&#160;&#160;&#160;&#160;&#160;&#160;&#160;&#160;&#160;&#160;&#160;&#160;&#160;&#160;&#160;&#160;&#160;&#160;&#160;&#160;&#160;&#160;&#160;&#160;&#160;&#160;&#160;&#160;&#160;&#160;&#160;&#160;&#160;&#160;&#160;&#160;&#160;&#160;</text>
<polygon fill="white" stroke="transparent" points="1367.97,-69.7 1367.97,-86.7 1381.97,-86.7 1381.97,-69.7 1367.97,-69.7"/>
<text text-anchor="start" x="1369.97" y="-75.1" font-family="sans-serif" font-size="12.00">D</text>
<polygon fill="white" stroke="transparent" points="1259.64,-284.57 1259.64,-301.57 1273.64,-301.57 1273.64,-284.57 1259.64,-284.57"/>
<text text-anchor="start" x="1261.64" y="-289.97" font-family="sans-serif" font-size="12.00">U</text>
</g>
<!-- RealStateCompanysContext -->
<g id="node10" class="node">
<title>RealStateCompanysContext</title>
<polygon fill="none" stroke="black" stroke-width="2" points="1621.85,-237.27 1609.46,-236.88 1597.22,-236.38 1585.19,-235.75 1573.41,-235.02 1561.94,-234.17 1550.81,-233.22 1540.07,-232.16 1529.77,-230.99 1519.94,-229.73 1510.61,-228.37 1501.83,-226.91 1493.61,-225.37 1485.99,-223.74 1478.98,-222.04 1472.61,-220.26 1466.89,-218.41 1461.84,-216.49 1457.46,-214.52 1453.76,-212.49 1450.73,-210.41 1448.39,-208.28 1446.71,-206.12 1445.7,-203.93 1445.34,-201.71 1445.62,-199.47 1446.52,-197.22 1448.03,-194.95 1450.11,-192.69 1452.76,-190.43 1455.93,-188.17 1459.62,-185.94 1463.78,-183.72 1468.4,-181.54 1473.44,-179.38 1478.88,-177.26 1484.68,-175.19 1490.82,-173.17 1497.27,-171.21 1504,-169.3 1510.98,-167.46 1518.19,-165.69 1525.6,-164 1533.19,-162.39 1540.94,-160.86 1548.82,-159.42 1556.82,-158.07 1564.91,-156.82 1573.08,-155.67 1581.32,-154.62 1589.6,-153.68 1597.93,-152.85 1606.28,-152.12 1614.65,-151.52 1623.02,-151.02 1631.4,-150.65 1639.77,-150.39 1648.13,-150.25 1656.46,-150.23 1664.78,-150.33 1673.06,-150.55 1681.3,-150.89 1689.51,-151.34 1697.67,-151.92 1705.77,-152.61 1713.82,-153.41 1721.79,-154.33 1729.69,-155.36 1737.5,-156.49 1745.22,-157.73 1752.82,-159.07 1760.3,-160.51 1767.63,-162.04 1774.81,-163.66 1781.82,-165.37 1788.63,-167.15 1795.23,-169.02 1801.59,-170.95 1807.7,-172.94 1813.52,-175 1819.03,-177.11 1824.22,-179.27 1829.04,-181.47 1833.48,-183.7 1837.51,-185.96 1841.11,-188.25 1844.24,-190.55 1846.88,-192.86 1849.01,-195.18 1850.61,-197.49 1851.64,-199.79 1852.11,-202.08 1851.97,-204.34 1851.23,-206.58 1849.86,-208.78 1847.85,-210.93 1845.2,-213.04 1841.9,-215.1 1837.94,-217.09 1833.33,-219.02 1828.07,-220.89 1822.17,-222.67 1815.64,-224.37 1808.49,-225.99 1800.75,-227.52 1792.42,-228.96 1783.54,-230.29 1774.14,-231.53 1764.25,-232.66 1753.89,-233.68 1743.11,-234.59 1731.95,-235.39 1720.45,-236.07 1708.65,-236.64 1696.6,-237.09 1684.35,-237.42 1671.95,-237.63 1659.45,-237.72 1646.9,-237.69 1634.35,-237.54 1621.85,-237.27"/>
<text text-anchor="middle" x="1650.62" y="-190.15" font-family="sans-serif" font-size="16.00">RealStateCompanysContext</text>
</g>
<!-- PropertyContext&#45;&gt;RealStateCompanysContext -->
<g id="edge8" class="edge">
<title>PropertyContext&#45;&gt;RealStateCompanysContext</title>
<path fill="none" stroke="black" stroke-width="2" d="M1355.02,-308.17C1411.89,-286.39 1489.27,-256.75 1550.59,-233.26"/>
<text text-anchor="middle" x="1516.62" y="-262.76" font-family="sans-serif" font-size="12.00">Shared Kernel</text>
</g>
<!-- RealStateHistoryContext -->
<g id="node11" class="node">
<title>RealStateHistoryContext</title>
<polygon fill="none" stroke="black" stroke-width="2" points="1766.22,-81.72 1757.78,-79.84 1749.71,-77.87 1742.03,-75.84 1734.79,-73.74 1728,-71.59 1721.71,-69.39 1715.94,-67.14 1710.71,-64.87 1706.04,-62.57 1701.95,-60.25 1698.47,-57.92 1695.59,-55.59 1693.34,-53.26 1691.72,-50.94 1690.74,-48.64 1690.39,-46.36 1690.68,-44.11 1691.59,-41.89 1693.13,-39.72 1695.28,-37.58 1698.03,-35.5 1701.36,-33.46 1705.26,-31.48 1709.7,-29.57 1714.66,-27.71 1720.11,-25.92 1726.04,-24.2 1732.4,-22.55 1739.17,-20.97 1746.32,-19.47 1753.82,-18.05 1761.63,-16.7 1769.73,-15.43 1778.06,-14.25 1786.62,-13.14 1795.35,-12.12 1804.22,-11.19 1813.21,-10.34 1822.29,-9.57 1831.41,-8.9 1840.55,-8.31 1849.68,-7.81 1858.78,-7.4 1867.81,-7.08 1876.76,-6.86 1885.59,-6.72 1894.29,-6.68 1902.84,-6.73 1911.22,-6.88 1919.42,-7.13 1927.41,-7.47 1935.18,-7.91 1942.73,-8.44 1950.03,-9.08 1957.09,-9.81 1963.9,-10.64 1970.44,-11.57 1976.71,-12.6 1982.72,-13.73 1988.44,-14.95 1993.89,-16.27 1999.05,-17.69 2003.93,-19.2 2008.53,-20.8 2012.83,-22.49 2016.85,-24.26 2020.58,-26.12 2024.01,-28.06 2027.15,-30.07 2029.99,-32.15 2032.53,-34.31 2034.76,-36.52 2036.69,-38.79 2038.31,-41.1 2039.62,-43.47 2040.6,-45.87 2041.26,-48.29 2041.59,-50.74 2041.58,-53.21 2041.23,-55.68 2040.53,-58.15 2039.47,-60.61 2038.05,-63.06 2036.27,-65.47 2034.1,-67.85 2031.56,-70.19 2028.63,-72.47 2025.31,-74.69 2021.6,-76.84 2017.49,-78.92 2012.99,-80.91 2008.09,-82.8 2002.79,-84.59 1997.11,-86.27 1991.03,-87.84 1984.57,-89.29 1977.75,-90.61 1970.55,-91.8 1963.01,-92.85 1955.14,-93.76 1946.94,-94.53 1938.45,-95.14 1929.67,-95.61 1920.64,-95.93 1911.37,-96.1 1901.9,-96.11 1892.25,-95.98 1882.46,-95.69 1872.55,-95.25 1862.55,-94.67 1852.52,-93.94 1842.47,-93.08 1832.44,-92.08 1822.49,-90.94 1812.63,-89.69 1802.91,-88.31 1793.38,-86.82 1784.06,-85.21 1774.99,-83.51 1766.22,-81.72"/>
<text text-anchor="middle" x="1879.62" y="-44.97" font-family="sans-serif" font-size="16.00">RealStateHistoryContext</text>
</g>
<!-- PropertyContext&#45;&gt;RealStateHistoryContext -->
<g id="edge10" class="edge">
<title>PropertyContext&#45;&gt;RealStateHistoryContext</title>
<path fill="none" stroke="black" stroke-width="2" d="M1369.39,-312.68C1400.73,-304.7 1436.03,-296.42 1468.62,-290.36 1555.8,-274.17 1803.35,-305.46 1864.62,-241.36 1900.93,-203.38 1898.24,-139.61 1890.8,-96.16"/>
<text text-anchor="middle" x="1936.62" y="-190.85" font-family="sans-serif" font-size="12.00">Shared Kernel</text>
</g>
<!-- RealStateCompanysContext&#45;&gt;TransactionsContext -->
<g id="edge12" class="edge">
<title>RealStateCompanysContext&#45;&gt;TransactionsContext</title>
<path fill="none" stroke="black" stroke-width="2" d="M1603.5,-152.3C1582.79,-134.44 1558.4,-113.4 1537.12,-95.04"/>
<text text-anchor="middle" x="1613.62" y="-118.93" font-family="sans-serif" font-size="12.00">Shared Kernel</text>
</g>
<!-- RealStateCompanysContext&#45;&gt;RealStateHistoryContext -->
<g id="edge11" class="edge">
<title>RealStateCompanysContext&#45;&gt;RealStateHistoryContext</title>
<path fill="none" stroke="black" stroke-width="2" d="M1714.11,-153.25C1745.61,-133.56 1783.59,-109.81 1815.22,-90.03"/>
<text text-anchor="middle" x="1813.62" y="-118.93" font-family="sans-serif" font-size="12.00">Shared Kernel</text>
</g>
<!-- ResearchContext -->
<g id="node12" class="node">
<title>ResearchContext</title>
<polygon fill="none" stroke="black" stroke-width="2" points="1404.33,-488.06 1403.63,-490.93 1402.58,-493.77 1401.19,-496.57 1399.45,-499.32 1397.38,-502.01 1394.97,-504.62 1392.25,-507.14 1389.2,-509.57 1385.85,-511.9 1382.2,-514.12 1378.25,-516.22 1374.03,-518.19 1369.54,-520.03 1364.8,-521.73 1359.82,-523.29 1354.61,-524.71 1349.18,-525.97 1343.56,-527.08 1337.75,-528.04 1331.77,-528.84 1325.64,-529.5 1319.38,-530 1313,-530.34 1306.53,-530.54 1299.97,-530.6 1293.34,-530.51 1286.67,-530.28 1279.97,-529.92 1273.27,-529.43 1266.57,-528.82 1259.9,-528.09 1253.28,-527.25 1246.72,-526.3 1240.24,-525.25 1233.86,-524.12 1227.6,-522.89 1221.47,-521.58 1215.5,-520.2 1209.69,-518.76 1204.06,-517.25 1198.64,-515.68 1193.42,-514.06 1188.44,-512.4 1183.7,-510.7 1179.21,-508.96 1174.99,-507.19 1171.05,-505.4 1167.39,-503.58 1164.04,-501.74 1161,-499.88 1158.27,-498.01 1155.86,-496.13 1153.79,-494.23 1152.06,-492.33 1150.66,-490.42 1149.61,-488.51 1148.91,-486.6 1148.56,-484.68 1148.56,-482.76 1148.91,-480.85 1149.61,-478.93 1150.66,-477.02 1152.06,-475.11 1153.79,-473.21 1155.86,-471.32 1158.27,-469.43 1161,-467.56 1164.04,-465.7 1167.39,-463.86 1171.05,-462.04 1174.99,-460.25 1179.21,-458.48 1183.7,-456.74 1188.44,-455.04 1193.42,-453.38 1198.64,-451.76 1204.06,-450.2 1209.69,-448.69 1215.5,-447.24 1221.47,-445.86 1227.6,-444.55 1233.86,-443.33 1240.24,-442.19 1246.72,-441.14 1253.28,-440.19 1259.9,-439.35 1266.57,-438.62 1273.27,-438.01 1279.97,-437.52 1286.67,-437.16 1293.34,-436.93 1299.97,-436.85 1306.53,-436.9 1313,-437.1 1319.38,-437.45 1325.64,-437.95 1331.77,-438.6 1337.75,-439.4 1343.56,-440.36 1349.18,-441.47 1354.61,-442.74 1359.82,-444.15 1364.8,-445.71 1369.54,-447.41 1374.03,-449.25 1378.25,-451.22 1382.2,-453.32 1385.85,-455.54 1389.2,-457.87 1392.25,-460.3 1394.97,-462.83 1397.38,-465.44 1399.45,-468.12 1401.19,-470.87 1402.58,-473.67 1403.63,-476.51 1404.33,-479.38 1404.68,-482.27 1404.68,-485.17 1404.33,-488.06"/>
<text text-anchor="middle" x="1276.62" y="-479.92" font-family="sans-serif" font-size="16.00">ResearchContext</text>
</g>
<!-- ResearchContext&#45;&gt;UserContext -->
<g id="edge15" class="edge">
<title>ResearchContext&#45;&gt;UserContext</title>
<path fill="none" stroke="black" stroke-width="2" d="M1161.69,-466.92C1105,-453.96 1039.02,-430.49 992.62,-388.03 946.61,-345.93 980.44,-303.74 936.62,-259.36 925.57,-248.17 895.39,-233.97 865.58,-221.75"/>
<text text-anchor="middle" x="1068.12" y="-336.1" font-family="sans-serif" font-size="12.00"> &#160;&#160;&#160;&#160;&#160;&#160;&#160;&#160;&#160;&#160;&#160;&#160;&#160;&#160;&#160;&#160;&#160;&#160;&#160;&#160;&#160;&#160;&#160;&#160;&#160;&#160;&#160;&#160;&#160;&#160;&#160;&#160;&#160;&#160;&#160;&#160;&#160;&#160;&#160;</text>
<polygon fill="white" stroke="transparent" points="858.58,-212.75 858.58,-229.75 872.58,-229.75 872.58,-212.75 858.58,-212.75"/>
<text text-anchor="start" x="860.58" y="-218.15" font-family="sans-serif" font-size="12.00">D</text>
<polygon fill="white" stroke="transparent" points="1154.69,-457.92 1154.69,-474.92 1168.69,-474.92 1168.69,-457.92 1154.69,-457.92"/>
<text text-anchor="start" x="1156.69" y="-463.32" font-family="sans-serif" font-size="12.00">U</text>
</g>
<!-- ResearchContext&#45;&gt;PropertyContext -->
<g id="edge13" class="edge">
<title>ResearchContext&#45;&gt;PropertyContext</title>
<path fill="none" stroke="black" stroke-width="2" d="M1276.62,-437.63C1276.62,-421.32 1276.62,-402.88 1276.62,-386.47"/>
<text text-anchor="middle" x="1352.12" y="-409.43" font-family="sans-serif" font-size="12.00"> &#160;&#160;&#160;&#160;&#160;&#160;&#160;&#160;&#160;&#160;&#160;&#160;&#160;&#160;&#160;&#160;&#160;&#160;&#160;&#160;&#160;&#160;&#160;&#160;&#160;&#160;&#160;&#160;&#160;&#160;&#160;&#160;&#160;&#160;&#160;&#160;&#160;&#160;&#160;</text>
<polygon fill="white" stroke="transparent" points="1269.62,-377.47 1269.62,-394.47 1283.62,-394.47 1283.62,-377.47 1269.62,-377.47"/>
<text text-anchor="start" x="1271.62" y="-382.87" font-family="sans-serif" font-size="12.00">D</text>
<polygon fill="white" stroke="transparent" points="1269.62,-428.63 1269.62,-445.63 1283.62,-445.63 1283.62,-428.63 1269.62,-428.63"/>
<text text-anchor="start" x="1271.62" y="-434.03" font-family="sans-serif" font-size="12.00">U</text>
</g>
<!-- ResearchContext&#45;&gt;RealStateCompanysContext -->
<g id="edge14" class="edge">
<title>ResearchContext&#45;&gt;RealStateCompanysContext</title>
<path fill="none" stroke="black" stroke-width="2" d="M1374.82,-449.47C1394.4,-440.91 1414.25,-430.75 1431.62,-419.03 1507.84,-367.63 1578.87,-286.44 1618.34,-237.19"/>
<text text-anchor="middle" x="1645.12" y="-336.1" font-family="sans-serif" font-size="12.00"> &#160;&#160;&#160;&#160;&#160;&#160;&#160;&#160;&#160;&#160;&#160;&#160;&#160;&#160;&#160;&#160;&#160;&#160;&#160;&#160;&#160;&#160;&#160;&#160;&#160;&#160;&#160;&#160;&#160;&#160;&#160;&#160;&#160;&#160;&#160;&#160;&#160;&#160;&#160;</text>
<polygon fill="white" stroke="transparent" points="1611.34,-228.19 1611.34,-245.19 1625.34,-245.19 1625.34,-228.19 1611.34,-228.19"/>
<text text-anchor="start" x="1613.34" y="-233.59" font-family="sans-serif" font-size="12.00">D</text>
<polygon fill="white" stroke="transparent" points="1367.82,-440.47 1367.82,-457.47 1381.82,-457.47 1381.82,-440.47 1367.82,-440.47"/>
<text text-anchor="start" x="1369.82" y="-445.87" font-family="sans-serif" font-size="12.00">U</text>
</g>
</g>
</svg>
