<svg width="2000px" height="551px"
 viewBox="0.00 0.00 1940.74 534.61" xmlns="http://www.w3.org/2000/svg" xmlns:xlink="http://www.w3.org/1999/xlink">
<g id="graph0" class="graph" transform="scale(1.0 1.0) rotate(0) translate(4 530.61)">
<title>ContextMapGraph</title>
<polygon fill="white" stroke="transparent" points="-4,4 -4,-530.61 1936.74,-530.61 1936.74,4 -4,4"/>
<!-- CRMContext -->
<g id="node1" class="node">
<title>CRMContext</title>
<polygon fill="none" stroke="black" stroke-width="2" points="246.2,-363.47 242.36,-361.12 238.77,-358.72 235.45,-356.28 232.42,-353.8 229.68,-351.3 227.26,-348.78 225.17,-346.25 223.41,-343.72 221.98,-341.21 220.91,-338.71 220.19,-336.24 219.83,-333.81 219.83,-331.42 220.19,-329.08 220.9,-326.79 221.98,-324.57 223.41,-322.41 225.18,-320.32 227.29,-318.31 229.74,-316.38 232.5,-314.54 235.58,-312.78 238.95,-311.11 242.6,-309.53 246.52,-308.05 250.69,-306.66 255.09,-305.36 259.71,-304.16 264.53,-303.06 269.52,-302.05 274.67,-301.14 279.96,-300.33 285.37,-299.61 290.88,-298.98 296.46,-298.45 302.1,-298 307.78,-297.65 313.48,-297.39 319.17,-297.22 324.85,-297.13 330.49,-297.13 336.07,-297.22 341.58,-297.39 347,-297.64 352.33,-297.98 357.53,-298.4 362.61,-298.9 367.54,-299.49 372.32,-300.15 376.94,-300.9 381.39,-301.73 385.66,-302.64 389.74,-303.63 393.63,-304.69 397.32,-305.84 400.8,-307.07 404.08,-308.38 407.15,-309.76 410,-311.23 412.64,-312.77 415.06,-314.38 417.27,-316.07 419.26,-317.83 421.03,-319.67 422.58,-321.57 423.92,-323.53 425.04,-325.56 425.95,-327.65 426.64,-329.79 427.12,-331.98 427.39,-334.22 427.45,-336.5 427.3,-338.81 426.94,-341.15 426.38,-343.52 425.61,-345.9 424.63,-348.29 423.45,-350.68 422.06,-353.06 420.47,-355.43 418.68,-357.77 416.69,-360.08 414.49,-362.36 412.1,-364.58 409.51,-366.75 406.73,-368.85 403.75,-370.87 400.58,-372.81 397.22,-374.66 393.67,-376.41 389.94,-378.05 386.03,-379.58 381.96,-380.98 377.71,-382.25 373.3,-383.39 368.74,-384.39 364.04,-385.24 359.2,-385.94 354.23,-386.49 349.15,-386.87 343.96,-387.1 338.68,-387.17 333.32,-387.08 327.9,-386.83 322.42,-386.41 316.92,-385.83 311.39,-385.1 305.86,-384.21 300.35,-383.17 294.88,-381.99 289.46,-380.66 284.11,-379.2 278.85,-377.61 273.7,-375.89 268.68,-374.06 263.81,-372.12 259.11,-370.09 254.6,-367.96 250.29,-365.75 246.2,-363.47"/>
<text text-anchor="middle" x="330.51" y="-334.87" font-family="sans-serif" font-size="16.00">CRMContext</text>
</g>
<!-- UserContext -->
<g id="node2" class="node">
<title>UserContext</title>
<polygon fill="none" stroke="black" stroke-width="2" points="511.83,-221.01 507.35,-218.88 503.1,-216.69 499.11,-214.45 495.4,-212.15 491.98,-209.81 488.86,-207.44 486.07,-205.04 483.6,-202.63 481.48,-200.21 479.7,-197.8 478.29,-195.39 477.24,-192.99 476.56,-190.62 476.25,-188.28 476.32,-185.98 476.76,-183.72 477.56,-181.51 478.73,-179.35 480.26,-177.24 482.14,-175.2 484.36,-173.23 486.92,-171.33 489.79,-169.49 492.97,-167.74 496.44,-166.06 500.19,-164.47 504.19,-162.95 508.44,-161.52 512.91,-160.18 517.58,-158.92 522.44,-157.75 527.46,-156.66 532.62,-155.66 537.91,-154.75 543.31,-153.93 548.78,-153.2 554.32,-152.55 559.9,-151.99 565.51,-151.52 571.12,-151.14 576.72,-150.85 582.28,-150.64 587.8,-150.52 593.26,-150.49 598.64,-150.55 603.93,-150.69 609.11,-150.92 614.17,-151.24 619.11,-151.65 623.91,-152.15 628.56,-152.74 633.05,-153.42 637.39,-154.18 641.55,-155.04 645.54,-155.98 649.34,-157.02 652.97,-158.14 656.41,-159.35 659.65,-160.66 662.71,-162.04 665.57,-163.52 668.24,-165.08 670.72,-166.72 672.99,-168.44 675.08,-170.24 676.96,-172.12 678.65,-174.07 680.14,-176.1 681.44,-178.18 682.54,-180.33 683.44,-182.53 684.14,-184.79 684.65,-187.09 684.96,-189.43 685.07,-191.8 684.97,-194.2 684.68,-196.62 684.18,-199.05 683.48,-201.48 682.58,-203.91 681.46,-206.33 680.14,-208.73 678.61,-211.1 676.86,-213.42 674.9,-215.71 672.73,-217.93 670.35,-220.1 667.75,-222.19 664.94,-224.19 661.91,-226.11 658.67,-227.94 655.23,-229.65 651.58,-231.25 647.72,-232.74 643.67,-234.1 639.42,-235.32 634.99,-236.41 630.39,-237.36 625.61,-238.16 620.67,-238.82 615.59,-239.32 610.36,-239.66 605.02,-239.85 599.56,-239.88 594.01,-239.75 588.38,-239.47 582.68,-239.03 576.94,-238.44 571.18,-237.7 565.41,-236.81 559.65,-235.78 553.92,-234.61 548.25,-233.31 542.65,-231.88 537.15,-230.33 531.77,-228.66 526.52,-226.89 521.44,-225.02 516.53,-223.05 511.83,-221.01"/>
<text text-anchor="middle" x="588.51" y="-188.22" font-family="sans-serif" font-size="16.00">UserContext</text>
</g>
<!-- CRMContext&#45;&gt;UserContext -->
<g id="edge1" class="edge">
<title>CRMContext&#45;&gt;UserContext</title>
<path fill="none" stroke="black" stroke-width="2" d="M374.17,-300.41C391.89,-286.34 412.99,-270.86 433.51,-258.91 458.02,-244.63 486.21,-231.72 511.77,-221.18"/>
<text text-anchor="middle" x="509.01" y="-262.31" font-family="sans-serif" font-size="12.00"> &#160;&#160;&#160;&#160;&#160;&#160;&#160;&#160;&#160;&#160;&#160;&#160;&#160;&#160;&#160;&#160;&#160;&#160;&#160;&#160;&#160;&#160;&#160;&#160;&#160;&#160;&#160;&#160;&#160;&#160;&#160;&#160;&#160;&#160;&#160;&#160;&#160;&#160;&#160;</text>
<polygon fill="white" stroke="transparent" points="504.77,-212.18 504.77,-229.18 518.77,-229.18 518.77,-212.18 504.77,-212.18"/>
<text text-anchor="start" x="506.77" y="-217.58" font-family="sans-serif" font-size="12.00">D</text>
<polygon fill="white" stroke="transparent" points="367.17,-291.41 367.17,-308.41 381.17,-308.41 381.17,-291.41 367.17,-291.41"/>
<text text-anchor="start" x="369.17" y="-296.81" font-family="sans-serif" font-size="12.00">U</text>
</g>
<!-- DigitalSignatureContext -->
<g id="node3" class="node">
<title>DigitalSignatureContext</title>
<polygon fill="none" stroke="black" stroke-width="2" points="147.61,-90.09 136.83,-89.55 126.22,-88.9 115.8,-88.13 105.63,-87.25 95.75,-86.27 86.19,-85.18 77,-83.99 68.21,-82.7 59.85,-81.31 51.95,-79.84 44.55,-78.28 37.66,-76.64 31.31,-74.92 25.51,-73.13 20.29,-71.27 15.65,-69.35 11.61,-67.37 8.17,-65.34 5.33,-63.26 3.1,-61.14 1.47,-58.99 0.44,-56.81 -0.01,-54.6 0.12,-52.37 0.82,-50.13 2.06,-47.89 3.83,-45.64 6.11,-43.4 8.88,-41.17 12.11,-38.95 15.79,-36.76 19.88,-34.59 24.37,-32.45 29.22,-30.36 34.4,-28.3 39.9,-26.3 45.69,-24.35 51.73,-22.46 58.01,-20.63 64.49,-18.88 71.16,-17.19 78,-15.59 84.97,-14.06 92.06,-12.63 99.26,-11.28 106.53,-10.03 113.87,-8.87 121.26,-7.82 128.68,-6.87 136.13,-6.02 143.59,-5.29 151.05,-4.67 158.51,-4.16 165.94,-3.77 173.36,-3.49 180.74,-3.33 188.09,-3.29 195.4,-3.37 202.66,-3.57 209.87,-3.89 217.02,-4.33 224.12,-4.89 231.15,-5.56 238.11,-6.35 245,-7.25 251.8,-8.26 258.52,-9.39 265.13,-10.62 271.64,-11.95 278.03,-13.38 284.29,-14.91 290.41,-16.53 296.38,-18.24 302.17,-20.03 307.78,-21.9 313.19,-23.85 318.38,-25.86 323.32,-27.93 328.01,-30.06 332.42,-32.23 336.53,-34.46 340.31,-36.71 343.75,-39 346.83,-41.32 349.52,-43.65 351.8,-45.99 353.65,-48.34 355.05,-50.68 355.99,-53.02 356.44,-55.33 356.38,-57.63 355.81,-59.89 354.71,-62.12 353.07,-64.3 350.88,-66.44 348.13,-68.52 344.83,-70.54 340.96,-72.49 336.53,-74.36 331.55,-76.16 326.03,-77.88 319.96,-79.51 313.38,-81.04 306.29,-82.48 298.71,-83.81 290.66,-85.05 282.18,-86.17 273.28,-87.18 264,-88.08 254.38,-88.86 244.44,-89.53 234.23,-90.08 223.78,-90.5 213.14,-90.81 202.34,-90.99 191.43,-91.05 180.46,-90.99 169.47,-90.81 158.51,-90.51 147.61,-90.09"/>
<text text-anchor="middle" x="181.51" y="-43.27" font-family="sans-serif" font-size="16.00">DigitalSignatureContext</text>
</g>
<!-- UserContext&#45;&gt;DigitalSignatureContext -->
<g id="edge2" class="edge">
<title>UserContext&#45;&gt;DigitalSignatureContext</title>
<path fill="none" stroke="black" stroke-width="2" d="M501.72,-163.64C465.93,-152.11 424.1,-138.32 386.51,-125.13 351.89,-112.98 314.24,-99.04 280.76,-86.39"/>
<text text-anchor="middle" x="462.01" y="-115.53" font-family="sans-serif" font-size="12.00"> &#160;&#160;&#160;&#160;&#160;&#160;&#160;&#160;&#160;&#160;&#160;&#160;&#160;&#160;&#160;&#160;&#160;&#160;&#160;&#160;&#160;&#160;&#160;&#160;&#160;&#160;&#160;&#160;&#160;&#160;&#160;&#160;&#160;&#160;&#160;&#160;&#160;&#160;&#160;</text>
<polygon fill="white" stroke="transparent" points="273.76,-77.39 273.76,-94.39 287.76,-94.39 287.76,-77.39 273.76,-77.39"/>
<text text-anchor="start" x="275.76" y="-82.79" font-family="sans-serif" font-size="12.00">D</text>
<polygon fill="white" stroke="transparent" points="494.72,-154.64 494.72,-171.64 508.72,-171.64 508.72,-154.64 494.72,-154.64"/>
<text text-anchor="start" x="496.72" y="-160.04" font-family="sans-serif" font-size="12.00">U</text>
</g>
<!-- LoginContext -->
<g id="node4" class="node">
<title>LoginContext</title>
<polygon fill="none" stroke="black" stroke-width="2" points="485.7,-3.53 492.67,-3.12 499.64,-2.83 506.58,-2.67 513.46,-2.63 520.24,-2.72 526.92,-2.94 533.45,-3.28 539.82,-3.75 546,-4.35 551.98,-5.07 557.72,-5.91 563.22,-6.88 568.45,-7.96 573.4,-9.16 578.06,-10.48 582.41,-11.9 586.45,-13.42 590.16,-15.05 593.54,-16.77 596.59,-18.58 599.3,-20.48 601.68,-22.45 603.71,-24.5 605.41,-26.62 606.78,-28.79 607.82,-31.02 608.54,-33.29 608.95,-35.61 609.05,-37.95 608.86,-40.32 608.38,-42.71 607.63,-45.1 606.61,-47.5 605.34,-49.9 603.84,-52.28 602.1,-54.64 600.15,-56.97 597.99,-59.27 595.64,-61.53 593.1,-63.75 590.4,-65.91 587.53,-68 584.52,-70.04 581.36,-72 578.07,-73.88 574.65,-75.69 571.12,-77.4 567.47,-79.03 563.72,-80.56 559.87,-81.99 555.93,-83.32 551.9,-84.54 547.78,-85.65 543.58,-86.66 539.29,-87.55 534.94,-88.33 530.51,-88.99 526,-89.54 521.44,-89.97 516.8,-90.28 512.11,-90.47 507.35,-90.55 502.54,-90.51 497.69,-90.36 492.78,-90.09 487.84,-89.72 482.87,-89.22 477.87,-88.63 472.85,-87.92 467.82,-87.11 462.8,-86.2 457.78,-85.19 452.8,-84.08 447.85,-82.88 442.94,-81.59 438.11,-80.22 433.35,-78.76 428.69,-77.22 424.14,-75.61 419.72,-73.93 415.45,-72.18 411.35,-70.36 407.43,-68.49 403.71,-66.57 400.21,-64.59 396.96,-62.57 393.96,-60.51 391.23,-58.42 388.8,-56.29 386.67,-54.14 384.87,-51.97 383.41,-49.78 382.3,-47.58 381.55,-45.38 381.17,-43.17 381.17,-40.97 381.57,-38.79 382.36,-36.61 383.54,-34.46 385.13,-32.34 387.11,-30.25 389.5,-28.19 392.27,-26.18 395.43,-24.22 398.96,-22.31 402.86,-20.47 407.12,-18.68 411.71,-16.97 416.62,-15.33 421.84,-13.77 427.34,-12.29 433.11,-10.91 439.11,-9.62 445.33,-8.42 451.74,-7.33 458.32,-6.35 465.03,-5.47 471.85,-4.7 478.75,-4.06 485.7,-3.53"/>
<text text-anchor="middle" x="499.51" y="-43.27" font-family="sans-serif" font-size="16.00">LoginContext</text>
</g>
<!-- UserContext&#45;&gt;LoginContext -->
<g id="edge3" class="edge">
<title>UserContext&#45;&gt;LoginContext</title>
<path fill="none" stroke="black" stroke-width="2" d="M563.95,-151.58C551.96,-132.32 537.54,-109.16 525.38,-89.63"/>
<text text-anchor="middle" x="623.01" y="-115.53" font-family="sans-serif" font-size="12.00"> &#160;&#160;&#160;&#160;&#160;&#160;&#160;&#160;&#160;&#160;&#160;&#160;&#160;&#160;&#160;&#160;&#160;&#160;&#160;&#160;&#160;&#160;&#160;&#160;&#160;&#160;&#160;&#160;&#160;&#160;&#160;&#160;&#160;&#160;&#160;&#160;&#160;&#160;&#160;</text>
<polygon fill="white" stroke="transparent" points="518.38,-80.63 518.38,-97.63 532.38,-97.63 532.38,-80.63 518.38,-80.63"/>
<text text-anchor="start" x="520.38" y="-86.03" font-family="sans-serif" font-size="12.00">D</text>
<polygon fill="white" stroke="transparent" points="556.95,-142.58 556.95,-159.58 570.95,-159.58 570.95,-142.58 556.95,-142.58"/>
<text text-anchor="start" x="558.95" y="-147.98" font-family="sans-serif" font-size="12.00">U</text>
</g>
<!-- CustomerServiceContext -->
<g id="node5" class="node">
<title>CustomerServiceContext</title>
<polygon fill="none" stroke="black" stroke-width="2" points="943.01,-13.68 951.75,-15.52 960.14,-17.44 968.11,-19.44 975.65,-21.5 982.73,-23.62 989.3,-25.78 995.35,-27.99 1000.85,-30.24 1005.77,-32.52 1010.1,-34.81 1013.82,-37.12 1016.92,-39.43 1019.38,-41.74 1021.19,-44.05 1022.35,-46.34 1022.87,-48.61 1022.73,-50.86 1021.95,-53.07 1020.53,-55.25 1018.48,-57.39 1015.82,-59.49 1012.55,-61.53 1008.71,-63.52 1004.31,-65.45 999.38,-67.33 993.93,-69.14 988,-70.88 981.62,-72.55 974.81,-74.16 967.62,-75.69 960.06,-77.14 952.18,-78.52 944,-79.82 935.57,-81.04 926.92,-82.18 918.07,-83.24 909.08,-84.21 899.96,-85.1 890.75,-85.91 881.48,-86.62 872.19,-87.25 862.9,-87.79 853.64,-88.24 844.44,-88.6 835.32,-88.86 826.31,-89.04 817.43,-89.11 808.7,-89.1 800.13,-88.99 791.75,-88.78 783.57,-88.48 775.6,-88.07 767.86,-87.57 760.36,-86.97 753.1,-86.27 746.09,-85.47 739.35,-84.58 732.87,-83.58 726.67,-82.48 720.74,-81.28 715.09,-79.99 709.72,-78.6 704.63,-77.12 699.83,-75.55 695.32,-73.88 691.09,-72.13 687.16,-70.29 683.52,-68.37 680.18,-66.38 677.14,-64.31 674.4,-62.18 671.96,-59.98 669.83,-57.73 668.02,-55.42 666.53,-53.07 665.35,-50.68 664.51,-48.26 664.01,-45.82 663.85,-43.36 664.03,-40.89 664.58,-38.43 665.49,-35.97 666.77,-33.52 668.43,-31.11 670.47,-28.72 672.91,-26.38 675.74,-24.09 678.98,-21.86 682.62,-19.69 686.67,-17.61 691.13,-15.6 696,-13.69 701.28,-11.88 706.98,-10.18 713.07,-8.58 719.56,-7.11 726.44,-5.76 733.7,-4.55 741.33,-3.46 749.31,-2.52 757.62,-1.72 766.25,-1.06 775.18,-0.56 784.38,-0.2 793.83,0.01 803.5,0.07 813.36,-0.03 823.38,-0.27 833.53,-0.66 843.77,-1.2 854.07,-1.88 864.38,-2.69 874.69,-3.65 884.93,-4.73 895.08,-5.94 905.09,-7.27 914.93,-8.72 924.56,-10.28 933.93,-11.93 943.01,-13.68"/>
<text text-anchor="middle" x="829.51" y="-43.27" font-family="sans-serif" font-size="16.00">CustomerServiceContext</text>
</g>
<!-- UserContext&#45;&gt;CustomerServiceContext -->
<g id="edge4" class="edge">
<title>UserContext&#45;&gt;CustomerServiceContext</title>
<path fill="none" stroke="black" stroke-width="2" d="M648.4,-156.72C665.89,-146.62 685,-135.5 702.51,-125.13 722.92,-113.04 745.07,-99.69 765.06,-87.54"/>
<text text-anchor="middle" x="799.01" y="-115.53" font-family="sans-serif" font-size="12.00"> &#160;&#160;&#160;&#160;&#160;&#160;&#160;&#160;&#160;&#160;&#160;&#160;&#160;&#160;&#160;&#160;&#160;&#160;&#160;&#160;&#160;&#160;&#160;&#160;&#160;&#160;&#160;&#160;&#160;&#160;&#160;&#160;&#160;&#160;&#160;&#160;&#160;&#160;&#160;</text>
<polygon fill="white" stroke="transparent" points="758.06,-78.54 758.06,-95.54 772.06,-95.54 772.06,-78.54 758.06,-78.54"/>
<text text-anchor="start" x="760.06" y="-83.94" font-family="sans-serif" font-size="12.00">D</text>
<polygon fill="white" stroke="transparent" points="641.4,-147.72 641.4,-164.72 655.4,-164.72 655.4,-147.72 641.4,-147.72"/>
<text text-anchor="start" x="643.4" y="-153.12" font-family="sans-serif" font-size="12.00">U</text>
</g>
<!-- ContractContext -->
<g id="node6" class="node">
<title>ContractContext</title>
<polygon fill="none" stroke="black" stroke-width="2" points="709.06,-326.36 711.49,-329.09 713.57,-331.84 715.29,-334.59 716.65,-337.34 717.63,-340.07 718.24,-342.77 718.46,-345.44 718.29,-348.07 717.73,-350.63 716.78,-353.14 715.44,-355.57 713.71,-357.92 711.6,-360.18 709.11,-362.35 706.25,-364.42 703.03,-366.39 699.45,-368.24 695.53,-369.98 691.28,-371.6 686.72,-373.11 681.85,-374.49 676.7,-375.74 671.28,-376.88 665.61,-377.89 659.71,-378.78 653.61,-379.54 647.31,-380.18 640.85,-380.71 634.24,-381.11 627.5,-381.4 620.67,-381.59 613.76,-381.66 606.79,-381.62 599.8,-381.49 592.79,-381.26 585.8,-380.93 578.84,-380.51 571.95,-380 565.13,-379.42 558.41,-378.75 551.82,-378 545.36,-377.18 539.06,-376.29 532.94,-375.33 527.02,-374.31 521.3,-373.22 515.8,-372.07 510.55,-370.86 505.54,-369.6 500.79,-368.28 496.32,-366.91 492.13,-365.49 488.23,-364.01 484.62,-362.49 481.32,-360.91 478.33,-359.29 475.65,-357.62 473.29,-355.9 471.24,-354.14 469.51,-352.33 468.11,-350.48 467.02,-348.59 466.25,-346.66 465.8,-344.69 465.66,-342.69 465.83,-340.65 466.31,-338.58 467.09,-336.48 468.17,-334.37 469.55,-332.23 471.21,-330.07 473.15,-327.91 475.37,-325.74 477.86,-323.57 480.61,-321.41 483.62,-319.26 486.87,-317.12 490.37,-315.02 494.1,-312.95 498.05,-310.92 502.22,-308.93 506.59,-307.01 511.17,-305.15 515.93,-303.36 520.87,-301.65 525.99,-300.03 531.26,-298.51 536.69,-297.09 542.26,-295.79 547.95,-294.6 553.76,-293.54 559.68,-292.61 565.7,-291.83 571.79,-291.18 577.95,-290.69 584.17,-290.35 590.42,-290.16 596.71,-290.14 603,-290.28 609.29,-290.59 615.57,-291.06 621.81,-291.69 627.99,-292.49 634.12,-293.44 640.15,-294.56 646.09,-295.84 651.9,-297.26 657.59,-298.83 663.12,-300.55 668.47,-302.39 673.64,-304.36 678.61,-306.46 683.36,-308.66 687.87,-310.96 692.12,-313.36 696.1,-315.84 699.81,-318.39 703.21,-321 706.3,-323.66 709.06,-326.36"/>
<text text-anchor="middle" x="588.51" y="-334.87" font-family="sans-serif" font-size="16.00">ContractContext</text>
</g>
<!-- ContractContext&#45;&gt;UserContext -->
<g id="edge5" class="edge">
<title>ContractContext&#45;&gt;UserContext</title>
<path fill="none" stroke="black" stroke-width="2" d="M588.51,-289.91C588.51,-273.78 588.51,-255.8 588.51,-239.75"/>
<text text-anchor="middle" x="664.01" y="-262.31" font-family="sans-serif" font-size="12.00"> &#160;&#160;&#160;&#160;&#160;&#160;&#160;&#160;&#160;&#160;&#160;&#160;&#160;&#160;&#160;&#160;&#160;&#160;&#160;&#160;&#160;&#160;&#160;&#160;&#160;&#160;&#160;&#160;&#160;&#160;&#160;&#160;&#160;&#160;&#160;&#160;&#160;&#160;&#160;</text>
<polygon fill="white" stroke="transparent" points="581.51,-230.75 581.51,-247.75 595.51,-247.75 595.51,-230.75 581.51,-230.75"/>
<text text-anchor="start" x="583.51" y="-236.15" font-family="sans-serif" font-size="12.00">D</text>
<polygon fill="white" stroke="transparent" points="581.51,-280.91 581.51,-297.91 595.51,-297.91 595.51,-280.91 581.51,-280.91"/>
<text text-anchor="start" x="583.51" y="-286.31" font-family="sans-serif" font-size="12.00">U</text>
</g>
<!-- GeolocationContext -->
<g id="node7" class="node">
<title>GeolocationContext</title>
<polygon fill="none" stroke="black" stroke-width="2" points="1238.17,-167.74 1243.29,-165.33 1248.7,-163 1254.4,-160.77 1260.35,-158.64 1266.54,-156.61 1272.95,-154.71 1279.55,-152.93 1286.32,-151.28 1293.24,-149.78 1300.28,-148.42 1307.43,-147.21 1314.66,-146.16 1321.95,-145.26 1329.29,-144.53 1336.64,-143.96 1344,-143.56 1351.34,-143.32 1358.65,-143.24 1365.9,-143.33 1373.08,-143.59 1380.18,-144 1387.17,-144.56 1394.05,-145.28 1400.8,-146.14 1407.41,-147.15 1413.86,-148.29 1420.14,-149.56 1426.25,-150.95 1432.17,-152.45 1437.89,-154.06 1443.4,-155.77 1448.69,-157.57 1453.76,-159.46 1458.59,-161.41 1463.18,-163.44 1467.52,-165.52 1471.6,-167.64 1475.42,-169.81 1478.97,-172.01 1482.24,-174.24 1485.23,-176.49 1487.93,-178.74 1490.33,-181 1492.43,-183.25 1494.22,-185.49 1495.69,-187.72 1496.85,-189.93 1497.69,-192.11 1498.19,-194.26 1498.36,-196.38 1498.2,-198.46 1497.69,-200.5 1496.84,-202.49 1495.64,-204.44 1494.09,-206.34 1492.19,-208.18 1489.94,-209.98 1487.34,-211.71 1484.39,-213.4 1481.09,-215.02 1477.45,-216.59 1473.46,-218.1 1469.14,-219.55 1464.49,-220.94 1459.52,-222.27 1454.23,-223.54 1448.64,-224.74 1442.75,-225.88 1436.59,-226.96 1430.16,-227.97 1423.47,-228.91 1416.55,-229.79 1409.42,-230.59 1402.08,-231.33 1394.57,-231.98 1386.9,-232.57 1379.09,-233.07 1371.18,-233.49 1363.17,-233.83 1355.11,-234.08 1347,-234.25 1338.89,-234.32 1330.8,-234.3 1322.74,-234.18 1314.76,-233.95 1306.88,-233.63 1299.12,-233.2 1291.52,-232.67 1284.1,-232.02 1276.88,-231.26 1269.9,-230.39 1263.17,-229.41 1256.73,-228.31 1250.6,-227.09 1244.79,-225.76 1239.33,-224.32 1234.24,-222.77 1229.53,-221.1 1225.23,-219.33 1221.35,-217.45 1217.9,-215.47 1214.89,-213.4 1212.33,-211.23 1210.23,-208.98 1208.6,-206.64 1207.44,-204.24 1206.74,-201.76 1206.52,-199.23 1206.77,-196.65 1207.48,-194.03 1208.66,-191.38 1210.28,-188.7 1212.35,-186.01 1214.85,-183.32 1217.77,-180.64 1221.1,-177.98 1224.82,-175.35 1228.92,-172.76 1233.38,-170.22 1238.17,-167.74"/>
<text text-anchor="middle" x="1358.51" y="-188.22" font-family="sans-serif" font-size="16.00">GeolocationContext</text>
</g>
<!-- PropertyContext -->
<g id="node8" class="node">
<title>PropertyContext</title>
<polygon fill="none" stroke="black" stroke-width="2" points="927.68,-346.56 926.11,-343.75 924.88,-340.93 924.01,-338.12 923.49,-335.33 923.34,-332.57 923.55,-329.85 924.12,-327.17 925.07,-324.56 926.37,-322.02 928.05,-319.55 930.08,-317.17 932.47,-314.89 935.21,-312.71 938.29,-310.63 941.71,-308.67 945.45,-306.83 949.5,-305.11 953.86,-303.51 958.51,-302.05 963.43,-300.72 968.61,-299.51 974.03,-298.45 979.68,-297.51 985.53,-296.71 991.58,-296.04 997.79,-295.5 1004.15,-295.09 1010.64,-294.8 1017.24,-294.64 1023.93,-294.59 1030.68,-294.66 1037.48,-294.84 1044.3,-295.13 1051.12,-295.52 1057.92,-296.01 1064.67,-296.59 1071.37,-297.26 1077.98,-298.02 1084.49,-298.86 1090.87,-299.77 1097.12,-300.76 1103.2,-301.81 1109.11,-302.93 1114.83,-304.11 1120.34,-305.35 1125.62,-306.64 1130.67,-307.99 1135.46,-309.39 1140,-310.83 1144.26,-312.32 1148.24,-313.85 1151.93,-315.43 1155.31,-317.04 1158.4,-318.7 1161.17,-320.39 1163.62,-322.12 1165.75,-323.88 1167.56,-325.69 1169.04,-327.52 1170.2,-329.39 1171.03,-331.28 1171.54,-333.21 1171.72,-335.17 1171.58,-337.15 1171.13,-339.16 1170.36,-341.18 1169.27,-343.23 1167.89,-345.29 1166.2,-347.37 1164.22,-349.45 1161.95,-351.54 1159.4,-353.63 1156.59,-355.72 1153.5,-357.79 1150.17,-359.85 1146.58,-361.89 1142.76,-363.9 1138.71,-365.87 1134.44,-367.81 1129.97,-369.69 1125.3,-371.52 1120.44,-373.28 1115.4,-374.97 1110.2,-376.58 1104.85,-378.1 1099.35,-379.53 1093.73,-380.86 1087.99,-382.08 1082.15,-383.18 1076.22,-384.15 1070.2,-385 1064.13,-385.71 1058,-386.28 1051.84,-386.7 1045.65,-386.96 1039.46,-387.08 1033.27,-387.03 1027.1,-386.82 1020.97,-386.46 1014.89,-385.92 1008.88,-385.22 1002.95,-384.36 997.12,-383.34 991.41,-382.16 985.82,-380.83 980.38,-379.34 975.1,-377.7 969.99,-375.93 965.08,-374.01 960.37,-371.98 955.89,-369.82 951.64,-367.55 947.64,-365.17 943.9,-362.71 940.44,-360.16 937.27,-357.54 934.4,-354.86 931.83,-352.13 929.59,-349.36 927.68,-346.56"/>
<text text-anchor="middle" x="1049.51" y="-334.87" font-family="sans-serif" font-size="16.00">PropertyContext</text>
</g>
<!-- PropertyContext&#45;&gt;UserContext -->
<g id="edge6" class="edge">
<title>PropertyContext&#45;&gt;UserContext</title>
<path fill="none" stroke="black" stroke-width="2" d="M954,-303.23C939.2,-298.43 924.01,-293.82 909.51,-289.91 870.12,-279.3 858.89,-282.52 819.51,-271.91 768.05,-258.04 711.41,-238.76 667.09,-222.74"/>
<text text-anchor="middle" x="861.51" y="-262.31" font-family="sans-serif" font-size="12.00">Shared Kernel</text>
</g>
<!-- PropertyContext&#45;&gt;GeolocationContext -->
<g id="edge9" class="edge">
<title>PropertyContext&#45;&gt;GeolocationContext</title>
<path fill="none" stroke="black" stroke-width="2" d="M1119.24,-305.03C1165.96,-283.16 1227.67,-254.27 1276.72,-231.31"/>
<text text-anchor="middle" x="1289.01" y="-262.31" font-family="sans-serif" font-size="12.00"> &#160;&#160;&#160;&#160;&#160;&#160;&#160;&#160;&#160;&#160;&#160;&#160;&#160;&#160;&#160;&#160;&#160;&#160;&#160;&#160;&#160;&#160;&#160;&#160;&#160;&#160;&#160;&#160;&#160;&#160;&#160;&#160;&#160;&#160;&#160;&#160;&#160;&#160;&#160;</text>
<polygon fill="white" stroke="transparent" points="1269.72,-222.31 1269.72,-239.31 1283.72,-239.31 1283.72,-222.31 1269.72,-222.31"/>
<text text-anchor="start" x="1271.72" y="-227.71" font-family="sans-serif" font-size="12.00">D</text>
<polygon fill="white" stroke="transparent" points="1112.24,-296.03 1112.24,-313.03 1126.24,-313.03 1126.24,-296.03 1112.24,-296.03"/>
<text text-anchor="start" x="1114.24" y="-301.43" font-family="sans-serif" font-size="12.00">U</text>
</g>
<!-- RealStateCompanysContext -->
<g id="node9" class="node">
<title>RealStateCompanysContext</title>
<polygon fill="none" stroke="black" stroke-width="2" points="1556.01,-210.09 1550.68,-207.5 1545.87,-204.87 1541.59,-202.23 1537.86,-199.57 1534.71,-196.9 1532.15,-194.25 1530.19,-191.61 1528.85,-189 1528.13,-186.42 1528.04,-183.89 1528.58,-181.42 1529.75,-179 1531.56,-176.65 1533.99,-174.38 1537.05,-172.19 1540.72,-170.08 1544.99,-168.07 1549.84,-166.15 1555.27,-164.34 1561.25,-162.62 1567.75,-161.02 1574.76,-159.52 1582.25,-158.13 1590.19,-156.85 1598.55,-155.69 1607.31,-154.63 1616.42,-153.69 1625.86,-152.86 1635.59,-152.13 1645.58,-151.52 1655.79,-151.01 1666.18,-150.6 1676.71,-150.29 1687.36,-150.09 1698.08,-149.98 1708.83,-149.96 1719.59,-150.04 1730.31,-150.21 1740.96,-150.46 1751.51,-150.8 1761.92,-151.22 1772.17,-151.72 1782.22,-152.3 1792.05,-152.96 1801.62,-153.68 1810.92,-154.48 1819.91,-155.36 1828.58,-156.3 1836.91,-157.31 1844.88,-158.39 1852.47,-159.53 1859.67,-160.74 1866.46,-162.01 1872.83,-163.35 1878.77,-164.76 1884.28,-166.22 1889.34,-167.75 1893.96,-169.34 1898.12,-170.99 1901.83,-172.7 1905.08,-174.46 1907.88,-176.29 1910.22,-178.17 1912.1,-180.1 1913.53,-182.08 1914.52,-184.11 1915.05,-186.18 1915.15,-188.3 1914.81,-190.46 1914.04,-192.64 1912.84,-194.86 1911.23,-197.1 1909.2,-199.36 1906.76,-201.64 1903.93,-203.92 1900.7,-206.2 1897.09,-208.47 1893.1,-210.73 1888.73,-212.97 1884,-215.17 1878.92,-217.34 1873.49,-219.46 1867.72,-221.53 1861.61,-223.54 1855.19,-225.47 1848.46,-227.33 1841.42,-229.09 1834.09,-230.76 1826.48,-232.33 1818.61,-233.78 1810.48,-235.12 1802.11,-236.32 1793.51,-237.4 1784.71,-238.33 1775.7,-239.12 1766.53,-239.76 1757.19,-240.24 1747.72,-240.57 1738.13,-240.74 1728.44,-240.74 1718.69,-240.58 1708.88,-240.26 1699.05,-239.77 1689.23,-239.11 1679.43,-238.3 1669.7,-237.32 1660.05,-236.19 1650.51,-234.9 1641.12,-233.47 1631.9,-231.9 1622.89,-230.19 1614.12,-228.36 1605.61,-226.4 1597.4,-224.34 1589.51,-222.17 1581.99,-219.9 1574.85,-217.55 1568.12,-215.12 1561.83,-212.63 1556.01,-210.09"/>
<text text-anchor="middle" x="1730.51" y="-188.22" font-family="sans-serif" font-size="16.00">RealStateCompanysContext</text>
</g>
<!-- PropertyContext&#45;&gt;RealStateCompanysContext -->
<g id="edge7" class="edge">
<title>PropertyContext&#45;&gt;RealStateCompanysContext</title>
<path fill="none" stroke="black" stroke-width="2" d="M1154.64,-316.66C1249.97,-297.45 1394.32,-268 1519.51,-240.91 1544.2,-235.57 1570.48,-229.73 1595.81,-224.02"/>
<text text-anchor="middle" x="1471.51" y="-262.31" font-family="sans-serif" font-size="12.00">Shared Kernel</text>
</g>
<!-- TransactionsContext -->
<g id="node10" class="node">
<title>TransactionsContext</title>
<polygon fill="none" stroke="black" stroke-width="2" points="1546.27,-41.23 1547.41,-38.38 1548.95,-35.56 1550.88,-32.8 1553.19,-30.08 1555.89,-27.44 1558.96,-24.87 1562.38,-22.39 1566.17,-20.01 1570.29,-17.73 1574.75,-15.57 1579.52,-13.53 1584.6,-11.62 1589.97,-9.84 1595.62,-8.21 1601.53,-6.72 1607.68,-5.37 1614.07,-4.18 1620.66,-3.14 1627.45,-2.26 1634.41,-1.53 1641.52,-0.95 1648.77,-0.53 1656.14,-0.26 1663.61,-0.14 1671.16,-0.17 1678.76,-0.33 1686.39,-0.64 1694.05,-1.08 1701.7,-1.64 1709.32,-2.33 1716.9,-3.14 1724.41,-4.05 1731.84,-5.07 1739.16,-6.19 1746.36,-7.4 1753.41,-8.69 1760.3,-10.07 1767,-11.51 1773.51,-13.02 1779.79,-14.59 1785.85,-16.21 1791.65,-17.88 1797.18,-19.59 1802.43,-21.34 1807.38,-23.12 1812.03,-24.93 1816.35,-26.77 1820.33,-28.62 1823.97,-30.49 1827.25,-32.37 1830.17,-34.27 1832.71,-36.17 1834.87,-38.08 1836.64,-39.99 1838.02,-41.9 1839,-43.82 1839.59,-45.73 1839.77,-47.64 1839.54,-49.55 1838.91,-51.45 1837.89,-53.35 1836.46,-55.24 1834.63,-57.12 1832.42,-58.99 1829.81,-60.85 1826.83,-62.69 1823.48,-64.52 1819.76,-66.33 1815.7,-68.12 1811.29,-69.89 1806.55,-71.63 1801.49,-73.33 1796.13,-75.01 1790.48,-76.64 1784.56,-78.24 1778.38,-79.78 1771.97,-81.28 1765.33,-82.71 1758.49,-84.08 1751.46,-85.38 1744.27,-86.61 1736.93,-87.75 1729.47,-88.81 1721.9,-89.77 1714.25,-90.64 1706.54,-91.39 1698.79,-92.04 1691.02,-92.57 1683.26,-92.98 1675.52,-93.25 1667.83,-93.4 1660.21,-93.41 1652.68,-93.28 1645.26,-93 1637.97,-92.58 1630.83,-92.01 1623.87,-91.29 1617.1,-90.42 1610.54,-89.39 1604.2,-88.22 1598.12,-86.9 1592.29,-85.43 1586.75,-83.82 1581.5,-82.07 1576.55,-80.19 1571.94,-78.18 1567.65,-76.04 1563.71,-73.79 1560.13,-71.44 1556.92,-68.98 1554.08,-66.44 1551.62,-63.81 1549.55,-61.12 1547.88,-58.36 1546.6,-55.56 1545.73,-52.72 1545.26,-49.86 1545.19,-46.98 1545.53,-44.1 1546.27,-41.23"/>
<text text-anchor="middle" x="1692.51" y="-43.27" font-family="sans-serif" font-size="16.00">TransactionsContext</text>
</g>
<!-- PropertyContext&#45;&gt;TransactionsContext -->
<g id="edge8" class="edge">
<title>PropertyContext&#45;&gt;TransactionsContext</title>
<path fill="none" stroke="black" stroke-width="2" d="M1033.81,-294.72C1020.86,-250.94 1009.95,-183.85 1046.51,-143.13 1114.15,-67.78 1399.73,-111.36 1499.51,-94.13 1523.61,-89.97 1549.19,-84.57 1573.57,-78.95"/>
<text text-anchor="middle" x="1122.01" y="-188.92" font-family="sans-serif" font-size="12.00"> &#160;&#160;&#160;&#160;&#160;&#160;&#160;&#160;&#160;&#160;&#160;&#160;&#160;&#160;&#160;&#160;&#160;&#160;&#160;&#160;&#160;&#160;&#160;&#160;&#160;&#160;&#160;&#160;&#160;&#160;&#160;&#160;&#160;&#160;&#160;&#160;&#160;&#160;&#160;</text>
<polygon fill="white" stroke="transparent" points="1566.57,-69.95 1566.57,-86.95 1580.57,-86.95 1580.57,-69.95 1566.57,-69.95"/>
<text text-anchor="start" x="1568.57" y="-75.35" font-family="sans-serif" font-size="12.00">D</text>
<polygon fill="white" stroke="transparent" points="1026.81,-285.72 1026.81,-302.72 1040.81,-302.72 1040.81,-285.72 1026.81,-285.72"/>
<text text-anchor="start" x="1028.81" y="-291.12" font-family="sans-serif" font-size="12.00">U</text>
</g>
<!-- RealStateHistoryContext -->
<g id="node11" class="node">
<title>RealStateHistoryContext</title>
<polygon fill="none" stroke="black" stroke-width="2" points="1330.28,-90.56 1319.3,-91.07 1308.3,-91.45 1297.34,-91.72 1286.47,-91.85 1275.71,-91.86 1265.12,-91.73 1254.73,-91.48 1244.58,-91.1 1234.71,-90.59 1225.16,-89.95 1215.95,-89.19 1207.12,-88.3 1198.69,-87.28 1190.69,-86.15 1183.14,-84.9 1176.06,-83.54 1169.46,-82.06 1163.37,-80.49 1157.78,-78.81 1152.71,-77.03 1148.16,-75.17 1144.13,-73.22 1140.63,-71.19 1137.66,-69.1 1135.2,-66.93 1133.24,-64.71 1131.79,-62.44 1130.84,-60.13 1130.35,-57.78 1130.34,-55.4 1130.77,-52.99 1131.64,-50.58 1132.92,-48.16 1134.6,-45.74 1136.67,-43.33 1139.09,-40.93 1141.87,-38.56 1144.97,-36.22 1148.39,-33.92 1152.1,-31.66 1156.09,-29.46 1160.34,-27.31 1164.84,-25.23 1169.57,-23.22 1174.52,-21.28 1179.68,-19.42 1185.04,-17.65 1190.59,-15.96 1196.32,-14.38 1202.22,-12.89 1208.28,-11.5 1214.5,-10.21 1220.86,-9.04 1227.38,-7.97 1234.03,-7.01 1240.83,-6.17 1247.75,-5.44 1254.8,-4.83 1261.97,-4.33 1269.27,-3.95 1276.67,-3.69 1284.19,-3.54 1291.8,-3.51 1299.51,-3.6 1307.31,-3.8 1315.18,-4.11 1323.12,-4.53 1331.12,-5.06 1339.16,-5.69 1347.22,-6.44 1355.3,-7.28 1363.37,-8.22 1371.42,-9.26 1379.42,-10.39 1387.35,-11.62 1395.19,-12.93 1402.92,-14.32 1410.5,-15.8 1417.92,-17.35 1425.14,-18.98 1432.14,-20.67 1438.88,-22.43 1445.34,-24.25 1451.49,-26.13 1457.29,-28.06 1462.72,-30.04 1467.75,-32.07 1472.35,-34.13 1476.49,-36.23 1480.15,-38.36 1483.29,-40.51 1485.91,-42.69 1487.97,-44.88 1489.45,-47.08 1490.35,-49.29 1490.64,-51.49 1490.31,-53.69 1489.36,-55.88 1487.77,-58.06 1485.55,-60.21 1482.69,-62.34 1479.2,-64.43 1475.09,-66.49 1470.35,-68.5 1465.02,-70.47 1459.1,-72.38 1452.6,-74.23 1445.57,-76.01 1438.01,-77.73 1429.96,-79.37 1421.45,-80.93 1412.52,-82.4 1403.19,-83.78 1393.51,-85.07 1383.51,-86.25 1373.24,-87.34 1362.73,-88.31 1352.05,-89.18 1341.21,-89.93 1330.28,-90.56"/>
<text text-anchor="middle" x="1302.51" y="-43.27" font-family="sans-serif" font-size="16.00">RealStateHistoryContext</text>
</g>
<!-- PropertyContext&#45;&gt;RealStateHistoryContext -->
<g id="edge10" class="edge">
<title>PropertyContext&#45;&gt;RealStateHistoryContext</title>
<path fill="none" stroke="black" stroke-width="2" d="M980.04,-297.27C960.7,-282.24 942.1,-263.3 931.51,-240.91 912.92,-201.63 906.16,-178.43 931.51,-143.13 945.14,-124.15 1055.75,-97.33 1152.67,-77.02"/>
<text text-anchor="middle" x="973.51" y="-188.92" font-family="sans-serif" font-size="12.00">Shared Kernel</text>
</g>
<!-- RealStateCompanysContext&#45;&gt;TransactionsContext -->
<g id="edge11" class="edge">
<title>RealStateCompanysContext&#45;&gt;TransactionsContext</title>
<path fill="none" stroke="black" stroke-width="2" d="M1719.52,-149.67C1714.69,-131.53 1709.03,-110.22 1704.14,-91.81"/>
<text text-anchor="middle" x="1754.51" y="-115.53" font-family="sans-serif" font-size="12.00">Shared Kernel</text>
</g>
<!-- RealStateCompanysContext&#45;&gt;RealStateHistoryContext -->
<g id="edge12" class="edge">
<title>RealStateCompanysContext&#45;&gt;RealStateHistoryContext</title>
<path fill="none" stroke="black" stroke-width="2" d="M1618.06,-153.46C1552.92,-131.7 1471.44,-104.49 1407.59,-83.17"/>
<text text-anchor="middle" x="1570.51" y="-115.53" font-family="sans-serif" font-size="12.00">Shared Kernel</text>
</g>
<!-- ResearchContext -->
<g id="node12" class="node">
<title>ResearchContext</title>
<polygon fill="none" stroke="black" stroke-width="2" points="1019.88,-438.7 1028,-437.99 1036.16,-437.41 1044.31,-436.95 1052.43,-436.62 1060.49,-436.42 1068.45,-436.35 1076.28,-436.42 1083.95,-436.62 1091.45,-436.95 1098.73,-437.41 1105.78,-438.01 1112.58,-438.74 1119.1,-439.59 1125.32,-440.58 1131.23,-441.69 1136.81,-442.92 1142.05,-444.27 1146.93,-445.73 1151.46,-447.3 1155.62,-448.98 1159.4,-450.76 1162.81,-452.62 1165.85,-454.58 1168.5,-456.62 1170.78,-458.73 1172.7,-460.9 1174.24,-463.14 1175.43,-465.43 1176.27,-467.76 1176.76,-470.13 1176.93,-472.53 1176.77,-474.96 1176.3,-477.39 1175.53,-479.83 1174.47,-482.27 1173.14,-484.7 1171.54,-487.11 1169.69,-489.5 1167.6,-491.85 1165.28,-494.17 1162.74,-496.43 1160,-498.65 1157.05,-500.81 1153.91,-502.9 1150.6,-504.92 1147.11,-506.86 1143.45,-508.72 1139.64,-510.5 1135.67,-512.18 1131.56,-513.77 1127.3,-515.27 1122.9,-516.66 1118.37,-517.94 1113.71,-519.13 1108.92,-520.2 1104.01,-521.16 1098.97,-522.01 1093.81,-522.75 1088.54,-523.37 1083.16,-523.88 1077.66,-524.27 1072.06,-524.55 1066.37,-524.72 1060.57,-524.78 1054.69,-524.72 1048.73,-524.55 1042.7,-524.27 1036.61,-523.89 1030.46,-523.4 1024.27,-522.81 1018.04,-522.11 1011.81,-521.32 1005.57,-520.43 999.35,-519.44 993.16,-518.36 987.02,-517.2 980.95,-515.95 974.97,-514.61 969.1,-513.2 963.36,-511.71 957.78,-510.15 952.37,-508.52 947.16,-506.82 942.18,-505.06 937.44,-503.24 932.97,-501.36 928.79,-499.44 924.93,-497.46 921.4,-495.45 918.23,-493.39 915.44,-491.3 913.04,-489.18 911.05,-487.04 909.49,-484.87 908.37,-482.69 907.71,-480.5 907.51,-478.3 907.78,-476.1 908.52,-473.9 909.75,-471.72 911.46,-469.55 913.65,-467.4 916.31,-465.28 919.45,-463.19 923.05,-461.13 927.09,-459.12 931.58,-457.16 936.49,-455.26 941.8,-453.41 947.49,-451.64 953.55,-449.93 959.94,-448.3 966.65,-446.76 973.64,-445.3 980.89,-443.94 988.36,-442.68 996.03,-441.52 1003.86,-440.46 1011.82,-439.52 1019.88,-438.7"/>
<text text-anchor="middle" x="1049.51" y="-477.73" font-family="sans-serif" font-size="16.00">ResearchContext</text>
</g>
<!-- ResearchContext&#45;&gt;UserContext -->
<g id="edge14" class="edge">
<title>ResearchContext&#45;&gt;UserContext</title>
<path fill="none" stroke="black" stroke-width="2" d="M914.46,-466.74C860.14,-454.34 801.49,-431.05 763.51,-387.44 725.39,-343.68 776.52,-304.42 740.51,-258.91 724.27,-238.38 700.37,-224.13 676.3,-214.27"/>
<text text-anchor="middle" x="839.01" y="-335.57" font-family="sans-serif" font-size="12.00"> &#160;&#160;&#160;&#160;&#160;&#160;&#160;&#160;&#160;&#160;&#160;&#160;&#160;&#160;&#160;&#160;&#160;&#160;&#160;&#160;&#160;&#160;&#160;&#160;&#160;&#160;&#160;&#160;&#160;&#160;&#160;&#160;&#160;&#160;&#160;&#160;&#160;&#160;&#160;</text>
<polygon fill="white" stroke="transparent" points="669.3,-205.27 669.3,-222.27 683.3,-222.27 683.3,-205.27 669.3,-205.27"/>
<text text-anchor="start" x="671.3" y="-210.67" font-family="sans-serif" font-size="12.00">D</text>
<polygon fill="white" stroke="transparent" points="907.46,-457.74 907.46,-474.74 921.46,-474.74 921.46,-457.74 907.46,-457.74"/>
<text text-anchor="start" x="909.46" y="-463.14" font-family="sans-serif" font-size="12.00">U</text>
</g>
<!-- ResearchContext&#45;&gt;PropertyContext -->
<g id="edge15" class="edge">
<title>ResearchContext&#45;&gt;PropertyContext</title>
<path fill="none" stroke="black" stroke-width="2" d="M1049.51,-436.73C1049.51,-420.9 1049.51,-402.97 1049.51,-386.86"/>
<text text-anchor="middle" x="1125.01" y="-408.84" font-family="sans-serif" font-size="12.00"> &#160;&#160;&#160;&#160;&#160;&#160;&#160;&#160;&#160;&#160;&#160;&#160;&#160;&#160;&#160;&#160;&#160;&#160;&#160;&#160;&#160;&#160;&#160;&#160;&#160;&#160;&#160;&#160;&#160;&#160;&#160;&#160;&#160;&#160;&#160;&#160;&#160;&#160;&#160;</text>
<polygon fill="white" stroke="transparent" points="1042.51,-377.86 1042.51,-394.86 1056.51,-394.86 1056.51,-377.86 1042.51,-377.86"/>
<text text-anchor="start" x="1044.51" y="-383.26" font-family="sans-serif" font-size="12.00">D</text>
<polygon fill="white" stroke="transparent" points="1042.51,-427.73 1042.51,-444.73 1056.51,-444.73 1056.51,-427.73 1042.51,-427.73"/>
<text text-anchor="start" x="1044.51" y="-433.13" font-family="sans-serif" font-size="12.00">U</text>
</g>
<!-- ResearchContext&#45;&gt;RealStateCompanysContext -->
<g id="edge13" class="edge">
<title>ResearchContext&#45;&gt;RealStateCompanysContext</title>
<path fill="none" stroke="black" stroke-width="2" d="M1141.86,-443.95C1162.52,-435.66 1184.29,-426.82 1204.51,-418.44 1357.32,-355.1 1533.86,-278.8 1638.62,-233.19"/>
<text text-anchor="middle" x="1581.01" y="-335.57" font-family="sans-serif" font-size="12.00"> &#160;&#160;&#160;&#160;&#160;&#160;&#160;&#160;&#160;&#160;&#160;&#160;&#160;&#160;&#160;&#160;&#160;&#160;&#160;&#160;&#160;&#160;&#160;&#160;&#160;&#160;&#160;&#160;&#160;&#160;&#160;&#160;&#160;&#160;&#160;&#160;&#160;&#160;&#160;</text>
<polygon fill="white" stroke="transparent" points="1631.62,-224.19 1631.62,-241.19 1645.62,-241.19 1645.62,-224.19 1631.62,-224.19"/>
<text text-anchor="start" x="1633.62" y="-229.59" font-family="sans-serif" font-size="12.00">D</text>
<polygon fill="white" stroke="transparent" points="1134.86,-434.95 1134.86,-451.95 1148.86,-451.95 1148.86,-434.95 1134.86,-434.95"/>
<text text-anchor="start" x="1136.86" y="-440.35" font-family="sans-serif" font-size="12.00">U</text>
</g>
</g>
</svg>
