<svg width="2000px" height="525px"
 viewBox="0.00 0.00 2067.86 543.38" xmlns="http://www.w3.org/2000/svg" xmlns:xlink="http://www.w3.org/1999/xlink">
<g id="graph0" class="graph" transform="scale(1.0 1.0) rotate(0) translate(4 539.38)">
<title>ContextMapGraph</title>
<polygon fill="white" stroke="transparent" points="-4,4 -4,-539.38 2063.86,-539.38 2063.86,4 -4,4"/>
<!-- CRMContext -->
<g id="node1" class="node">
<title>CRMContext</title>
<polygon fill="none" stroke="black" stroke-width="2" points="28.86,-314.37 32.95,-312.11 37.24,-309.94 41.71,-307.87 46.34,-305.9 51.11,-304.05 56.02,-302.33 61.03,-300.73 66.13,-299.27 71.31,-297.96 76.55,-296.79 81.83,-295.78 87.14,-294.92 92.47,-294.22 97.78,-293.69 103.08,-293.32 108.35,-293.11 113.57,-293.06 118.73,-293.18 123.82,-293.46 128.83,-293.9 133.75,-294.5 138.56,-295.25 143.26,-296.14 147.84,-297.18 152.29,-298.35 156.61,-299.66 160.78,-301.09 164.8,-302.63 168.66,-304.28 172.37,-306.04 175.9,-307.88 179.26,-309.81 182.45,-311.82 185.46,-313.9 188.28,-316.03 190.92,-318.21 193.36,-320.44 195.62,-322.7 197.67,-324.98 199.52,-327.28 201.17,-329.59 202.61,-331.91 203.84,-334.21 204.86,-336.51 205.67,-338.79 206.26,-341.05 206.62,-343.27 206.77,-345.47 206.69,-347.62 206.38,-349.73 205.84,-351.8 205.06,-353.81 204.06,-355.77 202.82,-357.68 201.34,-359.52 199.63,-361.31 197.68,-363.03 195.49,-364.69 193.07,-366.29 190.42,-367.82 187.53,-369.28 184.42,-370.68 181.08,-372.01 177.52,-373.27 173.74,-374.46 169.76,-375.58 165.57,-376.63 161.2,-377.61 156.63,-378.52 151.89,-379.35 146.99,-380.12 141.94,-380.8 136.75,-381.42 131.43,-381.95 126,-382.41 120.48,-382.79 114.88,-383.08 109.21,-383.29 103.5,-383.42 97.77,-383.46 92.03,-383.4 86.3,-383.26 80.6,-383.03 74.95,-382.69 69.37,-382.26 63.88,-381.73 58.5,-381.1 53.25,-380.37 48.15,-379.53 43.22,-378.58 38.48,-377.53 33.94,-376.38 29.63,-375.11 25.55,-373.74 21.73,-372.27 18.17,-370.69 14.9,-369.01 11.93,-367.23 9.26,-365.35 6.9,-363.38 4.87,-361.32 3.17,-359.18 1.81,-356.96 0.79,-354.66 0.11,-352.29 -0.22,-349.87 -0.2,-347.39 0.16,-344.87 0.86,-342.3 1.89,-339.72 3.26,-337.11 4.95,-334.49 6.95,-331.87 9.26,-329.26 11.86,-326.67 14.75,-324.11 17.91,-321.59 21.32,-319.12 24.98,-316.71 28.86,-314.37"/>
<text text-anchor="middle" x="108.72" y="-337.9" font-family="sans-serif" font-size="16.00">CRMContext</text>
</g>
<!-- UserContext -->
<g id="node2" class="node">
<title>UserContext</title>
<polygon fill="none" stroke="black" stroke-width="2" points="775.27,-152.31 781.81,-152.85 788.24,-153.5 794.56,-154.26 800.73,-155.14 806.72,-156.13 812.51,-157.22 818.09,-158.41 823.42,-159.7 828.49,-161.08 833.27,-162.56 837.77,-164.12 841.94,-165.76 845.8,-167.48 849.31,-169.27 852.48,-171.13 855.29,-173.05 857.74,-175.03 859.83,-177.06 861.55,-179.14 862.9,-181.25 863.89,-183.41 864.51,-185.59 864.78,-187.8 864.7,-190.02 864.28,-192.26 863.53,-194.51 862.46,-196.76 861.07,-199 859.39,-201.23 857.43,-203.45 855.2,-205.64 852.72,-207.81 850,-209.94 847.06,-212.04 843.92,-214.09 840.58,-216.1 837.08,-218.05 833.41,-219.94 829.61,-221.76 825.67,-223.52 821.63,-225.2 817.48,-226.81 813.26,-228.33 808.95,-229.77 804.59,-231.12 800.18,-232.37 795.73,-233.53 791.25,-234.58 786.75,-235.53 782.23,-236.37 777.71,-237.11 773.18,-237.73 768.66,-238.24 764.16,-238.63 759.66,-238.91 755.18,-239.06 750.73,-239.1 746.3,-239.02 741.89,-238.82 737.52,-238.5 733.18,-238.07 728.88,-237.51 724.61,-236.84 720.39,-236.05 716.22,-235.15 712.09,-234.13 708.02,-233.01 704.01,-231.78 700.06,-230.45 696.19,-229.01 692.39,-227.48 688.68,-225.86 685.06,-224.15 681.55,-222.36 678.15,-220.49 674.87,-218.55 671.72,-216.54 668.72,-214.47 665.88,-212.34 663.21,-210.16 660.72,-207.94 658.42,-205.68 656.33,-203.39 654.47,-201.08 652.84,-198.75 651.46,-196.4 650.33,-194.06 649.48,-191.71 648.92,-189.38 648.64,-187.06 648.68,-184.77 649.02,-182.5 649.69,-180.28 650.69,-178.09 652.01,-175.96 653.68,-173.88 655.68,-171.86 658.03,-169.91 660.71,-168.03 663.73,-166.23 667.08,-164.52 670.76,-162.89 674.75,-161.36 679.05,-159.92 683.65,-158.58 688.53,-157.35 693.67,-156.23 699.07,-155.21 704.69,-154.32 710.53,-153.53 716.56,-152.87 722.75,-152.32 729.08,-151.89 735.54,-151.59 742.09,-151.41 748.7,-151.34 755.35,-151.4 762.01,-151.59 768.66,-151.89 775.27,-152.31"/>
<text text-anchor="middle" x="754.72" y="-191.53" font-family="sans-serif" font-size="16.00">UserContext</text>
</g>
<!-- CRMContext&#45;&gt;UserContext -->
<g id="edge1" class="edge">
<title>CRMContext&#45;&gt;UserContext</title>
<path fill="none" stroke="black" stroke-width="2" d="M179.46,-309.76C194.86,-303.67 211.2,-297.68 226.72,-292.88 374.28,-247.24 552.1,-220.23 659.14,-206.85"/>
<text text-anchor="middle" x="416.22" y="-265.28" font-family="sans-serif" font-size="12.00"> &#160;&#160;&#160;&#160;&#160;&#160;&#160;&#160;&#160;&#160;&#160;&#160;&#160;&#160;&#160;&#160;&#160;&#160;&#160;&#160;&#160;&#160;&#160;&#160;&#160;&#160;&#160;&#160;&#160;&#160;&#160;&#160;&#160;&#160;&#160;&#160;&#160;&#160;&#160;</text>
<polygon fill="white" stroke="transparent" points="652.14,-197.85 652.14,-214.85 666.14,-214.85 666.14,-197.85 652.14,-197.85"/>
<text text-anchor="start" x="654.14" y="-203.25" font-family="sans-serif" font-size="12.00">D</text>
<polygon fill="white" stroke="transparent" points="172.46,-300.76 172.46,-317.76 186.46,-317.76 186.46,-300.76 172.46,-300.76"/>
<text text-anchor="start" x="174.46" y="-306.16" font-family="sans-serif" font-size="12.00">U</text>
</g>
<!-- ResearchContext -->
<g id="node3" class="node">
<title>ResearchContext</title>
<polygon fill="none" stroke="black" stroke-width="2" points="1260.14,-75.64 1255.13,-77.93 1249.87,-80.13 1244.38,-82.24 1238.68,-84.24 1232.79,-86.12 1226.74,-87.89 1220.55,-89.52 1214.23,-91.02 1207.8,-92.37 1201.3,-93.58 1194.73,-94.63 1188.13,-95.53 1181.5,-96.27 1174.87,-96.84 1168.25,-97.25 1161.66,-97.5 1155.12,-97.58 1148.65,-97.5 1142.26,-97.26 1135.96,-96.86 1129.77,-96.3 1123.71,-95.59 1117.77,-94.73 1111.98,-93.72 1106.35,-92.58 1100.87,-91.31 1095.58,-89.91 1090.46,-88.4 1085.54,-86.77 1080.81,-85.04 1076.29,-83.22 1071.98,-81.32 1067.88,-79.33 1064.01,-77.28 1060.36,-75.17 1056.95,-73 1053.77,-70.79 1050.84,-68.55 1048.15,-66.28 1045.71,-63.99 1043.53,-61.69 1041.6,-59.39 1039.94,-57.09 1038.55,-54.8 1037.42,-52.53 1036.57,-50.27 1036,-48.05 1035.71,-45.85 1035.7,-43.7 1035.98,-41.58 1036.55,-39.52 1037.41,-37.5 1038.57,-35.53 1040.03,-33.61 1041.78,-31.75 1043.84,-29.95 1046.19,-28.21 1048.85,-26.54 1051.8,-24.92 1055.04,-23.37 1058.58,-21.88 1062.41,-20.46 1066.53,-19.11 1070.92,-17.82 1075.59,-16.6 1080.53,-15.45 1085.71,-14.37 1091.15,-13.36 1096.82,-12.41 1102.71,-11.54 1108.81,-10.74 1115.1,-10.02 1121.58,-9.37 1128.21,-8.79 1134.99,-8.29 1141.88,-7.88 1148.89,-7.54 1155.97,-7.28 1163.12,-7.12 1170.3,-7.03 1177.49,-7.04 1184.68,-7.14 1191.83,-7.34 1198.93,-7.63 1205.94,-8.02 1212.84,-8.51 1219.61,-9.1 1226.22,-9.79 1232.65,-10.59 1238.87,-11.5 1244.87,-12.52 1250.61,-13.64 1256.08,-14.87 1261.26,-16.21 1266.12,-17.66 1270.65,-19.21 1274.83,-20.87 1278.65,-22.63 1282.09,-24.48 1285.14,-26.44 1287.79,-28.48 1290.03,-30.61 1291.85,-32.83 1293.25,-35.12 1294.21,-37.48 1294.75,-39.9 1294.86,-42.38 1294.54,-44.91 1293.79,-47.48 1292.63,-50.08 1291.05,-52.7 1289.07,-55.33 1286.69,-57.97 1283.93,-60.59 1280.8,-63.2 1277.32,-65.79 1273.49,-68.33 1269.34,-70.83 1264.88,-73.27 1260.14,-75.64"/>
<text text-anchor="middle" x="1158.72" y="-45.09" font-family="sans-serif" font-size="16.00">ResearchContext</text>
</g>
<!-- UserContext&#45;&gt;ResearchContext -->
<g id="edge2" class="edge">
<title>UserContext&#45;&gt;ResearchContext</title>
<path fill="none" stroke="black" stroke-width="2" d="M838.92,-164.23C906.9,-139.92 1002.26,-105.83 1071.13,-81.2"/>
<text text-anchor="middle" x="1044.22" y="-119.18" font-family="sans-serif" font-size="12.00"> &#160;&#160;&#160;&#160;&#160;&#160;&#160;&#160;&#160;&#160;&#160;&#160;&#160;&#160;&#160;&#160;&#160;&#160;&#160;&#160;&#160;&#160;&#160;&#160;&#160;&#160;&#160;&#160;&#160;&#160;&#160;&#160;&#160;&#160;&#160;&#160;&#160;&#160;&#160;</text>
<polygon fill="white" stroke="transparent" points="1064.13,-72.2 1064.13,-89.2 1078.13,-89.2 1078.13,-72.2 1064.13,-72.2"/>
<text text-anchor="start" x="1066.13" y="-77.6" font-family="sans-serif" font-size="12.00">D</text>
<polygon fill="white" stroke="transparent" points="831.92,-155.23 831.92,-172.23 845.92,-172.23 845.92,-155.23 831.92,-155.23"/>
<text text-anchor="start" x="833.92" y="-160.63" font-family="sans-serif" font-size="12.00">U</text>
</g>
<!-- LoginContext -->
<g id="node4" class="node">
<title>LoginContext</title>
<polygon fill="none" stroke="black" stroke-width="2" points="844.58,-73.17 840.76,-75.58 836.72,-77.91 832.46,-80.14 828.02,-82.27 823.39,-84.3 818.61,-86.2 813.68,-87.98 808.63,-89.63 803.46,-91.13 798.2,-92.49 792.86,-93.7 787.46,-94.75 782.01,-95.65 776.54,-96.38 771.04,-96.95 765.55,-97.35 760.07,-97.59 754.61,-97.67 749.2,-97.58 743.83,-97.32 738.54,-96.91 733.31,-96.35 728.17,-95.63 723.13,-94.77 718.2,-93.76 713.38,-92.62 708.69,-91.35 704.13,-89.96 699.71,-88.46 695.44,-86.85 691.32,-85.14 687.37,-83.34 683.59,-81.45 679.98,-79.5 676.55,-77.47 673.31,-75.39 670.26,-73.26 667.41,-71.1 664.76,-68.89 662.31,-66.67 660.08,-64.42 658.07,-62.17 656.27,-59.91 654.71,-57.66 653.37,-55.41 652.27,-53.19 651.4,-50.98 650.78,-48.8 650.41,-46.64 650.28,-44.53 650.4,-42.45 650.78,-40.41 651.42,-38.42 652.31,-36.47 653.47,-34.57 654.88,-32.73 656.56,-30.93 658.51,-29.19 660.71,-27.51 663.17,-25.89 665.89,-24.32 668.87,-22.81 672.1,-21.36 675.57,-19.97 679.28,-18.64 683.23,-17.37 687.41,-16.17 691.8,-15.03 696.41,-13.95 701.21,-12.94 706.2,-12 711.37,-11.12 716.7,-10.32 722.18,-9.58 727.79,-8.92 733.51,-8.34 739.34,-7.84 745.26,-7.42 751.23,-7.08 757.26,-6.82 763.31,-6.66 769.37,-6.59 775.41,-6.61 781.43,-6.73 787.39,-6.95 793.27,-7.28 799.06,-7.71 804.74,-8.24 810.29,-8.89 815.67,-9.65 820.89,-10.52 825.91,-11.5 830.72,-12.6 835.3,-13.82 839.64,-15.14 843.72,-16.59 847.52,-18.14 851.03,-19.81 854.24,-21.58 857.14,-23.46 859.72,-25.43 861.97,-27.51 863.88,-29.68 865.45,-31.93 866.67,-34.26 867.53,-36.67 868.05,-39.14 868.22,-41.68 868.03,-44.26 867.5,-46.88 866.62,-49.53 865.41,-52.21 863.86,-54.9 862,-57.59 859.81,-60.27 857.33,-62.93 854.55,-65.56 851.49,-68.15 848.16,-70.69 844.58,-73.17"/>
<text text-anchor="middle" x="754.72" y="-45.09" font-family="sans-serif" font-size="16.00">LoginContext</text>
</g>
<!-- UserContext&#45;&gt;LoginContext -->
<g id="edge3" class="edge">
<title>UserContext&#45;&gt;LoginContext</title>
<path fill="none" stroke="black" stroke-width="2" d="M754.72,-151.38C754.72,-134.5 754.72,-115.05 754.72,-97.72"/>
<text text-anchor="middle" x="796.72" y="-119.18" font-family="sans-serif" font-size="12.00">Shared Kernel</text>
</g>
<!-- ContractContext -->
<g id="node5" class="node">
<title>ContractContext</title>
<polygon fill="none" stroke="black" stroke-width="2" points="475.21,-316.91 479.93,-319.25 484.34,-321.65 488.41,-324.1 492.13,-326.58 495.49,-329.08 498.45,-331.6 501.03,-334.13 503.19,-336.65 504.94,-339.17 506.25,-341.66 507.14,-344.13 507.58,-346.57 507.58,-348.96 507.14,-351.3 506.26,-353.59 504.94,-355.81 503.19,-357.97 501.01,-360.05 498.42,-362.06 495.42,-363.99 492.02,-365.84 488.25,-367.6 484.11,-369.27 479.63,-370.84 474.82,-372.33 469.7,-373.72 464.29,-375.01 458.62,-376.21 452.71,-377.32 446.58,-378.32 440.26,-379.23 433.76,-380.05 427.12,-380.77 420.36,-381.4 413.51,-381.93 406.58,-382.37 399.61,-382.73 392.62,-382.99 385.63,-383.16 378.66,-383.25 371.74,-383.25 364.89,-383.16 358.12,-382.99 351.47,-382.73 344.93,-382.4 338.54,-381.98 332.31,-381.47 326.26,-380.89 320.39,-380.22 314.71,-379.48 309.25,-378.65 304.01,-377.74 299.01,-376.75 294.23,-375.68 289.71,-374.53 285.43,-373.31 281.4,-372 277.64,-370.61 274.14,-369.15 270.9,-367.61 267.92,-365.99 265.21,-364.31 262.77,-362.54 260.6,-360.71 258.69,-358.81 257.05,-356.84 255.67,-354.82 254.56,-352.73 253.71,-350.59 253.12,-348.4 252.78,-346.16 252.71,-343.88 252.9,-341.57 253.34,-339.22 254.03,-336.86 254.98,-334.48 256.18,-332.09 257.63,-329.7 259.33,-327.32 261.28,-324.95 263.48,-322.61 265.93,-320.29 268.62,-318.02 271.55,-315.8 274.73,-313.63 278.15,-311.53 281.81,-309.51 285.7,-307.56 289.83,-305.72 294.18,-303.97 298.76,-302.33 303.55,-300.8 308.56,-299.4 313.77,-298.12 319.18,-296.99 324.78,-295.99 330.55,-295.14 336.5,-294.44 342.6,-293.89 348.84,-293.5 355.2,-293.27 361.69,-293.2 368.26,-293.3 374.92,-293.55 381.64,-293.97 388.4,-294.54 395.19,-295.28 401.97,-296.16 408.73,-297.2 415.45,-298.39 422.11,-299.72 428.68,-301.18 435.13,-302.77 441.45,-304.49 447.61,-306.32 453.59,-308.25 459.36,-310.29 464.9,-312.42 470.19,-314.63 475.21,-316.91"/>
<text text-anchor="middle" x="371.72" y="-337.9" font-family="sans-serif" font-size="16.00">ContractContext</text>
</g>
<!-- ContractContext&#45;&gt;UserContext -->
<g id="edge4" class="edge">
<title>ContractContext&#45;&gt;UserContext</title>
<path fill="none" stroke="black" stroke-width="2" d="M447.66,-306.17C480.34,-291.79 519.13,-275.35 554.72,-261.88 594.53,-246.82 639.53,-231.89 676.74,-220.09"/>
<text text-anchor="middle" x="630.22" y="-265.28" font-family="sans-serif" font-size="12.00"> &#160;&#160;&#160;&#160;&#160;&#160;&#160;&#160;&#160;&#160;&#160;&#160;&#160;&#160;&#160;&#160;&#160;&#160;&#160;&#160;&#160;&#160;&#160;&#160;&#160;&#160;&#160;&#160;&#160;&#160;&#160;&#160;&#160;&#160;&#160;&#160;&#160;&#160;&#160;</text>
<polygon fill="white" stroke="transparent" points="669.74,-211.09 669.74,-228.09 683.74,-228.09 683.74,-211.09 669.74,-211.09"/>
<text text-anchor="start" x="671.74" y="-216.49" font-family="sans-serif" font-size="12.00">D</text>
<polygon fill="white" stroke="transparent" points="440.66,-297.17 440.66,-314.17 454.66,-314.17 454.66,-297.17 440.66,-297.17"/>
<text text-anchor="start" x="442.66" y="-302.57" font-family="sans-serif" font-size="12.00">U</text>
</g>
<!-- CustomerServiceContext -->
<g id="node6" class="node">
<title>CustomerServiceContext</title>
<polygon fill="none" stroke="black" stroke-width="2" points="848.03,-369.04 841.04,-371.3 833.72,-373.47 826.1,-375.54 818.19,-377.5 810.04,-379.35 801.68,-381.08 793.12,-382.67 784.41,-384.13 775.57,-385.45 766.62,-386.61 757.6,-387.63 748.54,-388.48 739.46,-389.18 730.38,-389.72 721.34,-390.09 712.35,-390.3 703.44,-390.34 694.62,-390.22 685.93,-389.94 677.38,-389.5 668.99,-388.9 660.77,-388.16 652.75,-387.26 644.93,-386.22 637.33,-385.05 629.97,-383.74 622.85,-382.32 615.98,-380.77 609.39,-379.12 603.07,-377.37 597.03,-375.52 591.29,-373.59 585.85,-371.58 580.72,-369.51 575.9,-367.37 571.4,-365.19 567.22,-362.97 563.38,-360.71 559.88,-358.42 556.72,-356.12 553.9,-353.81 551.44,-351.5 549.34,-349.19 547.59,-346.89 546.22,-344.61 545.22,-342.36 544.59,-340.13 544.35,-337.94 544.49,-335.78 545.01,-333.67 545.94,-331.61 547.25,-329.59 548.97,-327.63 551.09,-325.73 553.61,-323.88 556.53,-322.1 559.86,-320.37 563.59,-318.71 567.72,-317.12 572.25,-315.58 577.18,-314.12 582.5,-312.72 588.2,-311.4 594.27,-310.14 600.72,-308.95 607.52,-307.83 614.66,-306.77 622.14,-305.79 629.93,-304.89 638.01,-304.05 646.38,-303.29 655.01,-302.6 663.87,-301.99 672.94,-301.45 682.21,-301 691.64,-300.62 701.2,-300.32 710.87,-300.11 720.61,-299.99 730.4,-299.95 740.21,-300 749.99,-300.14 759.72,-300.38 769.36,-300.71 778.89,-301.14 788.26,-301.67 797.44,-302.3 806.4,-303.04 815.1,-303.88 823.51,-304.82 831.61,-305.87 839.36,-307.03 846.72,-308.29 853.68,-309.66 860.21,-311.14 866.27,-312.71 871.86,-314.39 876.94,-316.17 881.5,-318.05 885.52,-320.02 888.98,-322.08 891.88,-324.23 894.21,-326.45 895.95,-328.75 897.1,-331.11 897.67,-333.54 897.64,-336.01 897.03,-338.54 895.84,-341.1 894.07,-343.69 891.74,-346.3 888.85,-348.92 885.43,-351.54 881.49,-354.15 877.04,-356.74 872.12,-359.3 866.73,-361.82 860.9,-364.29 854.66,-366.7 848.03,-369.04"/>
<text text-anchor="middle" x="711.72" y="-337.9" font-family="sans-serif" font-size="16.00">CustomerServiceContext</text>
</g>
<!-- CustomerServiceContext&#45;&gt;UserContext -->
<g id="edge5" class="edge">
<title>CustomerServiceContext&#45;&gt;UserContext</title>
<path fill="none" stroke="black" stroke-width="2" d="M707.97,-299.95C707.96,-287.51 709.1,-273.94 712.72,-261.88 715.28,-253.34 719.31,-244.84 723.89,-236.94"/>
<text text-anchor="middle" x="788.22" y="-265.28" font-family="sans-serif" font-size="12.00"> &#160;&#160;&#160;&#160;&#160;&#160;&#160;&#160;&#160;&#160;&#160;&#160;&#160;&#160;&#160;&#160;&#160;&#160;&#160;&#160;&#160;&#160;&#160;&#160;&#160;&#160;&#160;&#160;&#160;&#160;&#160;&#160;&#160;&#160;&#160;&#160;&#160;&#160;&#160;</text>
<polygon fill="white" stroke="transparent" points="716.89,-227.94 716.89,-244.94 730.89,-244.94 730.89,-227.94 716.89,-227.94"/>
<text text-anchor="start" x="718.89" y="-233.34" font-family="sans-serif" font-size="12.00">D</text>
<polygon fill="white" stroke="transparent" points="700.97,-290.95 700.97,-307.95 714.97,-307.95 714.97,-290.95 700.97,-290.95"/>
<text text-anchor="start" x="702.97" y="-296.35" font-family="sans-serif" font-size="12.00">U</text>
</g>
<!-- DigitalSignatureContext -->
<g id="node7" class="node">
<title>DigitalSignatureContext</title>
<polygon fill="none" stroke="black" stroke-width="2" points="994.6,-375.49 986.05,-373.7 977.85,-371.82 970.03,-369.86 962.63,-367.84 955.68,-365.76 949.2,-363.63 943.22,-361.45 937.78,-359.23 932.88,-356.99 928.56,-354.72 924.82,-352.43 921.69,-350.14 919.16,-347.85 917.26,-345.55 915.99,-343.27 915.34,-341.01 915.33,-338.77 915.93,-336.56 917.16,-334.38 918.99,-332.23 921.41,-330.13 924.42,-328.08 927.99,-326.08 932.1,-324.13 936.73,-322.24 941.85,-320.41 947.45,-318.65 953.48,-316.95 959.93,-315.32 966.76,-313.76 973.95,-312.28 981.45,-310.87 989.24,-309.54 997.28,-308.28 1005.54,-307.11 1013.99,-306.02 1022.59,-305.01 1031.32,-304.08 1040.14,-303.24 1049.01,-302.48 1057.93,-301.82 1066.84,-301.24 1075.73,-300.75 1084.57,-300.35 1093.33,-300.05 1102,-299.83 1110.55,-299.72 1118.97,-299.69 1127.22,-299.76 1135.31,-299.93 1143.21,-300.2 1150.91,-300.57 1158.4,-301.03 1165.67,-301.6 1172.71,-302.27 1179.51,-303.03 1186.07,-303.9 1192.38,-304.87 1198.43,-305.93 1204.22,-307.1 1209.75,-308.36 1215.02,-309.72 1220.01,-311.18 1224.74,-312.73 1229.2,-314.37 1233.39,-316.1 1237.3,-317.91 1240.93,-319.81 1244.28,-321.78 1247.35,-323.83 1250.13,-325.95 1252.63,-328.13 1254.83,-330.37 1256.73,-332.66 1258.32,-335 1259.61,-337.37 1260.58,-339.78 1261.23,-342.22 1261.55,-344.67 1261.53,-347.13 1261.17,-349.59 1260.46,-352.05 1259.39,-354.49 1257.95,-356.91 1256.14,-359.3 1253.95,-361.64 1251.37,-363.94 1248.41,-366.18 1245.04,-368.35 1241.28,-370.45 1237.12,-372.47 1232.55,-374.4 1227.58,-376.23 1222.21,-377.95 1216.45,-379.57 1210.29,-381.06 1203.75,-382.44 1196.84,-383.68 1189.57,-384.8 1181.94,-385.77 1173.99,-386.61 1165.72,-387.3 1157.15,-387.85 1148.31,-388.24 1139.22,-388.49 1129.91,-388.59 1120.41,-388.54 1110.74,-388.34 1100.94,-388 1091.04,-387.51 1081.07,-386.88 1071.07,-386.11 1061.09,-385.2 1051.15,-384.16 1041.29,-383 1031.55,-381.72 1021.98,-380.32 1012.6,-378.81 1003.46,-377.2 994.6,-375.49"/>
<text text-anchor="middle" x="1101.72" y="-337.9" font-family="sans-serif" font-size="16.00">DigitalSignatureContext</text>
</g>
<!-- DigitalSignatureContext&#45;&gt;UserContext -->
<g id="edge6" class="edge">
<title>DigitalSignatureContext&#45;&gt;UserContext</title>
<path fill="none" stroke="black" stroke-width="2" d="M984.37,-310.33C952.15,-300.51 917.59,-288.56 886.72,-274.88 882.5,-273.01 844.21,-250.17 809.95,-229.6"/>
<text text-anchor="middle" x="962.22" y="-265.28" font-family="sans-serif" font-size="12.00"> &#160;&#160;&#160;&#160;&#160;&#160;&#160;&#160;&#160;&#160;&#160;&#160;&#160;&#160;&#160;&#160;&#160;&#160;&#160;&#160;&#160;&#160;&#160;&#160;&#160;&#160;&#160;&#160;&#160;&#160;&#160;&#160;&#160;&#160;&#160;&#160;&#160;&#160;&#160;</text>
<polygon fill="white" stroke="transparent" points="802.95,-220.6 802.95,-237.6 816.95,-237.6 816.95,-220.6 802.95,-220.6"/>
<text text-anchor="start" x="804.95" y="-226" font-family="sans-serif" font-size="12.00">D</text>
<polygon fill="white" stroke="transparent" points="977.37,-301.33 977.37,-318.33 991.37,-318.33 991.37,-301.33 977.37,-301.33"/>
<text text-anchor="start" x="979.37" y="-306.73" font-family="sans-serif" font-size="12.00">U</text>
</g>
<!-- GeolocationContext -->
<g id="node8" class="node">
<title>GeolocationContext</title>
<polygon fill="none" stroke="black" stroke-width="2" points="1426.32,-516.44 1419.98,-514.31 1413.98,-512.12 1408.34,-509.87 1403.09,-507.58 1398.26,-505.24 1393.85,-502.87 1389.9,-500.47 1386.41,-498.06 1383.41,-495.64 1380.9,-493.23 1378.9,-490.82 1377.42,-488.42 1376.46,-486.05 1376.02,-483.71 1376.12,-481.41 1376.73,-479.15 1377.87,-476.94 1379.53,-474.77 1381.69,-472.67 1384.35,-470.63 1387.49,-468.66 1391.1,-466.75 1395.16,-464.92 1399.65,-463.17 1404.56,-461.49 1409.86,-459.9 1415.52,-458.38 1421.52,-456.95 1427.84,-455.61 1434.45,-454.35 1441.31,-453.18 1448.41,-452.09 1455.71,-451.09 1463.19,-450.18 1470.82,-449.36 1478.56,-448.63 1486.39,-447.98 1494.28,-447.42 1502.2,-446.95 1510.13,-446.57 1518.05,-446.28 1525.92,-446.07 1533.72,-445.95 1541.43,-445.92 1549.04,-445.98 1556.51,-446.12 1563.84,-446.35 1571,-446.67 1577.98,-447.08 1584.76,-447.58 1591.34,-448.17 1597.69,-448.85 1603.81,-449.61 1609.7,-450.47 1615.34,-451.41 1620.72,-452.45 1625.84,-453.57 1630.7,-454.78 1635.3,-456.08 1639.62,-457.47 1643.66,-458.95 1647.44,-460.51 1650.93,-462.15 1654.15,-463.87 1657.1,-465.67 1659.76,-467.55 1662.15,-469.5 1664.26,-471.52 1666.09,-473.61 1667.65,-475.76 1668.92,-477.96 1669.92,-480.22 1670.63,-482.52 1671.07,-484.86 1671.22,-487.23 1671.09,-489.63 1670.68,-492.05 1669.97,-494.48 1668.98,-496.91 1667.7,-499.34 1666.13,-501.76 1664.26,-504.16 1662.09,-506.52 1659.62,-508.85 1656.86,-511.14 1653.79,-513.36 1650.42,-515.53 1646.74,-517.62 1642.77,-519.62 1638.49,-521.54 1633.91,-523.36 1629.04,-525.08 1623.88,-526.68 1618.43,-528.17 1612.7,-529.53 1606.7,-530.75 1600.44,-531.84 1593.92,-532.79 1587.17,-533.59 1580.19,-534.25 1573,-534.75 1565.62,-535.09 1558.06,-535.28 1550.34,-535.31 1542.49,-535.18 1534.53,-534.9 1526.48,-534.46 1518.37,-533.87 1510.22,-533.13 1502.06,-532.24 1493.92,-531.21 1485.82,-530.04 1477.8,-528.74 1469.89,-527.31 1462.11,-525.76 1454.5,-524.09 1447.09,-522.32 1439.9,-520.45 1432.97,-518.48 1426.32,-516.44"/>
<text text-anchor="middle" x="1534.72" y="-483.65" font-family="sans-serif" font-size="16.00">GeolocationContext</text>
</g>
<!-- PropertyContext -->
<g id="node9" class="node">
<title>PropertyContext</title>
<polygon fill="none" stroke="black" stroke-width="2" points="1535.49,-385.63 1527.39,-385.69 1519.33,-385.63 1511.36,-385.44 1503.5,-385.14 1495.78,-384.71 1488.24,-384.17 1480.9,-383.5 1473.79,-382.72 1466.94,-381.82 1460.37,-380.81 1454.11,-379.68 1448.17,-378.45 1442.57,-377.11 1437.33,-375.68 1432.47,-374.14 1427.99,-372.52 1423.91,-370.8 1420.23,-369 1416.96,-367.12 1414.11,-365.17 1411.66,-363.16 1409.64,-361.08 1408.02,-358.94 1406.81,-356.76 1405.99,-354.53 1405.57,-352.26 1405.53,-349.97 1405.86,-347.65 1406.55,-345.32 1407.59,-342.97 1408.96,-340.63 1410.64,-338.29 1412.63,-335.95 1414.9,-333.64 1417.44,-331.35 1420.24,-329.09 1423.27,-326.87 1426.52,-324.69 1429.99,-322.56 1433.64,-320.49 1437.47,-318.48 1441.46,-316.54 1445.61,-314.67 1449.89,-312.88 1454.29,-311.17 1458.81,-309.55 1463.44,-308.02 1468.15,-306.59 1472.96,-305.25 1477.85,-304.02 1482.8,-302.9 1487.83,-301.89 1492.91,-300.98 1498.05,-300.19 1503.25,-299.52 1508.49,-298.97 1513.77,-298.53 1519.1,-298.21 1524.46,-298.01 1529.86,-297.93 1535.28,-297.97 1540.74,-298.13 1546.21,-298.4 1551.7,-298.8 1557.21,-299.3 1562.72,-299.93 1568.23,-300.66 1573.73,-301.5 1579.21,-302.45 1584.67,-303.51 1590.09,-304.66 1595.46,-305.91 1600.77,-307.26 1606.01,-308.7 1611.16,-310.22 1616.21,-311.83 1621.13,-313.51 1625.92,-315.27 1630.56,-317.1 1635.02,-318.99 1639.29,-320.94 1643.35,-322.94 1647.18,-324.99 1650.76,-327.09 1654.08,-329.22 1657.1,-331.39 1659.81,-333.59 1662.2,-335.8 1664.25,-338.03 1665.93,-340.28 1667.24,-342.52 1668.16,-344.77 1668.67,-347.01 1668.77,-349.23 1668.44,-351.44 1667.67,-353.63 1666.47,-355.78 1664.82,-357.9 1662.73,-359.97 1660.19,-362 1657.2,-363.98 1653.78,-365.9 1649.92,-367.76 1645.64,-369.55 1640.95,-371.27 1635.86,-372.92 1630.39,-374.48 1624.56,-375.95 1618.39,-377.33 1611.89,-378.62 1605.11,-379.82 1598.05,-380.91 1590.75,-381.89 1583.24,-382.77 1575.55,-383.53 1567.71,-384.19 1559.75,-384.72 1551.7,-385.14 1543.61,-385.45 1535.49,-385.63"/>
<text text-anchor="middle" x="1534.72" y="-337.9" font-family="sans-serif" font-size="16.00">PropertyContext</text>
</g>
<!-- GeolocationContext&#45;&gt;PropertyContext -->
<g id="edge7" class="edge">
<title>GeolocationContext&#45;&gt;PropertyContext</title>
<path fill="none" stroke="black" stroke-width="2" d="M1534.72,-445.64C1534.72,-426.97 1534.72,-404.82 1534.72,-385.87"/>
<text text-anchor="middle" x="1610.22" y="-411.92" font-family="sans-serif" font-size="12.00"> &#160;&#160;&#160;&#160;&#160;&#160;&#160;&#160;&#160;&#160;&#160;&#160;&#160;&#160;&#160;&#160;&#160;&#160;&#160;&#160;&#160;&#160;&#160;&#160;&#160;&#160;&#160;&#160;&#160;&#160;&#160;&#160;&#160;&#160;&#160;&#160;&#160;&#160;&#160;</text>
<polygon fill="white" stroke="transparent" points="1527.72,-376.87 1527.72,-393.87 1541.72,-393.87 1541.72,-376.87 1527.72,-376.87"/>
<text text-anchor="start" x="1529.72" y="-382.27" font-family="sans-serif" font-size="12.00">D</text>
<polygon fill="white" stroke="transparent" points="1527.72,-436.64 1527.72,-453.64 1541.72,-453.64 1541.72,-436.64 1527.72,-436.64"/>
<text text-anchor="start" x="1529.72" y="-442.04" font-family="sans-serif" font-size="12.00">U</text>
</g>
<!-- PropertyContext&#45;&gt;UserContext -->
<g id="edge12" class="edge">
<title>PropertyContext&#45;&gt;UserContext</title>
<path fill="none" stroke="black" stroke-width="2" d="M1437.62,-318.4C1394.65,-309.25 1343.37,-299.32 1296.72,-292.88 1192.51,-278.5 1161.36,-305.5 1060.72,-274.88 1049.48,-271.47 1048.66,-266.14 1037.72,-261.88 976.62,-238.11 904.59,-221.58 848.5,-211.06"/>
<text text-anchor="middle" x="1102.72" y="-265.28" font-family="sans-serif" font-size="12.00">Shared Kernel</text>
</g>
<!-- PropertyContext&#45;&gt;ResearchContext -->
<g id="edge11" class="edge">
<title>PropertyContext&#45;&gt;ResearchContext</title>
<path fill="none" stroke="black" stroke-width="2" d="M1433.64,-320.42C1330.98,-298.82 1184.72,-264.93 1167.72,-243.88 1134.87,-203.23 1138.5,-140.69 1146.48,-97.67"/>
<text text-anchor="middle" x="1243.22" y="-192.23" font-family="sans-serif" font-size="12.00"> &#160;&#160;&#160;&#160;&#160;&#160;&#160;&#160;&#160;&#160;&#160;&#160;&#160;&#160;&#160;&#160;&#160;&#160;&#160;&#160;&#160;&#160;&#160;&#160;&#160;&#160;&#160;&#160;&#160;&#160;&#160;&#160;&#160;&#160;&#160;&#160;&#160;&#160;&#160;</text>
<polygon fill="white" stroke="transparent" points="1139.48,-88.67 1139.48,-105.67 1153.48,-105.67 1153.48,-88.67 1139.48,-88.67"/>
<text text-anchor="start" x="1141.48" y="-94.07" font-family="sans-serif" font-size="12.00">D</text>
<polygon fill="white" stroke="transparent" points="1426.64,-311.42 1426.64,-328.42 1440.64,-328.42 1440.64,-311.42 1426.64,-311.42"/>
<text text-anchor="start" x="1428.64" y="-316.82" font-family="sans-serif" font-size="12.00">U</text>
</g>
<!-- RealStateCompanysContext -->
<g id="node10" class="node">
<title>RealStateCompanysContext</title>
<polygon fill="none" stroke="black" stroke-width="2" points="1670.81,-226.24 1662.16,-228.31 1653.19,-230.29 1643.93,-232.16 1634.42,-233.91 1624.69,-235.54 1614.79,-237.05 1604.73,-238.42 1594.57,-239.64 1584.33,-240.73 1574.05,-241.66 1563.75,-242.43 1553.48,-243.05 1543.27,-243.51 1533.13,-243.8 1523.1,-243.94 1513.21,-243.91 1503.47,-243.72 1493.92,-243.36 1484.58,-242.86 1475.46,-242.19 1466.58,-241.37 1457.97,-240.41 1449.63,-239.3 1441.58,-238.06 1433.84,-236.69 1426.41,-235.19 1419.3,-233.58 1412.52,-231.85 1406.09,-230.03 1400,-228.11 1394.27,-226.1 1388.89,-224.02 1383.88,-221.87 1379.23,-219.67 1374.95,-217.41 1371.04,-215.11 1367.51,-212.77 1364.35,-210.42 1361.58,-208.04 1359.18,-205.66 1357.17,-203.27 1355.54,-200.9 1354.31,-198.54 1353.46,-196.19 1353,-193.88 1352.94,-191.6 1353.27,-189.36 1354.01,-187.16 1355.14,-185.01 1356.68,-182.91 1358.63,-180.88 1360.99,-178.9 1363.75,-176.98 1366.93,-175.14 1370.52,-173.36 1374.52,-171.65 1378.94,-170.01 1383.76,-168.45 1389,-166.97 1394.64,-165.56 1400.67,-164.22 1407.11,-162.97 1413.93,-161.79 1421.13,-160.69 1428.69,-159.67 1436.62,-158.73 1444.88,-157.87 1453.48,-157.09 1462.38,-156.38 1471.58,-155.76 1481.05,-155.22 1490.76,-154.76 1500.7,-154.38 1510.84,-154.09 1521.15,-153.87 1531.6,-153.75 1542.16,-153.7 1552.79,-153.75 1563.47,-153.88 1574.16,-154.1 1584.82,-154.41 1595.42,-154.81 1605.92,-155.3 1616.27,-155.89 1626.46,-156.57 1636.43,-157.34 1646.15,-158.22 1655.58,-159.19 1664.68,-160.25 1673.42,-161.42 1681.76,-162.68 1689.68,-164.04 1697.13,-165.5 1704.09,-167.05 1710.53,-168.7 1716.42,-170.43 1721.74,-172.26 1726.46,-174.17 1730.58,-176.17 1734.06,-178.24 1736.89,-180.39 1739.07,-182.61 1740.59,-184.89 1741.44,-187.24 1741.62,-189.63 1741.13,-192.07 1739.97,-194.54 1738.15,-197.05 1735.68,-199.58 1732.57,-202.12 1728.83,-204.66 1724.49,-207.21 1719.57,-209.73 1714.08,-212.24 1708.05,-214.71 1701.51,-217.14 1694.48,-219.51 1687,-221.83 1679.1,-224.07 1670.81,-226.24"/>
<text text-anchor="middle" x="1534.72" y="-191.53" font-family="sans-serif" font-size="16.00">RealStateCompanysContext</text>
</g>
<!-- PropertyContext&#45;&gt;RealStateCompanysContext -->
<g id="edge8" class="edge">
<title>PropertyContext&#45;&gt;RealStateCompanysContext</title>
<path fill="none" stroke="black" stroke-width="2" d="M1534.72,-297.78C1534.72,-280.82 1534.72,-261.27 1534.72,-243.89"/>
<text text-anchor="middle" x="1576.72" y="-265.28" font-family="sans-serif" font-size="12.00">Shared Kernel</text>
</g>
<!-- RealStateHistoryContext -->
<g id="node11" class="node">
<title>RealStateHistoryContext</title>
<polygon fill="none" stroke="black" stroke-width="2" points="1425.21,-83.06 1416.4,-81.31 1407.94,-79.48 1399.87,-77.56 1392.21,-75.58 1385.01,-73.54 1378.28,-71.44 1372.07,-69.3 1366.39,-67.11 1361.26,-64.9 1356.71,-62.65 1352.76,-60.39 1349.42,-58.12 1346.71,-55.84 1344.62,-53.57 1343.17,-51.3 1342.36,-49.05 1342.19,-46.81 1342.66,-44.6 1343.75,-42.42 1345.47,-40.28 1347.79,-38.18 1350.7,-36.12 1354.19,-34.1 1358.23,-32.14 1362.81,-30.24 1367.89,-28.39 1373.45,-26.61 1379.47,-24.89 1385.91,-23.23 1392.74,-21.65 1399.94,-20.14 1407.46,-18.7 1415.28,-17.33 1423.37,-16.05 1431.68,-14.84 1440.19,-13.71 1448.86,-12.66 1457.66,-11.7 1466.56,-10.82 1475.52,-10.03 1484.53,-9.32 1493.54,-8.71 1502.54,-8.18 1511.49,-7.74 1520.37,-7.4 1529.17,-7.15 1537.84,-6.99 1546.39,-6.93 1554.78,-6.96 1563.01,-7.1 1571.05,-7.33 1578.9,-7.66 1586.54,-8.09 1593.96,-8.62 1601.16,-9.25 1608.12,-9.98 1614.83,-10.82 1621.3,-11.75 1627.52,-12.79 1633.49,-13.92 1639.19,-15.16 1644.63,-16.49 1649.81,-17.92 1654.72,-19.45 1659.36,-21.06 1663.72,-22.77 1667.82,-24.56 1671.64,-26.43 1675.18,-28.38 1678.43,-30.41 1681.4,-32.51 1684.08,-34.67 1686.47,-36.89 1688.55,-39.17 1690.34,-41.49 1691.8,-43.85 1692.95,-46.25 1693.78,-48.68 1694.27,-51.12 1694.42,-53.57 1694.22,-56.03 1693.66,-58.48 1692.74,-60.92 1691.44,-63.34 1689.77,-65.73 1687.7,-68.08 1685.24,-70.38 1682.38,-72.62 1679.11,-74.81 1675.43,-76.92 1671.34,-78.95 1666.83,-80.89 1661.91,-82.73 1656.57,-84.48 1650.82,-86.12 1644.67,-87.64 1638.13,-89.04 1631.19,-90.31 1623.87,-91.45 1616.2,-92.46 1608.17,-93.33 1599.82,-94.06 1591.15,-94.64 1582.2,-95.08 1572.99,-95.36 1563.54,-95.51 1553.88,-95.5 1544.04,-95.35 1534.06,-95.05 1523.97,-94.6 1513.81,-94.02 1503.6,-93.3 1493.4,-92.44 1483.23,-91.45 1473.14,-90.34 1463.16,-89.1 1453.34,-87.75 1443.71,-86.29 1434.32,-84.72 1425.21,-83.06"/>
<text text-anchor="middle" x="1531.72" y="-45.09" font-family="sans-serif" font-size="16.00">RealStateHistoryContext</text>
</g>
<!-- PropertyContext&#45;&gt;RealStateHistoryContext -->
<g id="edge10" class="edge">
<title>PropertyContext&#45;&gt;RealStateHistoryContext</title>
<path fill="none" stroke="black" stroke-width="2" d="M1635.41,-319.11C1677.63,-304.84 1723.2,-281.55 1750.72,-243.88 1784.48,-197.67 1798.22,-161.44 1763.72,-115.78 1756.84,-106.67 1713.76,-93.38 1666.55,-81.11"/>
<text text-anchor="middle" x="1825.72" y="-192.23" font-family="sans-serif" font-size="12.00">Shared Kernel</text>
</g>
<!-- TransactionsContext -->
<g id="node12" class="node">
<title>TransactionsContext</title>
<polygon fill="none" stroke="black" stroke-width="2" points="2000.99,-80.79 1994.09,-82.78 1986.94,-84.68 1979.58,-86.47 1972.05,-88.15 1964.36,-89.7 1956.55,-91.12 1948.64,-92.4 1940.66,-93.54 1932.64,-94.54 1924.61,-95.38 1916.58,-96.08 1908.6,-96.61 1900.67,-96.98 1892.82,-97.2 1885.07,-97.25 1877.45,-97.14 1869.97,-96.87 1862.65,-96.45 1855.51,-95.86 1848.56,-95.13 1841.81,-94.24 1835.29,-93.21 1828.99,-92.04 1822.93,-90.74 1817.12,-89.31 1811.57,-87.76 1806.28,-86.09 1801.26,-84.32 1796.51,-82.45 1792.05,-80.49 1787.86,-78.44 1783.96,-76.32 1780.35,-74.14 1777.02,-71.9 1773.99,-69.62 1771.25,-67.29 1768.8,-64.94 1766.64,-62.56 1764.78,-60.17 1763.21,-57.78 1761.94,-55.39 1760.97,-53 1760.29,-50.64 1759.91,-48.3 1759.83,-45.99 1760.04,-43.71 1760.56,-41.48 1761.39,-39.3 1762.52,-37.16 1763.95,-35.09 1765.69,-33.07 1767.74,-31.12 1770.09,-29.23 1772.76,-27.41 1775.73,-25.67 1779.02,-24 1782.61,-22.4 1786.51,-20.89 1790.72,-19.45 1795.23,-18.09 1800.04,-16.81 1805.15,-15.61 1810.54,-14.49 1816.22,-13.45 1822.17,-12.49 1828.39,-11.62 1834.86,-10.83 1841.58,-10.12 1848.52,-9.49 1855.69,-8.94 1863.05,-8.48 1870.59,-8.09 1878.29,-7.8 1886.14,-7.58 1894.11,-7.45 1902.18,-7.41 1910.32,-7.45 1918.52,-7.58 1926.73,-7.8 1934.94,-8.1 1943.12,-8.49 1951.25,-8.98 1959.28,-9.55 1967.2,-10.22 1974.97,-10.98 1982.56,-11.83 1989.95,-12.78 1997.1,-13.83 2003.99,-14.96 2010.59,-16.19 2016.88,-17.52 2022.82,-18.94 2028.39,-20.45 2033.58,-22.05 2038.35,-23.74 2042.68,-25.52 2046.57,-27.39 2049.99,-29.33 2052.92,-31.35 2055.36,-33.45 2057.3,-35.62 2058.72,-37.85 2059.62,-40.13 2060,-42.47 2059.86,-44.86 2059.19,-47.29 2058.01,-49.75 2056.31,-52.23 2054.11,-54.73 2051.42,-57.24 2048.24,-59.75 2044.6,-62.25 2040.51,-64.73 2035.98,-67.18 2031.05,-69.59 2025.72,-71.96 2020.03,-74.27 2013.99,-76.52 2007.64,-78.7 2000.99,-80.79"/>
<text text-anchor="middle" x="1899.72" y="-45.09" font-family="sans-serif" font-size="16.00">TransactionsContext</text>
</g>
<!-- PropertyContext&#45;&gt;TransactionsContext -->
<g id="edge9" class="edge">
<title>PropertyContext&#45;&gt;TransactionsContext</title>
<path fill="none" stroke="black" stroke-width="2" d="M1643.04,-322.68C1729.69,-305.98 1841.51,-278.52 1871.72,-243.88 1906.72,-203.75 1909.39,-140.18 1906.18,-96.84"/>
<text text-anchor="middle" x="1981.22" y="-192.23" font-family="sans-serif" font-size="12.00"> &#160;&#160;&#160;&#160;&#160;&#160;&#160;&#160;&#160;&#160;&#160;&#160;&#160;&#160;&#160;&#160;&#160;&#160;&#160;&#160;&#160;&#160;&#160;&#160;&#160;&#160;&#160;&#160;&#160;&#160;&#160;&#160;&#160;&#160;&#160;&#160;&#160;&#160;&#160;</text>
<polygon fill="white" stroke="transparent" points="1899.18,-87.84 1899.18,-104.84 1913.18,-104.84 1913.18,-87.84 1899.18,-87.84"/>
<text text-anchor="start" x="1901.18" y="-93.24" font-family="sans-serif" font-size="12.00">D</text>
<polygon fill="white" stroke="transparent" points="1636.04,-313.68 1636.04,-330.68 1650.04,-330.68 1650.04,-313.68 1636.04,-313.68"/>
<text text-anchor="start" x="1638.04" y="-319.08" font-family="sans-serif" font-size="12.00">U</text>
</g>
<!-- RealStateCompanysContext&#45;&gt;ResearchContext -->
<g id="edge14" class="edge">
<title>RealStateCompanysContext&#45;&gt;ResearchContext</title>
<path fill="none" stroke="black" stroke-width="2" d="M1440.81,-158.25C1380.34,-135.02 1302.37,-105.07 1243.73,-82.55"/>
<text text-anchor="middle" x="1433.22" y="-119.18" font-family="sans-serif" font-size="12.00"> &#160;&#160;&#160;&#160;&#160;&#160;&#160;&#160;&#160;&#160;&#160;&#160;&#160;&#160;&#160;&#160;&#160;&#160;&#160;&#160;&#160;&#160;&#160;&#160;&#160;&#160;&#160;&#160;&#160;&#160;&#160;&#160;&#160;&#160;&#160;&#160;&#160;&#160;&#160;</text>
<polygon fill="white" stroke="transparent" points="1236.73,-73.55 1236.73,-90.55 1250.73,-90.55 1250.73,-73.55 1236.73,-73.55"/>
<text text-anchor="start" x="1238.73" y="-78.95" font-family="sans-serif" font-size="12.00">D</text>
<polygon fill="white" stroke="transparent" points="1433.81,-149.25 1433.81,-166.25 1447.81,-166.25 1447.81,-149.25 1433.81,-149.25"/>
<text text-anchor="start" x="1435.81" y="-154.65" font-family="sans-serif" font-size="12.00">U</text>
</g>
<!-- RealStateCompanysContext&#45;&gt;RealStateHistoryContext -->
<g id="edge13" class="edge">
<title>RealStateCompanysContext&#45;&gt;RealStateHistoryContext</title>
<path fill="none" stroke="black" stroke-width="2" d="M1533.87,-153.71C1533.49,-135.44 1533.04,-113.8 1532.65,-95.02"/>
<text text-anchor="middle" x="1574.72" y="-119.18" font-family="sans-serif" font-size="12.00">Shared Kernel</text>
</g>
<!-- RealStateCompanysContext&#45;&gt;TransactionsContext -->
<g id="edge15" class="edge">
<title>RealStateCompanysContext&#45;&gt;TransactionsContext</title>
<path fill="none" stroke="black" stroke-width="2" d="M1629.66,-156.76C1684.37,-135.11 1752.83,-108.01 1807.14,-86.52"/>
<text text-anchor="middle" x="1769.72" y="-119.18" font-family="sans-serif" font-size="12.00">Shared Kernel</text>
</g>
</g>
</svg>
