<svg width="2000px" height="607px"
 viewBox="0.00 0.00 1312.41 397.89" xmlns="http://www.w3.org/2000/svg" xmlns:xlink="http://www.w3.org/1999/xlink">
<g id="graph0" class="graph" transform="scale(1.0 1.0) rotate(0) translate(4 393.89)">
<title>ContextMapGraph</title>
<polygon fill="white" stroke="transparent" points="-4,4 -4,-393.89 1308.41,-393.89 1308.41,4 -4,4"/>
<!-- CustomerServiceContext -->
<g id="node1" class="node">
<title>CustomerServiceContext</title>
<polygon fill="none" stroke="black" stroke-width="2" points="158.23,-384.39 146.98,-383.96 135.88,-383.4 124.97,-382.73 114.31,-381.95 103.93,-381.06 93.87,-380.06 84.17,-378.95 74.88,-377.74 66.02,-376.44 57.63,-375.04 49.73,-373.55 42.36,-371.98 35.54,-370.32 29.28,-368.59 23.61,-366.78 18.54,-364.9 14.07,-362.97 10.22,-360.97 6.99,-358.93 4.39,-356.83 2.4,-354.7 1.02,-352.53 0.26,-350.33 0.09,-348.11 0.5,-345.87 1.47,-343.62 3,-341.36 5.05,-339.1 7.61,-336.85 10.66,-334.61 14.17,-332.39 18.11,-330.19 22.47,-328.02 27.2,-325.88 32.3,-323.79 37.72,-321.74 43.45,-319.74 49.45,-317.8 55.71,-315.92 62.19,-314.11 68.87,-312.37 75.73,-310.7 82.75,-309.12 89.91,-307.62 97.18,-306.21 104.55,-304.9 112,-303.68 119.51,-302.56 127.08,-301.54 134.69,-300.63 142.32,-299.83 149.97,-299.14 157.63,-298.57 165.28,-298.11 172.93,-297.77 180.56,-297.54 188.18,-297.44 195.76,-297.45 203.32,-297.58 210.84,-297.83 218.32,-298.21 225.76,-298.7 233.14,-299.3 240.47,-300.03 247.73,-300.86 254.93,-301.81 262.04,-302.87 269.07,-304.04 276,-305.31 282.83,-306.68 289.53,-308.15 296.1,-309.71 302.52,-311.36 308.78,-313.1 314.86,-314.91 320.73,-316.8 326.39,-318.76 331.8,-320.78 336.96,-322.86 341.83,-324.99 346.4,-327.17 350.63,-329.39 354.52,-331.64 358.03,-333.92 361.14,-336.23 363.83,-338.54 366.07,-340.87 367.85,-343.19 369.14,-345.51 369.93,-347.82 370.19,-350.11 369.91,-352.37 369.08,-354.6 367.68,-356.8 365.7,-358.95 363.14,-361.05 360,-363.09 356.26,-365.07 351.93,-366.99 347.02,-368.83 341.52,-370.59 335.46,-372.27 328.84,-373.86 321.69,-375.36 314.02,-376.76 305.85,-378.06 297.2,-379.26 288.12,-380.35 278.63,-381.33 268.76,-382.2 258.54,-382.95 248.03,-383.59 237.26,-384.11 226.26,-384.51 215.09,-384.79 203.79,-384.96 192.41,-385 180.99,-384.91 169.58,-384.71 158.23,-384.39"/>
<text text-anchor="middle" x="187.41" y="-337.36" font-family="sans-serif" font-size="16.00">CustomerServiceContext</text>
</g>
<!-- UserContext -->
<g id="node2" class="node">
<title>UserContext</title>
<polygon fill="none" stroke="black" stroke-width="2" points="675.51,-209.59 673.36,-212.3 670.96,-214.95 668.32,-217.53 665.44,-220.03 662.34,-222.44 659.03,-224.76 655.51,-226.96 651.8,-229.05 647.91,-231.02 643.85,-232.85 639.63,-234.54 635.27,-236.09 630.78,-237.49 626.17,-238.74 621.45,-239.83 616.64,-240.76 611.75,-241.53 606.79,-242.14 601.77,-242.58 596.71,-242.86 591.62,-242.98 586.51,-242.95 581.39,-242.76 576.28,-242.41 571.19,-241.92 566.13,-241.29 561.11,-240.52 556.15,-239.63 551.25,-238.6 546.42,-237.46 541.69,-236.21 537.05,-234.85 532.52,-233.4 528.1,-231.86 523.82,-230.23 519.68,-228.54 515.68,-226.78 511.84,-224.96 508.17,-223.08 504.68,-221.17 501.37,-219.21 498.25,-217.23 495.34,-215.22 492.63,-213.19 490.14,-211.15 487.88,-209.09 485.84,-207.04 484.04,-204.99 482.48,-202.94 481.17,-200.9 480.12,-198.88 479.31,-196.87 478.78,-194.87 478.5,-192.9 478.49,-190.95 478.75,-189.02 479.28,-187.12 480.09,-185.25 481.16,-183.4 482.5,-181.59 484.11,-179.8 485.99,-178.05 488.14,-176.33 490.54,-174.64 493.2,-172.99 496.11,-171.38 499.26,-169.8 502.65,-168.26 506.26,-166.77 510.1,-165.32 514.15,-163.92 518.39,-162.56 522.83,-161.26 527.44,-160.01 532.21,-158.83 537.14,-157.7 542.2,-156.64 547.38,-155.65 552.67,-154.74 558.06,-153.9 563.51,-153.15 569.03,-152.49 574.59,-151.92 580.17,-151.44 585.76,-151.07 591.34,-150.81 596.9,-150.66 602.41,-150.62 607.85,-150.7 613.22,-150.91 618.5,-151.24 623.66,-151.7 628.69,-152.29 633.57,-153.02 638.3,-153.88 642.85,-154.88 647.21,-156.01 651.37,-157.28 655.32,-158.68 659.03,-160.21 662.51,-161.88 665.74,-163.67 668.71,-165.58 671.42,-167.61 673.85,-169.75 676,-171.99 677.87,-174.34 679.45,-176.77 680.73,-179.29 681.72,-181.88 682.41,-184.54 682.81,-187.25 682.9,-190 682.7,-192.79 682.21,-195.6 681.43,-198.42 680.36,-201.25 679.02,-204.06 677.4,-206.84 675.51,-209.59"/>
<text text-anchor="middle" x="579.41" y="-191.09" font-family="sans-serif" font-size="16.00">UserContext</text>
</g>
<!-- CustomerServiceContext&#45;&gt;UserContext -->
<g id="edge1" class="edge">
<title>CustomerServiceContext&#45;&gt;UserContext</title>
<path fill="none" stroke="black" stroke-width="2" d="M280.31,-305.97C349.71,-280.43 443.2,-246.02 507.08,-222.51"/>
<text text-anchor="middle" x="470.91" y="-264.84" font-family="sans-serif" font-size="12.00"> &#160;&#160;&#160;&#160;&#160;&#160;&#160;&#160;&#160;&#160;&#160;&#160;&#160;&#160;&#160;&#160;&#160;&#160;&#160;&#160;&#160;&#160;&#160;&#160;&#160;&#160;&#160;&#160;&#160;&#160;&#160;&#160;&#160;&#160;&#160;&#160;&#160;&#160;&#160;</text>
<polygon fill="white" stroke="transparent" points="500.08,-213.51 500.08,-230.51 514.08,-230.51 514.08,-213.51 500.08,-213.51"/>
<text text-anchor="start" x="502.08" y="-218.91" font-family="sans-serif" font-size="12.00">D</text>
<polygon fill="white" stroke="transparent" points="273.31,-296.97 273.31,-313.97 287.31,-313.97 287.31,-296.97 273.31,-296.97"/>
<text text-anchor="start" x="275.31" y="-302.37" font-family="sans-serif" font-size="12.00">U</text>
</g>
<!-- LoginContext -->
<g id="node3" class="node">
<title>LoginContext</title>
<polygon fill="none" stroke="black" stroke-width="2" points="487.48,-71.61 483.73,-69.17 480.26,-66.68 477.08,-64.16 474.21,-61.61 471.65,-59.04 469.43,-56.46 467.54,-53.88 466.01,-51.31 464.84,-48.75 464.03,-46.23 463.59,-43.74 463.52,-41.29 463.82,-38.9 464.5,-36.56 465.55,-34.28 466.97,-32.08 468.75,-29.95 470.88,-27.9 473.36,-25.93 476.19,-24.05 479.33,-22.27 482.8,-20.57 486.56,-18.98 490.6,-17.48 494.92,-16.08 499.49,-14.78 504.29,-13.58 509.31,-12.48 514.52,-11.49 519.91,-10.59 525.45,-9.8 531.12,-9.1 536.91,-8.5 542.79,-7.99 548.73,-7.59 554.73,-7.27 560.75,-7.05 566.78,-6.91 572.8,-6.87 578.79,-6.91 584.72,-7.04 590.59,-7.25 596.37,-7.54 602.04,-7.92 607.6,-8.38 613.03,-8.92 618.31,-9.54 623.43,-10.24 628.38,-11.01 633.15,-11.86 637.72,-12.79 642.1,-13.8 646.27,-14.88 650.22,-16.04 653.96,-17.28 657.47,-18.59 660.75,-19.97 663.81,-21.43 666.62,-22.96 669.2,-24.56 671.55,-26.23 673.65,-27.98 675.52,-29.79 677.15,-31.66 678.54,-33.6 679.7,-35.6 680.62,-37.66 681.31,-39.77 681.76,-41.94 681.99,-44.14 681.98,-46.39 681.75,-48.68 681.3,-50.99 680.62,-53.33 679.72,-55.69 678.61,-58.05 677.27,-60.42 675.72,-62.79 673.95,-65.15 671.98,-67.49 669.79,-69.79 667.4,-72.07 664.8,-74.3 661.99,-76.47 658.99,-78.58 655.79,-80.62 652.39,-82.59 648.8,-84.46 645.03,-86.24 641.07,-87.91 636.93,-89.47 632.63,-90.91 628.15,-92.22 623.52,-93.4 618.73,-94.44 613.81,-95.34 608.74,-96.08 603.56,-96.68 598.26,-97.11 592.86,-97.39 587.36,-97.5 581.8,-97.45 576.17,-97.24 570.49,-96.86 564.78,-96.32 559.06,-95.62 553.33,-94.76 547.63,-93.74 541.96,-92.58 536.35,-91.27 530.81,-89.81 525.37,-88.23 520.04,-86.51 514.84,-84.68 509.79,-82.73 504.91,-80.68 500.22,-78.53 495.74,-76.3 491.49,-73.99 487.48,-71.61"/>
<text text-anchor="middle" x="579.41" y="-44.87" font-family="sans-serif" font-size="16.00">LoginContext</text>
</g>
<!-- UserContext&#45;&gt;LoginContext -->
<g id="edge2" class="edge">
<title>UserContext&#45;&gt;LoginContext</title>
<path fill="none" stroke="black" stroke-width="2" d="M579.41,-151.4C579.41,-134.45 579.41,-114.85 579.41,-97.41"/>
<text text-anchor="middle" x="621.41" y="-118.73" font-family="sans-serif" font-size="12.00">Shared Kernel</text>
</g>
<!-- DigitalSignatureContext -->
<g id="node4" class="node">
<title>DigitalSignatureContext</title>
<polygon fill="none" stroke="black" stroke-width="2" points="529.3,-299.18 539.72,-298.29 550.22,-297.51 560.76,-296.86 571.28,-296.34 581.75,-295.94 592.13,-295.68 602.39,-295.56 612.47,-295.57 622.35,-295.72 631.99,-296.01 641.36,-296.44 650.44,-297 659.18,-297.7 667.58,-298.53 675.59,-299.5 683.21,-300.59 690.42,-301.81 697.19,-303.15 703.53,-304.61 709.41,-306.18 714.82,-307.86 719.78,-309.64 724.26,-311.52 728.27,-313.49 731.82,-315.54 734.89,-317.66 737.51,-319.85 739.67,-322.11 741.39,-324.41 742.67,-326.76 743.52,-329.15 743.96,-331.57 744,-334.01 743.64,-336.46 742.91,-338.92 741.81,-341.37 740.37,-343.81 738.59,-346.24 736.48,-348.63 734.07,-350.99 731.35,-353.32 728.35,-355.59 725.07,-357.81 721.53,-359.97 717.74,-362.06 713.7,-364.08 709.42,-366.03 704.91,-367.89 700.17,-369.66 695.22,-371.35 690.05,-372.94 684.68,-374.43 679.1,-375.82 673.32,-377.11 667.35,-378.29 661.18,-379.37 654.82,-380.33 648.28,-381.19 641.56,-381.94 634.66,-382.58 627.58,-383.1 620.34,-383.51 612.94,-383.82 605.39,-384.01 597.69,-384.09 589.86,-384.07 581.9,-383.94 573.83,-383.7 565.67,-383.36 557.42,-382.92 549.11,-382.37 540.75,-381.73 532.36,-380.99 523.97,-380.16 515.59,-379.23 507.26,-378.22 499,-377.12 490.83,-375.93 482.78,-374.66 474.88,-373.31 467.17,-371.89 459.67,-370.39 452.41,-368.82 445.43,-367.19 438.75,-365.49 432.41,-363.73 426.44,-361.91 420.87,-360.03 415.72,-358.11 411.04,-356.13 406.83,-354.12 403.13,-352.06 399.96,-349.97 397.35,-347.85 395.3,-345.7 393.85,-343.53 393,-341.35 392.77,-339.15 393.16,-336.94 394.18,-334.73 395.84,-332.53 398.12,-330.33 401.04,-328.15 404.58,-325.99 408.74,-323.86 413.49,-321.76 418.83,-319.7 424.74,-317.68 431.19,-315.72 438.15,-313.81 445.61,-311.97 453.54,-310.19 461.89,-308.49 470.64,-306.87 479.74,-305.34 489.17,-303.9 498.88,-302.56 508.83,-301.33 518.99,-300.2 529.3,-299.18"/>
<text text-anchor="middle" x="579.41" y="-337.36" font-family="sans-serif" font-size="16.00">DigitalSignatureContext</text>
</g>
<!-- DigitalSignatureContext&#45;&gt;UserContext -->
<g id="edge3" class="edge">
<title>DigitalSignatureContext&#45;&gt;UserContext</title>
<path fill="none" stroke="black" stroke-width="2" d="M579.41,-295.7C579.41,-278.89 579.41,-259.72 579.41,-242.7"/>
<text text-anchor="middle" x="654.91" y="-264.84" font-family="sans-serif" font-size="12.00"> &#160;&#160;&#160;&#160;&#160;&#160;&#160;&#160;&#160;&#160;&#160;&#160;&#160;&#160;&#160;&#160;&#160;&#160;&#160;&#160;&#160;&#160;&#160;&#160;&#160;&#160;&#160;&#160;&#160;&#160;&#160;&#160;&#160;&#160;&#160;&#160;&#160;&#160;&#160;</text>
<polygon fill="white" stroke="transparent" points="572.41,-233.7 572.41,-250.7 586.41,-250.7 586.41,-233.7 572.41,-233.7"/>
<text text-anchor="start" x="574.41" y="-239.1" font-family="sans-serif" font-size="12.00">D</text>
<polygon fill="white" stroke="transparent" points="572.41,-286.7 572.41,-303.7 586.41,-303.7 586.41,-286.7 572.41,-286.7"/>
<text text-anchor="start" x="574.41" y="-292.1" font-family="sans-serif" font-size="12.00">U</text>
</g>
<!-- PropertyContext -->
<g id="node5" class="node">
<title>PropertyContext</title>
<polygon fill="none" stroke="black" stroke-width="2" points="1030.9,-329.48 1033.16,-332.25 1035.08,-335.03 1036.64,-337.82 1037.84,-340.6 1038.68,-343.36 1039.14,-346.1 1039.22,-348.79 1038.92,-351.44 1038.25,-354.03 1037.19,-356.55 1035.74,-359 1033.93,-361.36 1031.73,-363.63 1029.17,-365.8 1026.25,-367.87 1022.97,-369.84 1019.35,-371.69 1015.4,-373.42 1011.13,-375.03 1006.55,-376.52 1001.69,-377.88 996.55,-379.12 991.15,-380.23 985.51,-381.22 979.65,-382.07 973.59,-382.81 967.35,-383.42 960.95,-383.91 954.41,-384.28 947.76,-384.53 941.01,-384.67 934.19,-384.7 927.32,-384.63 920.43,-384.45 913.53,-384.17 906.65,-383.79 899.82,-383.33 893.04,-382.78 886.35,-382.14 879.76,-381.42 873.29,-380.63 866.96,-379.76 860.8,-378.82 854.81,-377.82 849.02,-376.75 843.43,-375.62 838.07,-374.43 832.94,-373.18 828.07,-371.87 823.46,-370.51 819.11,-369.1 815.05,-367.64 811.28,-366.12 807.8,-364.56 804.62,-362.95 801.75,-361.29 799.19,-359.59 796.94,-357.84 795.01,-356.05 793.4,-354.22 792.1,-352.34 791.12,-350.43 790.46,-348.47 790.11,-346.48 790.07,-344.46 790.34,-342.4 790.92,-340.32 791.79,-338.21 792.96,-336.08 794.43,-333.93 796.17,-331.76 798.19,-329.59 800.49,-327.42 803.05,-325.24 805.87,-323.08 808.94,-320.92 812.26,-318.79 815.81,-316.69 819.59,-314.62 823.58,-312.59 827.79,-310.62 832.2,-308.7 836.81,-306.85 841.59,-305.08 846.55,-303.38 851.68,-301.78 856.95,-300.28 862.37,-298.88 867.93,-297.59 873.6,-296.43 879.39,-295.4 885.27,-294.5 891.24,-293.74 897.28,-293.13 903.38,-292.67 909.52,-292.36 915.7,-292.22 921.9,-292.23 928.1,-292.41 934.29,-292.76 940.45,-293.27 946.57,-293.95 952.64,-294.79 958.63,-295.79 964.52,-296.96 970.31,-298.28 975.98,-299.76 981.5,-301.38 986.87,-303.14 992.06,-305.03 997.07,-307.06 1001.86,-309.2 1006.43,-311.45 1010.76,-313.81 1014.84,-316.25 1018.65,-318.78 1022.17,-321.37 1025.39,-324.03 1028.31,-326.73 1030.9,-329.48"/>
<text text-anchor="middle" x="911.41" y="-337.36" font-family="sans-serif" font-size="16.00">PropertyContext</text>
</g>
<!-- PropertyContext&#45;&gt;UserContext -->
<g id="edge5" class="edge">
<title>PropertyContext&#45;&gt;UserContext</title>
<path fill="none" stroke="black" stroke-width="2" d="M837.05,-306.73C805.47,-292.62 768.2,-276.1 734.41,-261.44 719,-254.76 686.16,-240.85 654.65,-227.56"/>
<text text-anchor="middle" x="806.41" y="-264.84" font-family="sans-serif" font-size="12.00">Shared Kernel</text>
</g>
<!-- RealStateCompanysContext -->
<g id="node6" class="node">
<title>RealStateCompanysContext</title>
<polygon fill="none" stroke="black" stroke-width="2" points="1068.18,-170.7 1075.21,-173.08 1081.75,-175.51 1087.78,-177.98 1093.27,-180.48 1098.19,-183.01 1102.53,-185.55 1106.26,-188.1 1109.37,-190.64 1111.84,-193.17 1113.66,-195.67 1114.82,-198.15 1115.32,-200.59 1115.14,-202.98 1114.29,-205.32 1112.77,-207.61 1110.59,-209.83 1107.75,-211.97 1104.27,-214.05 1100.16,-216.05 1095.44,-217.96 1090.12,-219.78 1084.23,-221.52 1077.79,-223.17 1070.83,-224.72 1063.38,-226.18 1055.46,-227.54 1047.12,-228.8 1038.38,-229.96 1029.27,-231.03 1019.84,-232 1010.13,-232.87 1000.16,-233.65 989.97,-234.33 979.61,-234.92 969.12,-235.41 958.52,-235.81 947.86,-236.12 937.17,-236.34 926.49,-236.47 915.85,-236.51 905.3,-236.47 894.85,-236.34 884.54,-236.13 874.4,-235.83 864.46,-235.46 854.75,-235 845.28,-234.45 836.08,-233.83 827.18,-233.13 818.58,-232.35 810.32,-231.49 802.39,-230.54 794.82,-229.52 787.63,-228.43 780.8,-227.25 774.37,-225.99 768.33,-224.66 762.69,-223.25 757.46,-221.76 752.64,-220.2 748.22,-218.57 744.22,-216.86 740.63,-215.08 737.45,-213.23 734.68,-211.32 732.33,-209.34 730.38,-207.3 728.84,-205.21 727.7,-203.06 726.97,-200.86 726.64,-198.62 726.7,-196.34 727.15,-194.02 728,-191.68 729.24,-189.32 730.87,-186.94 732.88,-184.56 735.28,-182.18 738.05,-179.8 741.21,-177.44 744.74,-175.11 748.65,-172.81 752.93,-170.55 757.58,-168.34 762.59,-166.19 767.97,-164.11 773.7,-162.11 779.79,-160.19 786.22,-158.36 793,-156.64 800.1,-155.03 807.54,-153.53 815.28,-152.16 823.33,-150.91 831.67,-149.81 840.28,-148.84 849.16,-148.03 858.28,-147.36 867.62,-146.85 877.17,-146.5 886.9,-146.31 896.8,-146.28 906.83,-146.41 916.96,-146.71 927.18,-147.17 937.45,-147.79 947.75,-148.56 958.03,-149.49 968.27,-150.57 978.43,-151.8 988.48,-153.17 998.39,-154.67 1008.12,-156.31 1017.63,-158.06 1026.89,-159.93 1035.86,-161.91 1044.51,-163.98 1052.8,-166.15 1060.7,-168.39 1068.18,-170.7"/>
<text text-anchor="middle" x="908.41" y="-191.09" font-family="sans-serif" font-size="16.00">RealStateCompanysContext</text>
</g>
<!-- PropertyContext&#45;&gt;RealStateCompanysContext -->
<g id="edge4" class="edge">
<title>PropertyContext&#45;&gt;RealStateCompanysContext</title>
<path fill="none" stroke="black" stroke-width="2" d="M910.42,-292.12C910.04,-274.09 909.62,-253.78 909.26,-236.49"/>
<text text-anchor="middle" x="951.41" y="-264.84" font-family="sans-serif" font-size="12.00">Shared Kernel</text>
</g>
<!-- TransactionsContext -->
<g id="node7" class="node">
<title>TransactionsContext</title>
<polygon fill="none" stroke="black" stroke-width="2" points="1131.08,-11.94 1139.17,-13.5 1146.99,-15.15 1154.51,-16.89 1161.68,-18.71 1168.48,-20.6 1174.89,-22.55 1180.87,-24.57 1186.4,-26.63 1191.47,-28.75 1196.04,-30.9 1200.1,-33.08 1203.65,-35.28 1206.65,-37.51 1209.12,-39.75 1211.03,-41.99 1212.39,-44.24 1213.19,-46.48 1213.44,-48.71 1213.14,-50.92 1212.29,-53.11 1210.91,-55.28 1209.01,-57.42 1206.59,-59.51 1203.69,-61.58 1200.31,-63.59 1196.48,-65.56 1192.21,-67.48 1187.53,-69.34 1182.48,-71.15 1177.06,-72.89 1171.31,-74.58 1165.25,-76.19 1158.92,-77.74 1152.34,-79.21 1145.54,-80.61 1138.54,-81.94 1131.39,-83.19 1124.09,-84.35 1116.69,-85.44 1109.2,-86.43 1101.66,-87.35 1094.08,-88.17 1086.49,-88.9 1078.91,-89.54 1071.36,-90.09 1063.87,-90.54 1056.44,-90.89 1049.1,-91.15 1041.87,-91.3 1034.75,-91.35 1027.75,-91.3 1020.9,-91.15 1014.2,-90.89 1007.65,-90.52 1001.27,-90.05 995.06,-89.47 989.04,-88.78 983.19,-87.99 977.53,-87.09 972.06,-86.08 966.79,-84.97 961.72,-83.75 956.84,-82.43 952.17,-81.02 947.7,-79.5 943.44,-77.88 939.39,-76.18 935.55,-74.38 931.93,-72.5 928.53,-70.54 925.36,-68.5 922.41,-66.38 919.71,-64.21 917.24,-61.97 915.03,-59.67 913.07,-57.33 911.38,-54.95 909.95,-52.53 908.81,-50.09 907.96,-47.63 907.41,-45.16 907.17,-42.68 907.25,-40.21 907.66,-37.75 908.4,-35.31 909.49,-32.91 910.93,-30.54 912.74,-28.22 914.91,-25.96 917.46,-23.75 920.39,-21.62 923.7,-19.57 927.39,-17.6 931.48,-15.73 935.94,-13.96 940.79,-12.29 946.02,-10.74 951.62,-9.3 957.58,-7.99 963.89,-6.8 970.54,-5.75 977.52,-4.83 984.81,-4.05 992.39,-3.41 1000.24,-2.91 1008.33,-2.56 1016.65,-2.35 1025.16,-2.28 1033.84,-2.35 1042.66,-2.57 1051.58,-2.93 1060.58,-3.43 1069.62,-4.06 1078.66,-4.82 1087.68,-5.71 1096.63,-6.73 1105.48,-7.86 1114.2,-9.11 1122.74,-10.47 1131.08,-11.94"/>
<text text-anchor="middle" x="1049.41" y="-44.87" font-family="sans-serif" font-size="16.00">TransactionsContext</text>
</g>
<!-- PropertyContext&#45;&gt;TransactionsContext -->
<g id="edge6" class="edge">
<title>PropertyContext&#45;&gt;TransactionsContext</title>
<path fill="none" stroke="black" stroke-width="2" d="M1015.43,-316.63C1055.71,-302.21 1098.33,-279.33 1124.41,-243.44 1158.06,-197.15 1163.07,-166.49 1137.41,-115.33 1131.77,-104.09 1123.19,-94.28 1113.56,-85.91"/>
<text text-anchor="middle" x="1228.91" y="-191.79" font-family="sans-serif" font-size="12.00"> &#160;&#160;&#160;&#160;&#160;&#160;&#160;&#160;&#160;&#160;&#160;&#160;&#160;&#160;&#160;&#160;&#160;&#160;&#160;&#160;&#160;&#160;&#160;&#160;&#160;&#160;&#160;&#160;&#160;&#160;&#160;&#160;&#160;&#160;&#160;&#160;&#160;&#160;&#160;</text>
<polygon fill="white" stroke="transparent" points="1106.56,-76.91 1106.56,-93.91 1120.56,-93.91 1120.56,-76.91 1106.56,-76.91"/>
<text text-anchor="start" x="1108.56" y="-82.31" font-family="sans-serif" font-size="12.00">D</text>
<polygon fill="white" stroke="transparent" points="1008.43,-307.63 1008.43,-324.63 1022.43,-324.63 1022.43,-307.63 1008.43,-307.63"/>
<text text-anchor="start" x="1010.43" y="-313.03" font-family="sans-serif" font-size="12.00">U</text>
</g>
<!-- RealStateCompanysContext&#45;&gt;TransactionsContext -->
<g id="edge7" class="edge">
<title>RealStateCompanysContext&#45;&gt;TransactionsContext</title>
<path fill="none" stroke="black" stroke-width="2" d="M952.64,-148.65C970.73,-130.15 991.52,-108.89 1009.17,-90.83"/>
<text text-anchor="middle" x="1057.91" y="-118.73" font-family="sans-serif" font-size="12.00"> &#160;&#160;&#160;&#160;&#160;&#160;&#160;&#160;&#160;&#160;&#160;&#160;&#160;&#160;&#160;&#160;&#160;&#160;&#160;&#160;&#160;&#160;&#160;&#160;&#160;&#160;&#160;&#160;&#160;&#160;&#160;&#160;&#160;&#160;&#160;&#160;&#160;&#160;&#160;</text>
<polygon fill="white" stroke="transparent" points="1002.17,-81.83 1002.17,-98.83 1016.17,-98.83 1016.17,-81.83 1002.17,-81.83"/>
<text text-anchor="start" x="1004.17" y="-87.23" font-family="sans-serif" font-size="12.00">D</text>
<polygon fill="white" stroke="transparent" points="945.64,-139.65 945.64,-156.65 959.64,-156.65 959.64,-139.65 945.64,-139.65"/>
<text text-anchor="start" x="947.64" y="-145.05" font-family="sans-serif" font-size="12.00">U</text>
</g>
</g>
</svg>
