<svg width="2000px" height="615px"
 viewBox="0.00 0.00 1291.72 396.82" xmlns="http://www.w3.org/2000/svg" xmlns:xlink="http://www.w3.org/1999/xlink">
<g id="graph0" class="graph" transform="scale(1.0 1.0) rotate(0) translate(4 392.82)">
<title>ContextMapGraph</title>
<polygon fill="white" stroke="transparent" points="-4,4 -4,-392.82 1287.72,-392.82 1287.72,4 -4,4"/>
<!-- CustomerServiceContext -->
<g id="node1" class="node">
<title>CustomerServiceContext</title>
<polygon fill="none" stroke="black" stroke-width="2" points="49.41,-312.67 56.4,-310.41 63.72,-308.24 71.35,-306.17 79.25,-304.2 87.4,-302.35 95.76,-300.63 104.32,-299.03 113.03,-297.57 121.87,-296.26 130.82,-295.09 139.84,-294.08 148.9,-293.22 157.98,-292.52 167.06,-291.99 176.11,-291.62 185.09,-291.41 194.01,-291.37 202.82,-291.48 211.51,-291.77 220.06,-292.21 228.45,-292.8 236.67,-293.55 244.69,-294.44 252.51,-295.48 260.11,-296.66 267.48,-297.96 274.59,-299.39 281.46,-300.93 288.05,-302.58 294.37,-304.34 300.41,-306.18 306.15,-308.12 311.59,-310.12 316.72,-312.2 321.54,-314.33 326.04,-316.51 330.22,-318.74 334.06,-321 337.56,-323.28 340.73,-325.58 343.54,-327.89 346,-330.21 348.11,-332.52 349.85,-334.81 351.22,-337.09 352.22,-339.35 352.85,-341.57 353.1,-343.77 352.96,-345.92 352.43,-348.03 351.51,-350.1 350.19,-352.11 348.47,-354.07 346.35,-355.98 343.84,-357.82 340.91,-359.61 337.58,-361.33 333.85,-362.99 329.72,-364.59 325.19,-366.12 320.26,-367.58 314.94,-368.98 309.24,-370.31 303.17,-371.57 296.72,-372.76 289.92,-373.88 282.78,-374.93 275.3,-375.91 267.52,-376.82 259.43,-377.65 251.06,-378.42 242.44,-379.1 233.57,-379.72 224.5,-380.25 215.23,-380.71 205.8,-381.09 196.24,-381.38 186.57,-381.59 176.83,-381.72 167.04,-381.76 157.23,-381.71 147.45,-381.56 137.72,-381.33 128.08,-380.99 118.55,-380.56 109.19,-380.03 100,-379.4 91.05,-378.67 82.34,-377.83 73.93,-376.88 65.83,-375.83 58.08,-374.68 50.72,-373.41 43.76,-372.04 37.23,-370.57 31.17,-368.99 25.58,-367.31 20.5,-365.53 15.94,-363.65 11.93,-361.68 8.46,-359.62 5.56,-357.48 3.24,-355.26 1.49,-352.96 0.34,-350.59 -0.22,-348.17 -0.2,-345.69 0.41,-343.17 1.61,-340.61 3.37,-338.02 5.71,-335.41 8.59,-332.79 12.01,-330.17 15.95,-327.56 20.4,-324.97 25.33,-322.41 30.72,-319.89 36.54,-317.42 42.78,-315.01 49.41,-312.67"/>
<text text-anchor="middle" x="185.72" y="-336.2" font-family="sans-serif" font-size="16.00">CustomerServiceContext</text>
</g>
<!-- UserContext -->
<g id="node2" class="node">
<title>UserContext</title>
<polygon fill="none" stroke="black" stroke-width="2" points="623.02,-228.63 617.86,-230.45 612.55,-232.15 607.12,-233.75 601.59,-235.22 595.98,-236.57 590.31,-237.79 584.6,-238.86 578.88,-239.8 573.15,-240.58 567.45,-241.22 561.78,-241.7 556.17,-242.02 550.63,-242.19 545.18,-242.2 539.84,-242.05 534.61,-241.74 529.51,-241.28 524.56,-240.67 519.75,-239.9 515.12,-238.98 510.65,-237.93 506.36,-236.73 502.26,-235.4 498.35,-233.94 494.64,-232.36 491.13,-230.67 487.83,-228.87 484.73,-226.97 481.84,-224.98 479.16,-222.91 476.69,-220.76 474.43,-218.54 472.39,-216.27 470.55,-213.95 468.92,-211.59 467.5,-209.2 466.29,-206.79 465.29,-204.36 464.49,-201.93 463.9,-199.5 463.51,-197.08 463.32,-194.67 463.33,-192.3 463.54,-189.95 463.95,-187.64 464.57,-185.38 465.38,-183.16 466.39,-181.01 467.6,-178.91 469,-176.87 470.61,-174.9 472.42,-173.01 474.42,-171.19 476.63,-169.44 479.03,-167.78 481.63,-166.2 484.43,-164.7 487.42,-163.29 490.61,-161.96 494,-160.72 497.57,-159.57 501.33,-158.5 505.27,-157.53 509.39,-156.64 513.69,-155.84 518.15,-155.13 522.77,-154.5 527.54,-153.97 532.45,-153.52 537.49,-153.16 542.65,-152.89 547.93,-152.7 553.3,-152.61 558.74,-152.6 564.26,-152.68 569.83,-152.84 575.43,-153.09 581.04,-153.43 586.66,-153.86 592.25,-154.38 597.81,-154.99 603.31,-155.68 608.72,-156.46 614.04,-157.33 619.24,-158.29 624.3,-159.34 629.19,-160.48 633.91,-161.71 638.42,-163.02 642.72,-164.42 646.78,-165.91 650.59,-167.48 654.12,-169.13 657.36,-170.87 660.31,-172.68 662.93,-174.57 665.23,-176.53 667.19,-178.55 668.81,-180.65 670.06,-182.8 670.96,-185.02 671.48,-187.28 671.64,-189.58 671.43,-191.93 670.85,-194.31 669.9,-196.71 668.58,-199.14 666.91,-201.57 664.89,-204.01 662.52,-206.44 659.83,-208.86 656.81,-211.26 653.49,-213.63 649.88,-215.96 645.99,-218.24 641.84,-220.47 637.45,-222.63 632.84,-224.71 628.02,-226.72 623.02,-228.63"/>
<text text-anchor="middle" x="559.72" y="-190.37" font-family="sans-serif" font-size="16.00">UserContext</text>
</g>
<!-- CustomerServiceContext&#45;&gt;UserContext -->
<g id="edge1" class="edge">
<title>CustomerServiceContext&#45;&gt;UserContext</title>
<path fill="none" stroke="black" stroke-width="2" d="M283.5,-301.4C345.4,-277.59 424.34,-247.24 481.96,-225.08"/>
<text text-anchor="middle" x="460.22" y="-263.58" font-family="sans-serif" font-size="12.00"> &#160;&#160;&#160;&#160;&#160;&#160;&#160;&#160;&#160;&#160;&#160;&#160;&#160;&#160;&#160;&#160;&#160;&#160;&#160;&#160;&#160;&#160;&#160;&#160;&#160;&#160;&#160;&#160;&#160;&#160;&#160;&#160;&#160;&#160;&#160;&#160;&#160;&#160;&#160;</text>
<polygon fill="white" stroke="transparent" points="474.96,-216.08 474.96,-233.08 488.96,-233.08 488.96,-216.08 474.96,-216.08"/>
<text text-anchor="start" x="476.96" y="-221.48" font-family="sans-serif" font-size="12.00">D</text>
<polygon fill="white" stroke="transparent" points="276.5,-292.4 276.5,-309.4 290.5,-309.4 290.5,-292.4 276.5,-292.4"/>
<text text-anchor="start" x="278.5" y="-297.8" font-family="sans-serif" font-size="12.00">U</text>
</g>
<!-- LoginContext -->
<g id="node3" class="node">
<title>LoginContext</title>
<polygon fill="none" stroke="black" stroke-width="2" points="460.84,-30.93 463.58,-28.28 466.57,-25.69 469.8,-23.18 473.27,-20.76 476.95,-18.43 480.85,-16.21 484.94,-14.1 489.22,-12.12 493.66,-10.27 498.26,-8.55 503,-6.98 507.87,-5.55 512.85,-4.28 517.93,-3.17 523.09,-2.22 528.33,-1.43 533.63,-0.81 538.97,-0.35 544.34,-0.05 549.73,0.08 555.12,0.05 560.51,-0.14 565.87,-0.49 571.21,-0.99 576.5,-1.63 581.73,-2.42 586.89,-3.34 591.98,-4.39 596.97,-5.56 601.87,-6.86 606.65,-8.25 611.31,-9.75 615.85,-11.35 620.24,-13.03 624.48,-14.78 628.56,-16.61 632.47,-18.5 636.21,-20.44 639.76,-22.43 643.12,-24.46 646.27,-26.52 649.22,-28.61 651.95,-30.71 654.46,-32.83 656.74,-34.95 658.77,-37.08 660.57,-39.2 662.12,-41.31 663.41,-43.41 664.44,-45.5 665.21,-47.56 665.7,-49.6 665.93,-51.62 665.88,-53.61 665.55,-55.56 664.95,-57.49 664.06,-59.38 662.89,-61.24 661.44,-63.06 659.71,-64.84 657.7,-66.58 655.42,-68.28 652.86,-69.95 650.03,-71.57 646.94,-73.14 643.6,-74.67 640,-76.16 636.16,-77.6 632.08,-78.99 627.79,-80.33 623.27,-81.62 618.56,-82.85 613.66,-84.02 608.58,-85.13 603.33,-86.18 597.94,-87.16 592.42,-88.07 586.78,-88.91 581.03,-89.67 575.21,-90.34 569.32,-90.93 563.39,-91.43 557.42,-91.84 551.45,-92.14 545.48,-92.35 539.55,-92.44 533.66,-92.43 527.84,-92.3 522.11,-92.05 516.48,-91.69 510.97,-91.19 505.6,-90.58 500.4,-89.83 495.36,-88.96 490.53,-87.95 485.89,-86.81 481.49,-85.54 477.31,-84.15 473.39,-82.62 469.73,-80.97 466.35,-79.2 463.25,-77.3 460.44,-75.3 457.93,-73.18 455.74,-70.96 453.85,-68.64 452.28,-66.23 451.04,-63.74 450.12,-61.18 449.52,-58.55 449.25,-55.86 449.3,-53.13 449.67,-50.36 450.36,-47.57 451.36,-44.77 452.67,-41.96 454.28,-39.16 456.19,-36.38 458.38,-33.63 460.84,-30.93"/>
<text text-anchor="middle" x="559.72" y="-44.78" font-family="sans-serif" font-size="16.00">LoginContext</text>
</g>
<!-- UserContext&#45;&gt;LoginContext -->
<g id="edge2" class="edge">
<title>UserContext&#45;&gt;LoginContext</title>
<path fill="none" stroke="black" stroke-width="2" d="M559.72,-152.41C559.72,-133.42 559.72,-110.85 559.72,-91.69"/>
<text text-anchor="middle" x="635.22" y="-118.55" font-family="sans-serif" font-size="12.00"> &#160;&#160;&#160;&#160;&#160;&#160;&#160;&#160;&#160;&#160;&#160;&#160;&#160;&#160;&#160;&#160;&#160;&#160;&#160;&#160;&#160;&#160;&#160;&#160;&#160;&#160;&#160;&#160;&#160;&#160;&#160;&#160;&#160;&#160;&#160;&#160;&#160;&#160;&#160;</text>
<polygon fill="white" stroke="transparent" points="552.72,-82.69 552.72,-99.69 566.72,-99.69 566.72,-82.69 552.72,-82.69"/>
<text text-anchor="start" x="554.72" y="-88.09" font-family="sans-serif" font-size="12.00">D</text>
<polygon fill="white" stroke="transparent" points="552.72,-143.41 552.72,-160.41 566.72,-160.41 566.72,-143.41 552.72,-143.41"/>
<text text-anchor="start" x="554.72" y="-148.81" font-family="sans-serif" font-size="12.00">U</text>
</g>
<!-- DigitalSignatureContext -->
<g id="node4" class="node">
<title>DigitalSignatureContext</title>
<polygon fill="none" stroke="black" stroke-width="2" points="588.15,-296.5 599.07,-296.79 609.86,-297.2 620.49,-297.72 630.91,-298.36 641.08,-299.12 650.96,-299.98 660.51,-300.96 669.7,-302.04 678.48,-303.22 686.84,-304.51 694.74,-305.89 702.15,-307.36 709.05,-308.93 715.41,-310.57 721.24,-312.3 726.49,-314.1 731.18,-315.98 735.28,-317.92 738.8,-319.91 741.73,-321.97 744.07,-324.07 745.83,-326.21 747,-328.4 747.62,-330.61 747.67,-332.85 747.18,-335.11 746.17,-337.38 744.64,-339.66 742.63,-341.94 740.14,-344.21 737.21,-346.48 733.86,-348.72 730.1,-350.94 725.97,-353.14 721.49,-355.29 716.68,-357.41 711.57,-359.48 706.18,-361.49 700.54,-363.45 694.66,-365.34 688.58,-367.16 682.31,-368.91 675.87,-370.59 669.29,-372.18 662.57,-373.68 655.74,-375.09 648.82,-376.4 641.81,-377.61 634.73,-378.73 627.59,-379.73 620.41,-380.63 613.18,-381.42 605.93,-382.09 598.65,-382.65 591.36,-383.1 584.06,-383.42 576.75,-383.63 569.45,-383.71 562.15,-383.68 554.86,-383.53 547.59,-383.25 540.33,-382.86 533.11,-382.35 525.91,-381.73 518.75,-380.99 511.64,-380.14 504.58,-379.17 497.58,-378.1 490.65,-376.93 483.81,-375.65 477.06,-374.27 470.43,-372.8 463.92,-371.24 457.55,-369.59 451.34,-367.86 445.31,-366.06 439.47,-364.18 433.85,-362.23 428.48,-360.23 423.36,-358.16 418.53,-356.05 414,-353.89 409.81,-351.7 405.98,-349.47 402.52,-347.21 399.47,-344.94 396.85,-342.65 394.67,-340.35 392.96,-338.06 391.74,-335.77 391.03,-333.49 390.85,-331.23 391.2,-328.99 392.11,-326.78 393.58,-324.61 395.62,-322.48 398.24,-320.4 401.44,-318.38 405.22,-316.41 409.58,-314.51 414.52,-312.68 420.01,-310.93 426.06,-309.26 432.65,-307.67 439.75,-306.17 447.35,-304.76 455.43,-303.45 463.95,-302.25 472.89,-301.14 482.22,-300.15 491.9,-299.26 501.89,-298.48 512.15,-297.82 522.65,-297.28 533.34,-296.85 544.18,-296.54 555.13,-296.35 566.14,-296.28 577.16,-296.33 588.15,-296.5"/>
<text text-anchor="middle" x="568.72" y="-336.2" font-family="sans-serif" font-size="16.00">DigitalSignatureContext</text>
</g>
<!-- DigitalSignatureContext&#45;&gt;UserContext -->
<g id="edge3" class="edge">
<title>DigitalSignatureContext&#45;&gt;UserContext</title>
<path fill="none" stroke="black" stroke-width="2" d="M566.05,-296.24C564.98,-279.1 563.74,-259.29 562.64,-241.79"/>
<text text-anchor="middle" x="640.22" y="-263.58" font-family="sans-serif" font-size="12.00"> &#160;&#160;&#160;&#160;&#160;&#160;&#160;&#160;&#160;&#160;&#160;&#160;&#160;&#160;&#160;&#160;&#160;&#160;&#160;&#160;&#160;&#160;&#160;&#160;&#160;&#160;&#160;&#160;&#160;&#160;&#160;&#160;&#160;&#160;&#160;&#160;&#160;&#160;&#160;</text>
<polygon fill="white" stroke="transparent" points="555.64,-232.79 555.64,-249.79 569.64,-249.79 569.64,-232.79 555.64,-232.79"/>
<text text-anchor="start" x="557.64" y="-238.19" font-family="sans-serif" font-size="12.00">D</text>
<polygon fill="white" stroke="transparent" points="559.05,-287.24 559.05,-304.24 573.05,-304.24 573.05,-287.24 559.05,-287.24"/>
<text text-anchor="start" x="561.05" y="-292.64" font-family="sans-serif" font-size="12.00">U</text>
</g>
<!-- PropertyContext -->
<g id="node5" class="node">
<title>PropertyContext</title>
<polygon fill="none" stroke="black" stroke-width="2" points="1016.78,-355.45 1014.04,-358.15 1010.99,-360.78 1007.65,-363.35 1004.03,-365.83 1000.14,-368.23 996,-370.52 991.61,-372.7 987,-374.77 982.18,-376.7 977.15,-378.51 971.95,-380.17 966.57,-381.69 961.04,-383.06 955.38,-384.28 949.59,-385.33 943.7,-386.23 937.71,-386.96 931.65,-387.53 925.53,-387.94 919.37,-388.18 913.18,-388.27 906.97,-388.19 900.76,-387.96 894.57,-387.58 888.41,-387.05 882.29,-386.38 876.23,-385.58 870.24,-384.64 864.33,-383.58 858.52,-382.4 852.83,-381.11 847.26,-379.71 841.82,-378.22 836.54,-376.65 831.41,-374.99 826.46,-373.26 821.69,-371.46 817.12,-369.61 812.75,-367.71 808.6,-365.76 804.67,-363.78 800.98,-361.77 797.54,-359.73 794.35,-357.68 791.43,-355.62 788.77,-353.55 786.4,-351.47 784.31,-349.41 782.52,-347.34 781.03,-345.29 779.85,-343.25 778.97,-341.23 778.42,-339.23 778.18,-337.26 778.27,-335.3 778.68,-333.37 779.42,-331.47 780.49,-329.6 781.88,-327.76 783.6,-325.95 785.65,-324.18 788.02,-322.44 790.71,-320.73 793.72,-319.06 797.03,-317.42 800.64,-315.83 804.55,-314.27 808.74,-312.76 813.21,-311.29 817.95,-309.87 822.93,-308.49 828.16,-307.17 833.62,-305.9 839.28,-304.68 845.14,-303.53 851.18,-302.44 857.39,-301.42 863.74,-300.46 870.21,-299.59 876.8,-298.79 883.46,-298.08 890.2,-297.46 896.98,-296.93 903.79,-296.5 910.61,-296.17 917.4,-295.94 924.16,-295.83 930.86,-295.84 937.47,-295.96 943.99,-296.21 950.38,-296.58 956.63,-297.08 962.71,-297.71 968.61,-298.47 974.32,-299.37 979.8,-300.41 985.04,-301.57 990.03,-302.87 994.76,-304.31 999.2,-305.87 1003.35,-307.56 1007.18,-309.38 1010.7,-311.32 1013.89,-313.37 1016.74,-315.53 1019.24,-317.8 1021.4,-320.16 1023.19,-322.61 1024.63,-325.14 1025.7,-327.74 1026.41,-330.41 1026.75,-333.13 1026.74,-335.89 1026.36,-338.68 1025.62,-341.49 1024.53,-344.31 1023.09,-347.13 1021.32,-349.93 1019.21,-352.71 1016.78,-355.45"/>
<text text-anchor="middle" x="900.72" y="-336.2" font-family="sans-serif" font-size="16.00">PropertyContext</text>
</g>
<!-- PropertyContext&#45;&gt;UserContext -->
<g id="edge6" class="edge">
<title>PropertyContext&#45;&gt;UserContext</title>
<path fill="none" stroke="black" stroke-width="2" d="M828.24,-306.95C795.22,-292.48 755.58,-275.27 719.72,-260.18 691.67,-248.38 660.71,-235.72 633.56,-224.73"/>
<text text-anchor="middle" x="791.72" y="-263.58" font-family="sans-serif" font-size="12.00">Shared Kernel</text>
</g>
<!-- RealStateCompanysContext -->
<g id="node6" class="node">
<title>RealStateCompanysContext</title>
<polygon fill="none" stroke="black" stroke-width="2" points="931.86,-237.66 919.54,-238.17 907.22,-238.56 894.94,-238.82 882.74,-238.95 870.68,-238.96 858.81,-238.84 847.16,-238.59 835.79,-238.21 824.73,-237.69 814.02,-237.06 803.7,-236.29 793.8,-235.4 784.35,-234.39 775.38,-233.25 766.92,-232 758.98,-230.64 751.58,-229.17 744.75,-227.59 738.49,-225.91 732.8,-224.14 727.7,-222.27 723.19,-220.32 719.27,-218.3 715.93,-216.2 713.17,-214.04 710.98,-211.82 709.36,-209.55 708.28,-207.23 707.74,-204.88 707.72,-202.5 708.21,-200.1 709.18,-197.68 710.62,-195.26 712.5,-192.84 714.82,-190.43 717.54,-188.04 720.65,-185.66 724.13,-183.33 727.96,-181.02 732.12,-178.77 736.59,-176.56 741.35,-174.42 746.4,-172.33 751.7,-170.32 757.25,-168.38 763.04,-166.52 769.05,-164.75 775.27,-163.07 781.69,-161.48 788.3,-159.99 795.09,-158.6 802.07,-157.32 809.2,-156.14 816.51,-155.07 823.97,-154.12 831.58,-153.27 839.34,-152.54 847.24,-151.93 855.29,-151.44 863.46,-151.06 871.76,-150.79 880.19,-150.65 888.72,-150.62 897.37,-150.7 906.11,-150.9 914.93,-151.21 923.84,-151.63 932.8,-152.16 941.81,-152.8 950.85,-153.54 959.9,-154.38 968.95,-155.32 977.97,-156.36 986.94,-157.5 995.83,-158.72 1004.62,-160.03 1013.28,-161.43 1021.79,-162.9 1030.1,-164.46 1038.2,-166.08 1046.04,-167.78 1053.6,-169.54 1060.84,-171.36 1067.73,-173.24 1074.24,-175.17 1080.32,-177.15 1085.96,-179.17 1091.12,-181.24 1095.76,-183.33 1099.85,-185.46 1103.38,-187.62 1106.31,-189.79 1108.62,-191.98 1110.29,-194.18 1111.29,-196.39 1111.62,-198.59 1111.25,-200.8 1110.18,-202.99 1108.4,-205.16 1105.91,-207.32 1102.71,-209.44 1098.8,-211.54 1094.18,-213.59 1088.88,-215.61 1082.9,-217.57 1076.26,-219.48 1068.98,-221.33 1061.09,-223.12 1052.62,-224.83 1043.6,-226.47 1034.06,-228.03 1024.04,-229.5 1013.59,-230.88 1002.73,-232.17 991.52,-233.36 980.01,-234.44 968.24,-235.42 956.26,-236.28 944.11,-237.03 931.86,-237.66"/>
<text text-anchor="middle" x="900.72" y="-190.37" font-family="sans-serif" font-size="16.00">RealStateCompanysContext</text>
</g>
<!-- PropertyContext&#45;&gt;RealStateCompanysContext -->
<g id="edge4" class="edge">
<title>PropertyContext&#45;&gt;RealStateCompanysContext</title>
<path fill="none" stroke="black" stroke-width="2" d="M900.72,-296.63C900.72,-278.4 900.72,-257.1 900.72,-238.74"/>
<text text-anchor="middle" x="942.72" y="-263.58" font-family="sans-serif" font-size="12.00">Shared Kernel</text>
</g>
<!-- TransactionsContext -->
<g id="node7" class="node">
<title>TransactionsContext</title>
<polygon fill="none" stroke="black" stroke-width="2" points="1105.76,-90.56 1096.6,-91.46 1087.37,-92.23 1078.12,-92.88 1068.87,-93.41 1059.67,-93.8 1050.55,-94.06 1041.54,-94.18 1032.68,-94.17 1024,-94.02 1015.53,-93.73 1007.3,-93.3 999.32,-92.74 991.64,-92.04 984.27,-91.21 977.22,-90.24 970.53,-89.15 964.2,-87.93 958.24,-86.59 952.68,-85.13 947.51,-83.56 942.75,-81.88 938.4,-80.1 934.46,-78.22 930.94,-76.25 927.82,-74.21 925.12,-72.08 922.82,-69.89 920.92,-67.63 919.41,-65.33 918.29,-62.98 917.54,-60.59 917.16,-58.17 917.12,-55.73 917.44,-53.28 918.08,-50.82 919.04,-48.37 920.31,-45.93 921.88,-43.51 923.73,-41.11 925.85,-38.75 928.23,-36.43 930.87,-34.15 933.75,-31.93 936.86,-29.77 940.19,-27.68 943.75,-25.66 947.51,-23.72 951.47,-21.85 955.63,-20.08 959.98,-18.4 964.52,-16.81 969.24,-15.31 974.14,-13.92 979.22,-12.63 984.47,-11.45 989.89,-10.37 995.47,-9.41 1001.22,-8.55 1007.12,-7.8 1013.19,-7.17 1019.4,-6.64 1025.76,-6.23 1032.27,-5.92 1038.9,-5.73 1045.67,-5.65 1052.55,-5.67 1059.54,-5.8 1066.63,-6.04 1073.8,-6.38 1081.05,-6.82 1088.35,-7.37 1095.7,-8.01 1103.07,-8.75 1110.44,-9.58 1117.8,-10.51 1125.12,-11.52 1132.38,-12.62 1139.56,-13.81 1146.63,-15.08 1153.57,-16.43 1160.34,-17.85 1166.93,-19.35 1173.31,-20.92 1179.44,-22.55 1185.31,-24.25 1190.88,-26.02 1196.13,-27.84 1201.02,-29.71 1205.54,-31.64 1209.66,-33.61 1213.36,-35.62 1216.61,-37.68 1219.39,-39.77 1221.69,-41.89 1223.48,-44.04 1224.76,-46.21 1225.51,-48.4 1225.71,-50.6 1225.37,-52.8 1224.47,-55.01 1223.02,-57.21 1221.01,-59.41 1218.44,-61.59 1215.33,-63.75 1211.68,-65.88 1207.51,-67.98 1202.81,-70.04 1197.63,-72.06 1191.96,-74.02 1185.84,-75.93 1179.28,-77.77 1172.32,-79.55 1164.98,-81.25 1157.3,-82.87 1149.3,-84.4 1141.01,-85.84 1132.48,-87.18 1123.74,-88.41 1114.82,-89.54 1105.76,-90.56"/>
<text text-anchor="middle" x="1061.72" y="-44.78" font-family="sans-serif" font-size="16.00">TransactionsContext</text>
</g>
<!-- PropertyContext&#45;&gt;TransactionsContext -->
<g id="edge5" class="edge">
<title>PropertyContext&#45;&gt;TransactionsContext</title>
<path fill="none" stroke="black" stroke-width="2" d="M1016.8,-315.37C1056.65,-301.1 1097.12,-278.36 1120.72,-242.18 1151.01,-195.76 1121.18,-132.99 1094.06,-91.91"/>
<text text-anchor="middle" x="1208.22" y="-191.07" font-family="sans-serif" font-size="12.00"> &#160;&#160;&#160;&#160;&#160;&#160;&#160;&#160;&#160;&#160;&#160;&#160;&#160;&#160;&#160;&#160;&#160;&#160;&#160;&#160;&#160;&#160;&#160;&#160;&#160;&#160;&#160;&#160;&#160;&#160;&#160;&#160;&#160;&#160;&#160;&#160;&#160;&#160;&#160;</text>
<polygon fill="white" stroke="transparent" points="1087.06,-82.91 1087.06,-99.91 1101.06,-99.91 1101.06,-82.91 1087.06,-82.91"/>
<text text-anchor="start" x="1089.06" y="-88.31" font-family="sans-serif" font-size="12.00">D</text>
<polygon fill="white" stroke="transparent" points="1009.8,-306.37 1009.8,-323.37 1023.8,-323.37 1023.8,-306.37 1009.8,-306.37"/>
<text text-anchor="start" x="1011.8" y="-311.77" font-family="sans-serif" font-size="12.00">U</text>
</g>
<!-- RealStateCompanysContext&#45;&gt;TransactionsContext -->
<g id="edge7" class="edge">
<title>RealStateCompanysContext&#45;&gt;TransactionsContext</title>
<path fill="none" stroke="black" stroke-width="2" d="M946,-152.79C966.65,-134.37 991.15,-112.52 1012.28,-93.68"/>
<text text-anchor="middle" x="1027.72" y="-118.55" font-family="sans-serif" font-size="12.00">Shared Kernel</text>
</g>
</g>
</svg>
